<svg xmlns="http://www.w3.org/2000/svg" width="225" height="456" viewBox="0 0 225 456"><g><g><g/><g><g><g><path fill="#fff" d="M22.84 398.31a78.71 78.71 0 0 0-8.36 8.74c-.63.76.46 1.85 1.09 1.09a78.714 78.714 0 0 1 8.36-8.74c.74-.66-.35-1.74-1.09-1.09z"/></g><g><path fill="#94c8ff" d="M77.47 353.82l-45.13 24.39A57.92 57.92 0 0 0 2 429.16v24.78h220.6v-24.78a57.918 57.918 0 0 0-30.38-51l-45.13-24.39"/></g><g><path fill="#f9d4bb" d="M131.321 303.55v25.23a18.45 18.45 0 0 0 3.64 11l10.2 13.72a6.92 6.92 0 0 1-1 9.35l-32.8 19.15a.85.85 0 0 1-.55.21.85.85 0 0 1-.55-.21l-32.78-19.14a6.92 6.92 0 0 1-1-9.35l10.2-13.72a18.45 18.45 0 0 0 3.64-11v-25.24"/></g><g><path fill="#e2b89c" d="M132.62 331.16v-10.27h-41v8.74c10.29 7.45 22.91 9.14 41 1.53z"/></g><g><path fill="#474b58" d="M130.834 303.55v19.54a65.957 65.957 0 0 0 .15 8 20.12 20.12 0 0 0 3.72 9.49l1.88 2.53 7.08 9.53c.79.913 1.461 1.92 2 3a5.51 5.51 0 0 1 .07 3.8 5.168 5.168 0 0 1-.86 1.56c-.14.17-.3.32-.45.49-.15.17-.14.15 0 .06-1.62 1.08-3.42 2-5.11 2.92l-10.37 5.93-16.94 9.68c-.13.08-.54.23-.11.08h.82l-.39-.06 1.13 1.48v-.21a1.56 1.56 0 0 0-1.95-1.48l-.39.06h.82c.45.16 0 0-.14-.09l-.9-.51-3.2-1.81-10.19-5.73-17.68-10c-.16-.09-.33-.17-.48-.27.34.24 0-.07-.1-.14a5.37 5.37 0 0 1-.37-.41 5.29 5.29 0 0 1-.92-1.76 5.78 5.78 0 0 1 1.18-5.29l6.41-8.63c2.16-2.91 4.57-5.73 5.94-9.11 1.37-3.38 1.43-7 1.43-10.71v-21.94a1.54 1.54 0 1 0-3.08 0v19.8c0 2.81.25 5.84-.29 8.6a18 18 0 0 1-3.29 7.27l-2.44 3.28-7 9.37a10 10 0 0 0-2.15 4.83c-.32 2.65.78 6 3.12 7.51 1.68 1.08 3.5 2 5.24 3l10.58 6c5.58 3.15 11.11 6.44 16.76 9.47a2.81 2.81 0 0 0 1.9.24l-1.95-1.48v.21a1.55 1.55 0 0 0 1.13 1.48 2.82 2.82 0 0 0 1.92-.25l.79-.45 3.07-1.76 10.08-5.76 18.09-10.34c4-2.31 4.73-8.18 2.11-11.8-1.89-2.61-3.84-5.17-5.77-7.76l-3.38-4.54a30.805 30.805 0 0 1-2.42-3.56 17.072 17.072 0 0 1-2-8.16v-25.2a1.54 1.54 0 1 0-3.08 0z"/></g><g><path fill="#86b7e2" d="M54.2 425.62l-8.81 27.16-1.05-7.36.63-9.89z"/></g><g><path fill="#474b58" d="M45.5 453.945v-29.03a1.155 1.155 0 1 0-2.31 0v29.03a1.155 1.155 0 0 0 2.31 0z"/></g><g><path fill="#474b58" d="M45.757 437.936l8.64-10.34 1.24-1.49c.95-1.13-.68-2.77-1.63-1.63l-8.64 10.34-1.24 1.49c-.95 1.13.68 2.77 1.63 1.63z"/></g><g><path fill="#86b7e2" d="M177.51 425.41l8.81 27.16 1.05-7.36-.63-9.89z"/></g><g><path fill="#474b58" d="M188.52 453.735v-29.03a1.155 1.155 0 0 0-2.31 0v29.03a1.155 1.155 0 0 0 2.31 0z"/></g><g><path fill="#474b58" d="M187.593 436.096l-8.64-10.34-1.24-1.49c-1-1.14-2.58.5-1.63 1.63l8.64 10.34 1.24 1.49c1 1.14 2.58-.5 1.63-1.63z"/></g><g><path fill="#fff" d="M61.883 367.843l-9.77 5.41c-4.13 2.28-8.29 4.53-12.35 6.93a111.25 111.25 0 0 0-13.47 9.22c-.77.62.32 1.71 1.09 1.09a133.165 133.165 0 0 1 19.62-12.65l11.78-6.52 3.89-2.15c.87-.48.09-1.81-.78-1.33z"/></g><g><path fill="#fff" d="M69.62 363.573l-4.68 2.59c-.87.48-.09 1.81.78 1.33l4.68-2.59c.87-.48.09-1.81-.78-1.33z"/></g><g><path fill="#474b58" d="M76.27 352.278l-16 8.62-24.41 13.22-4.72 2.55a59.46 59.46 0 0 0-17.47 14.33A60.22 60.22 0 0 0 0 429.308v24.39a1.558 1.558 0 0 0 1.54 1.54h211.68c2.86 0 5.72.05 8.58 0h.38a1.556 1.556 0 0 0 1.083-.457c.288-.287.452-.676.457-1.083v-22.81a68.122 68.122 0 0 0-1.48-15.13 59.232 59.232 0 0 0-8.88-20.34 59.997 59.997 0 0 0-16-15.87c-2.44-1.64-5-3-7.58-4.4l-23.14-12.5c-6.29-3.4-12.53-6.89-18.87-10.2l-.31-.17c-1.74-.94-3.3 1.71-1.55 2.66l15.59 8.42 24.44 13.21 5.08 2.74a56.354 56.354 0 0 1 29.64 50.12v24.3l1.54-1.54H10.5c-2.85 0-5.74-.15-8.58 0h-.38l1.54 1.54v-22.59a65.55 65.55 0 0 1 1.34-14.41 56.92 56.92 0 0 1 8.79-20A56.12 56.12 0 0 1 29 381.488c2.2-1.4 4.51-2.61 6.8-3.85l23.2-12.55c6.16-3.33 12.42-6.51 18.49-10l.31-.17c1.74-.94.19-3.6-1.55-2.66z"/></g><g><path fill="#fff" d="M168.42 407.92h-51.68a1.41 1.41 0 0 0-1.41 1.41v30.8c0 .779.631 1.41 1.41 1.41h51.68a1.41 1.41 0 0 0 1.41-1.41v-30.8a1.41 1.41 0 0 0-1.41-1.41z"/></g><g opacity=".15"><g opacity=".02"><path fill="#94c8ff" d="M170 439.3h-50.78a1.85 1.85 0 0 1-1.85-1.85v-29.92a1.83 1.83 0 0 1 0-.41 1.85 1.85 0 0 0-1.43 1.8v29.92a1.85 1.85 0 0 0 1.85 1.85h50.81a1.85 1.85 0 0 0 1.8-1.43 1.829 1.829 0 0 1-.4.04z"/></g></g><g><path fill="#ffe66a" d="M115.43 413.56l.02-5.72 11.39-.92 41.82 1.1 1.56 10.59-55.53.61z"/></g><g><path fill="#5a6281" d="M114.42 419.46l.78-5.92v-5.91l11.61-.94 42 1.11 1.63 11h-.26zm1.26-11.4v5.53l-.71 5.4 55-.61-1.5-10.14-41.61-1.1z"/></g><g><path fill="#474b58" d="M167.881 440.377h-50.46c-.52 0-1-.09-1-.74v-23.23c0-2.16-.14-4.38 0-6.54 0-.59.41-.79.93-.8h49.45c.357-.02.714-.02 1.07 0 .81.1.7.81.7 1.41v28.38c0 .58.14 1.47-.69 1.52-1.48.08-1.49 2.39 0 2.31a3.14 3.14 0 0 0 3-3.4v-28.7a3.76 3.76 0 0 0-.95-3c-1.2-1.15-3.35-.81-4.88-.81h-32.55c-5.07 0-10.14-.05-15.2 0a3.1 3.1 0 0 0-3.23 3v23.22c0 2.21-.07 4.43 0 6.64a3.08 3.08 0 0 0 3.07 3.07h50.74a1.165 1.165 0 1 0 0-2.33z"/></g><g><path fill="#474b58" d="M115.215 419.804h47.78c2.21 0 4.44.1 6.65 0h.1a1.155 1.155 0 0 0 0-2.31h-47.75c-2.21 0-4.44-.1-6.65 0h-.1a1.155 1.155 0 1 0 0 2.31z"/></g><g><path fill="#fbcdac" d="M34.18 236.92c7.318 0 13.25-8.57 13.25-19.14s-5.932-19.14-13.25-19.14-13.25 8.57-13.25 19.14 5.932 19.14 13.25 19.14z"/></g><g><path fill="#e2b89c" d="M24.003 224.7c0-10.57 5.93-19.14 13.25-19.14 3.91 0 7.42 2.44 9.84 6.32-1.72-7.69-6.72-13.25-12.61-13.25-7.32 0-13.25 8.57-13.25 19.14a24.39 24.39 0 0 0 3.41 12.82 27 27 0 0 1-.64-5.89z"/></g><g><path fill="#474b58" d="M19.77 217.778c0 7 2.66 15.56 9.35 19a10.77 10.77 0 0 0 9 .52 15.17 15.17 0 0 0 7.22-6.62c4-6.9 4.31-16.06 1.22-23.36-2.51-5.93-8.3-11.4-15.21-9.46-7.11 2-10.59 10-11.37 16.7-.12 1.063-.18 2.131-.18 3.2a1.155 1.155 0 0 0 2.31 0c0-6.19 2.2-13.8 8.06-16.95a8.48 8.48 0 0 1 7.3-.38 13.14 13.14 0 0 1 6.09 5.94 24.717 24.717 0 0 1 1 20.75c-2.05 5-6.84 10-12.74 8.27-3-.91-5.32-3.39-6.84-6.06a23.58 23.58 0 0 1-2.86-11.57 1.175 1.175 0 1 0-2.35.02z"/></g><g><path fill="#474b58" d="M25 213.394l4.1 9.53c.39.91 1.72.12 1.33-.78l-4.1-9.53c-.39-.91-1.72-.12-1.33.78z"/></g><g><path fill="#474b58" d="M29.14 212.61L25 222.15c-.39.9.94 1.68 1.33.78l4.1-9.53c.39-.9-.94-1.68-1.33-.78z"/></g><g><path fill="#fbcdac" d="M193.24 234.39c7.318 0 13.25-8.57 13.25-19.14s-5.932-19.14-13.25-19.14-13.25 8.57-13.25 19.14 5.932 19.14 13.25 19.14z"/></g><g><path fill="#e2b89c" d="M203.54 222.33c0-10.57-5.93-19.14-13.25-19.14-3.91 0-7.42 2.44-9.84 6.32 1.72-7.69 6.72-13.25 12.61-13.25 7.32 0 13.25 8.57 13.25 19.14a24.39 24.39 0 0 1-3.41 12.82c.429-1.934.643-3.91.64-5.89z"/></g><g><path fill="#474b58" d="M178.83 215.248c0 7 2.66 15.56 9.35 19a10.77 10.77 0 0 0 9 .52 15.17 15.17 0 0 0 7.22-6.62c4-6.9 4.31-16.06 1.22-23.36-2.51-5.93-8.3-11.4-15.21-9.46-7.11 2-10.59 10-11.37 16.7-.12 1.063-.18 2.131-.18 3.2a1.155 1.155 0 0 0 2.31 0c0-6.19 2.2-13.8 8.06-16.95a8.48 8.48 0 0 1 7.3-.38 13.14 13.14 0 0 1 6.09 5.94 24.717 24.717 0 0 1 1 20.75c-2.05 5-6.84 10-12.74 8.27-3-.91-5.32-3.39-6.84-6.06a23.58 23.58 0 0 1-2.86-11.57 1.175 1.175 0 1 0-2.35.02z"/></g><g><path fill="#f9d4bb" d="M112.15 112.86h-.01c-41.841 0-75.76 33.919-75.76 75.76v59.39c0 41.841 33.919 75.76 75.76 75.76h.01c41.841 0 75.76-33.919 75.76-75.76v-59.39c0-41.841-33.919-75.76-75.76-75.76z"/></g><g><path fill="#e2b89c" d="M114.38 307.16a76 76 0 0 1-75.76-75.76V248a76 76 0 0 0 75.76 75.76A75.999 75.999 0 0 0 190.14 248v-16.61a76.003 76.003 0 0 1-75.76 75.77z"/></g><g><path fill="#474b58" d="M112.295 321.849a73.355 73.355 0 0 1-33.15-7.91 74.245 74.245 0 0 1-39.41-52.21 97.516 97.516 0 0 1-1.28-18.54v-45.48c0-4.79-.15-9.62.19-14.4A73.35 73.35 0 0 1 48.855 151a74.68 74.68 0 0 1 22.94-24 73.49 73.49 0 0 1 31.84-11.69 74.17 74.17 0 0 1 79.13 51.32 78.912 78.912 0 0 1 3.37 23.86v57.41a73.501 73.501 0 0 1-6.57 30.51 75.359 75.359 0 0 1-20.35 26.54 73.396 73.396 0 0 1-46.92 16.93c-2.47 0-2.48 3.85 0 3.85a78.001 78.001 0 0 0 76.16-62.38 100.744 100.744 0 0 0 1.54-19.98v-46.13c0-5.12.16-10.29-.3-15.39a77.647 77.647 0 0 0-11.21-33.79 79.05 79.05 0 0 0-24.32-24.79 77.657 77.657 0 0 0-33.35-11.85 76.87 76.87 0 0 0-35.44 4.37 78.289 78.289 0 0 0-47 49.12 81.77 81.77 0 0 0-3.73 25.36V247.96a77.71 77.71 0 0 0 77.69 77.73 1.918 1.918 0 0 0 1.9-1.94 1.922 1.922 0 0 0-1.94-1.9z"/></g><g><path fill="#474b58" d="M195.18 213.404l4.1 9.53c.39.91 1.72.12 1.33-.78l-4.1-9.53c-.39-.91-1.72-.12-1.33.78z"/></g><g><path fill="#474b58" d="M199.28 212.63l-4.1 9.53c-.39.9.94 1.68 1.33.78l4.1-9.53c.39-.9-.94-1.68-1.33-.78z"/></g><g><path fill="#fff" d="M55.346 101.404c5-2.5 9.9-5.12 15-7.37a1.16 1.16 0 0 0 .41-1.58 1.18 1.18 0 0 0-1.59-.45c-5.09 2.25-10 4.87-15 7.37-1.33.67-.16 2.66 1.16 2z"/></g><g><path fill="#474b58" d="M119.435 262.5a13.11 13.11 0 0 1-5 4.72h-.08l-.3.1c-.19.06-.38.12-.58.16-.2.04-.6.09-.3.06h-1.08c-.3 0 0 0 0 0h-.26a7.57 7.57 0 0 1-1-.29c-.27-.1 0 0 0 0l-.23-.11-.44-.24a9.312 9.312 0 0 1-.83-.55c-.23-.17 0 0 0 0l-.19-.16-.36-.32a11.002 11.002 0 0 1-1.17-1.24 12.92 12.92 0 0 1-2.55-7.08c-.4-5.34 1.44-10.56 3.31-15.48 2-5.28 4.13-10.45 5.08-16.06a87.324 87.324 0 0 0 .47-21.2 1.58 1.58 0 0 0-1.54-1.54 1.55 1.55 0 0 0-1.54 1.54c.49 6.53.76 13.17-.25 19.66a51.57 51.57 0 0 1-2.26 9c-1 2.73-2.05 5.41-3.08 8.11-2 5.3-3.89 11-3.2 16.78.63 4.64 2.95 9.64 7.4 11.64a7.55 7.55 0 0 0 5.94.15c2.88-1.16 5-3.59 6.71-6.08a1.55 1.55 0 0 0-.55-2.1 1.57 1.57 0 0 0-2.1.55z"/></g><g><path fill="#bfe2bf" d="M158.35 138.13c-5.74-4-11.9-7-18.17-7.73 0 0-12.19 7.23-26 7.38h-.08c-13.82-.15-26-7.38-26-7.38-7.29.88-14.45 4.73-20.95 9.78a73.303 73.303 0 0 0-28.4 57.9v.16A76.27 76.27 0 0 1 35.63 148s-7.23-24.81-23-27.89c0 0 8.83-16.61 36.58-4.92 0 0-14.5-18.77-44.78-4.15 0 0 13.24-29.07 54.24-22.46L4.43 62.87s41.47-13.7 81.36 3.07L36.44 36.87s31.22-24 62.85.07c0 0 1.64-36.22 40.11-35 0 0-12.58 15.71-10.77 36.17 29.4-20.37 66-12.16 66-12.16l-51.69 40.62c49.19-24.61 81.35-3.08 81.35-3.08l-54.23 25.69c41-6.61 54.24 22.46 54.24 22.46-30.3-14.64-44.78 4.15-44.78 4.15 27.75-11.69 36.58 4.92 36.58 4.92-15.77 3.08-23 27.89-23 27.89 4.69 16.63 2.6 34.3-4.1 50.26h1v-.16l-.47-1v.53l-31.18-60.11c1.44 1 2.85 2.09 4.23 3.21"/></g><g><path fill="#d3ffd3" d="M114.27 8.69C100 18.85 99.21 37.09 99.21 37.09 67.58 13 36.36 37 36.36 37l49.35 29.1C45.82 49.33 4.36 63 4.36 63l54.23 25.71c-41-6.61-54.24 22.46-54.24 22.46 30.27-14.61 44.78 4.15 44.78 4.15-27.75-11.69-36.58 4.92-36.58 4.92 15.77 3.08 23 27.89 23 27.89a76.27 76.27 0 0 0 3.1 50.26v-.16A73.308 73.308 0 0 1 67 140.34c6.5-5.05 13.65-8.9 20.95-9.78 0 0 11.65 6.91 25.08 7.36.49-24.11.97-93.73 1.24-129.23z"/></g><g><path fill="#3e424e" d="M157.271 136.474c-6.251-2.662-12.288-5.913-18.77-7.95-1.017-.32-2.018.695-3 1.11-1.663.702-3.193 1.748-4.93 2.24-5.636 1.596-11.255 3.845-17.11 4-5.947.158-11.831-1.549-17.58-3.08-6.569-1.75-6.546-4.75-11.78-3.94-1.57.243-3.143.593-4.62 1.18-15.15 6.018-25.077 14.435-34.63 30.6-5.976 10.112-6.961 22.444-10 33.79-.338 1.263-1.116 3.097-.1 3.92.863.7 1.789-1.511 2.89-1.66.478-.065.977 1.623.88 1.15-1.722-8.378-4.587-16.53-5.78-25-.782-5.553.331-13.34 1.42-19.22.084-.454 1.36-5.544 1.24-6.12-.488-2.354-1.448-4.608-2.54-6.75-2.198-4.312-3.932-9.075-7.3-12.55-4.076-4.204-9.323-7.176-14.49-9.93-.896-.477.64 1.942 1.15 2.82.08.138.163-.276.25-.41.033-.051.414-.62.52-.74.456-.516.909-1.037 1.39-1.53.293-.3.616-.571.93-.85.162-.144.613-.528.84-.67.91-.57 1.82-1.141 2.75-1.68.268-.155.559-.269.84-.4.132-.062.262-.132.4-.18.038-.013.082.012.12 0 .624-.202 1.21-.552 1.86-.64 3.115-.424 6.27-1.286 9.39-.89 5.175.656 10.057 2.783 15.13 4 .844.203 1.723-.104 2.17-.88.393-.682.315-1.778-.3-2.33-2.317-2.078-4.328-4.828-7.26-5.87-15.691-5.575-24.959-6.308-39.79 1.34-1.088.56 1.317 2.686 2.54 2.65 1.06-.031 1.022-1.86 1.57-2.77.286-.475.615-.923.93-1.38.172-.25.35-.495.53-.74.094-.129.192-.254.29-.38.039-.05.078-.102.12-.15 1.038-1.195 1.928-2.538 3.12-3.58 2.924-2.558 5.756-5.344 9.18-7.18 4.415-2.368 9.114-4.549 14.07-5.29 7.352-1.1 14.867-.055 22.3-.15.997-.013 1.8-.02 2.27-1.11.358-.83.061-1.969-.79-2.4-6.029-3.052-12.22-5.773-18.33-8.66-9.754-4.61-19.51-9.213-29.26-13.83-2.217-1.05-4.19-3.287-6.64-3.17-1.179.057-1.64 3.517-.46 3.51 5.518-.032 10.656-3.193 16.16-3.6 12.7-.939 25.534-1.738 38.2-.42 8.936.93 17.091 5.936 26 7.1 1.259.165 2.434-2.672 1.48-3.51-4.87-4.273-11.157-6.592-16.74-9.88-8.84-5.205-17.688-10.398-26.53-15.6-2.038-1.198-3.749-3.492-6.11-3.6-1.106-.05-1.07 3.601 0 3.32 4.34-1.141 7.457-5.42 11.83-6.43 9.469-2.187 19.366-4.276 29-3 7.34.972 13.072 7.108 20.08 9.5 1.051.359 2.062-.919 2.89-1.66.249-.223.05-.667.08-1 .013-.154.038-.306.05-.46.004-.06-.008-.12 0-.18.068-.498.105-1.003.23-1.49.722-2.806 1.462-5.61 2.31-8.38.336-1.098 1.694-3.794 2.2-4.7.491-.879 1.03-1.73 1.57-2.58.27-.424.57-.83.86-1.24.14-.196.284-.389.43-.58 2.763-3.625 8.782-7.994 10.82-8.81 6.157-2.464 13.358-1.29 19.56-3.64 1.1-.416-.278-3.92-1.27-3.29-2.313 1.47-3.34 4.41-4.44 6.92-4.091 9.346-8.479 19.988-6.89 30.61.164 1.099 1.825 1.977 2.89 1.66 11.735-3.496 22.462-10.235 34.44-12.78 8.383-1.781 17.14 0 25.71 0 .067 0 .134-.007.2 0 .18.02.36.053.54.08.303.046.607.091.91.14.5.081 1.001.16 1.5.25.425.077 1.21.677 1.27.25.155-1.096.109-3.763-.85-3.21-6.427 3.706-11.648 9.193-17.48 13.78-9.295 7.31-18.6 14.607-27.9 21.91-2.123 1.667-4.364 3.194-6.37 5-.713.642-.714 1.802-.15 2.52.743.947 1.5.732 2.48.5 16.01-3.791 31.71-9.187 48-11.49 5.95-.841 16.106 2.077 22.67 4.28.857.288 1.68.664 2.52 1 .078.031.153.067.23.1.18.077.361.151.54.23.334.148.676.282 1 .45 1.486.772 2.793 2.725 4.43 2.37 1.085-.235 1.066-3.64 0-3.33-6.49 1.894-12.22 5.785-18.33 8.68-9.73 4.612-19.458 9.231-29.19 13.84-2.241 1.061-4.564 1.964-6.73 3.17-.83.462-1.17 1.54-.79 2.4.552 1.25 1.239.94 2.31 1.08 11.639 1.526 23.556 1.65 34.91 4.63 3.881 1.02 6.626 4.547 9.73 7.09 1.266 1.038 2.234 2.394 3.33 3.61.22.245.415.512.62.77.028.035.053.074.08.11.11.144.225.283.33.43.361.503.742.994 1.07 1.52.697 1.119.7 3.191 2 3.41 1.223.206 3.82-2.285 2.63-2.63-9.624-2.79-19.601-5.674-29.61-5.19-5.64.273-10.313 4.635-15.26 7.36-.37.204-2.618 2.232-2.768 3.396-.113.878.334 1.687 1.163 2.023.382.155.826.127 1.235.071 7.801-1.068 15.498-3.263 23.37-3.44 2.327-.052 4.292 1.805 6.41 2.77.242.11.442.297.66.45.41.288 1.172.95 1.35 1.12.537.516 1.04 1.067 1.55 1.61.11.117.213.241.31.37.147.195.285.397.42.6.115.173.217.705.33.53.551-.853 1.898-3.507 1.15-2.82-10.915 10.021-21.078 15.681-24.29 29.21-.243 1.023.274 2.087.47 3.12.397 2.091 1.054 4.137 1.31 6.25.508 4.192 1.483 8.437.98 12.63-1.148 9.573-5.186 18.704-5.89 28.32-.093 1.268 2.656 1.105 3.78.51.661-.35-.015-1.932-.74-2.12-1.2-.311-2.44.513-3.58 1-1.02.436 6.978 9.93 3.58-.47-2.375-7.267-7.04-13.573-10.56-20.36-5.6-10.797-11.203-21.592-16.8-32.39-1.266-2.442-1.57-5.705-3.79-7.33-1-.732-2.895 1.419-2.63 2.63.343 1.569 2.501 2.023 3.84 2.91.406.269.873.534 1.36.534.487 0 1.014-.192 1.36-.534.348-.344.556-.87.556-1.36 0-.49-.2-1.024-.556-1.36-1.409-1.325-2.7-3.277-4.62-3.51-1.23-.15-3.034 1.458-2.63 2.63 2.493 7.227 7.044 13.571 10.56 20.36 5.59 10.795 11.17 21.595 16.76 32.39 1.27 2.455 1.724 5.558 3.82 7.36.94.808 2.44-.513 3.58-1 .162-.07.175-.553 0-.53-1.228.161-2.538.33-3.58 1-.31.2.102 1 .47 1 .344 0-.158-.671-.26-1-.016-.051-.017.11 0 .16.144.425.184.922.481 1.258.649.734 1.68.844 2.489.316.373-.244.743-.623.81-1.064 2.012-13.243 4.594-26.45 5.4-39.82.234-3.89-1.47-7.655-2.31-11.46-.072-.325-.165 1.29 0 1 .418-.732.493-1.615.8-2.4.74-1.893 1.267-3.904 2.34-5.63 3.04-4.888 5.872-10.048 9.94-14.12 2.267-2.27 5.71-2.926 8.56-4.4.257-.133.544-.228.759-.421.441-.397.677-.975.639-1.567-.018-.289-.059-.613-.248-.832-1.679-1.943-2.953-4.549-5.3-5.59-11.932-5.294-21.525-6.305-33.39-.17-1.1.569.729 2.729 1.87 3.21.732.309 1.078-1.168 1.64-1.73.272-.272.57-.516.86-.77.148-.13.299-.255.45-.38.095-.078.194-.153.29-.23.04-.033.077-.07.12-.1 3.592-2.535 5.454-4.08 10.62-5.11 3.77-.752 7.712-1.281 11.51-.69 5.812.905 11.247 3.45 16.89 5.11.39.115.8.273 1.203.214a1.94 1.94 0 0 0 1.641-1.64c.059-.403.014-.866-.214-1.204-2.312-3.428-3.978-7.593-7.34-10-18.05-12.924-27.585-16.595-49.09-13.3-1.267.194.31 3.842 1.55 3.52 6.544-1.698 12.22-5.786 18.33-8.68 9.737-4.612 19.473-9.227 29.21-13.84 2.23-1.057 4.919-1.452 6.69-3.17.794-.77.927-2.716 0-3.32-4.36-2.84-9.236-5.334-14.39-6.05-29.724-4.128-42.684-3.513-68.9 9.12-1.14.55 1.216 3.603 2.33 3 6.501-3.519 11.626-9.134 17.44-13.7l27.9-21.91c2.123-1.667 4.864-2.76 6.37-5 .618-.918.207-2.88-.85-3.21-4.717-1.468-9.797-1.902-14.73-1.64-22.374 1.19-34.755 2.091-52.78 13.99-.927.612 2.498 2.7 2.89 1.66 4.021-10.662 5.754-22.056 8.93-33 .09-.31 1.038-1.487 1.44-2.04.055-.075-.2.308-.17.22.12-.338.386-.627.439-.982.11-.736-.2-1.474-.801-1.912-.29-.211-.67-.494-1.008-.376-10.594 3.695-22.671 4.87-31.55 11.73-5.923 4.577-6.92 13.297-9.79 20.21-.645 1.553-1.608 3.597-.68 5 .613.927 3.929-1.267 2.89-1.66-11.654-4.407-23.345-10.187-35.79-10.78-8.612-.41-16.542 4.912-24.63 7.9-1.622.6-2.947 1.814-4.36 2.81a2.121 2.121 0 0 0-.65.72 2.03 2.03 0 0 0-.235.94c0 .631.332 1.323.885 1.66 5.532 3.37 11.159 6.582 16.74 9.87 8.829 5.202 17.66 10.4 26.49 15.6 2.037 1.2 3.746 3.572 6.11 3.6 1.27.015 2.705-3.176 1.48-3.51-40.303-10.976-40.574-9.807-76.71-4.62-1.939.278-4.159.295-5.67 1.54-.911.75-1.435 2.845-.46 3.51 5.585 3.81 12.217 5.793 18.33 8.68 9.75 4.606 19.508 9.197 29.26 13.8 2.231 1.053 4.224 3.273 6.69 3.17 1.268-.053 2.749-3.556 1.48-3.51-12.595.458-25.655.516-37.5 4.82-7.028 2.554-11.422 9.674-16.77 14.9-.064.062-2.607 3.364-2.394 4.824a1.94 1.94 0 0 0 1.64 1.64c.404.059.802-.144 1.204-.214 9.03-1.571 17.976-3.741 27.09-4.71 1.619-.172 3.167.78 4.7 1.33 1.235.443 2.424 1.019 3.58 1.64a28.849 28.849 0 0 1 3.71 2.4c.41.31 1.03.864 1.29 1.12.683.674 1.08 2.341 2 2.07 1.188-.35 3.108-3.219 1.87-3.21-12.387.088-24.75 1.621-37 3.46-.34.05-1.894 2.178-1.958 3.182a1.94 1.94 0 0 0 .639 1.567c.215.193.526.25.759.421 4.588 3.367 9.625 6.217 13.7 10.19 2.05 2 2.977 4.896 4.35 7.41.606 1.11 1.067 2.294 1.58 3.45.015.034-.01.075 0 .11.033.11.086.213.13.32.093.227.19.452.28.68.18.459.367.915.53 1.38.347.995.528 2.057 1 3 .149.298.002-1.333 0-1-.092 13.813-.71 27.633-.27 41.44.063 1.995 1.141 3.826 1.77 5.72.483 1.458 1.482 4.094 2.49 5.27.211.247.627.22.952.21a2 2 0 0 0 1.64-.942c.171-.276.222-.612.298-.928 2.553-10.622 2.705-22.11 7.587-31.883 4.881-9.773 12.615-18.135 20.933-25.217 5.312-4.523 12.765-5.649 19-8.78.308-.155-1.323-.38-1-.26 6.07 2.27 11.903 5.398 18.25 6.71 11.14 2.303 18.808.104 29.06-3.49 2.35-.824 4.527-2.079 6.74-3.22.306-.158-1.31.112-1 .26 5.641 2.692 11.418 5.095 17.2 7.47.453.186.982.317 1.456.193 1.059-.278 1.618-1.289 1.344-2.333-.333-1.27-.755-1.18-.78-1.19z"/></g><g><path fill="#fffdfd" d="M63.695 34.677a44.38 44.38 0 0 1 27.18 8.11 1.16 1.16 0 0 0 1.58-.41 1.18 1.18 0 0 0-.46-1.59 46.46 46.46 0 0 0-28.3-8.42 1.155 1.155 0 1 0 0 2.31z"/></g><g><path fill="#fffdfd" d="M45.104 38.294a47.28 47.28 0 0 1 9.2-2.6c1.46-.28.84-2.51-.61-2.23a47.28 47.28 0 0 0-9.2 2.6 1.19 1.19 0 0 0-.81 1.42 1.16 1.16 0 0 0 1.42.81z"/></g><g><path fill="#aeccae" d="M168.002 64.948a83.82 83.82 0 0 1 31.6-1.58 88.23 88.23 0 0 1 10.66 2.23 1.156 1.156 0 1 0 .61-2.23 87.1 87.1 0 0 0-35.29-2.23 85.53 85.53 0 0 0-8.2 1.58c-1.44.35-.83 2.58.61 2.23z"/></g><g><path fill="#aeccae" d="M144.002 75a57.752 57.752 0 0 1 9.85-5.29 1.16 1.16 0 0 0 .41-1.58 1.18 1.18 0 0 0-1.58-.41 57.752 57.752 0 0 0-9.85 5.28c-1.21.85-.05 2.85 1.16 2z"/></g><g><path fill="#aeccae" d="M138.575 39.824a83.35 83.35 0 0 1 30.29-9.19 88.362 88.362 0 0 1 10.82-.42 1.155 1.155 0 0 0 0-2.31 86.33 86.33 0 0 0-34.69 6.4 89.317 89.317 0 0 0-7.55 3.53c-1.31.69-.15 2.68 1.16 2z"/></g><g><path fill="#aeccae" d="M117.878 55.387a56.778 56.778 0 0 1 8.19-7.51 1.16 1.16 0 0 0 0-1.63 1.18 1.18 0 0 0-1.63 0 56.78 56.78 0 0 0-8.19 7.51c-1 1.12.67 2.76 1.63 1.63z"/></g><g><path fill="#aeccae" d="M101.46 42.61a79.45 79.45 0 0 1 15.82-26.75A85.266 85.266 0 0 1 125 8.33c1.13-1-.51-2.6-1.63-1.63a82.65 82.65 0 0 0-21 27.64A84.842 84.842 0 0 0 99.26 42c-.49 1.4 1.74 2 2.23.61z"/></g><g><path fill="#aeccae" d="M97.1 67.74a53.18 53.18 0 0 1 .75-10.63 1.19 1.19 0 0 0-.85-1.43 1.16 1.16 0 0 0-1.42.81 56.22 56.22 0 0 0-.83 11.25c.08 1.48 2.39 1.49 2.31 0z"/></g><g><path fill="#aeccae" d="M161.604 97.72a83.83 83.83 0 0 1 31.64 0 88.076 88.076 0 0 1 10.53 2.76c1.41.46 2-1.76.61-2.23a86.47 86.47 0 0 0-35-4 90.52 90.52 0 0 0-8.35 1.19c-1.46.28-.84 2.5.61 2.23z"/></g><g><path fill="#aeccae" d="M137.089 106.56a56.37 56.37 0 0 1 9.84-4.68 1.19 1.19 0 0 0 .81-1.42 1.16 1.16 0 0 0-1.42-.81 59.49 59.49 0 0 0-10.39 4.91c-1.25.79-.1 2.79 1.16 2z"/></g><g><path fill="#aeccae" d="M56.405 139.477a82.6 82.6 0 0 1 28-14.5 88.007 88.007 0 0 1 10.6-2.39c1.46-.24.84-2.46-.61-2.23a85.7 85.7 0 0 0-32.87 12.64 87.55 87.55 0 0 0-6.75 4.87 1.16 1.16 0 0 0 0 1.63 1.18 1.18 0 0 0 1.63 0z"/></g><g><path fill="#aeccae" d="M38.996 158.535a54.501 54.501 0 0 1 6.43-8.64c1-1.11-.65-2.75-1.63-1.63a57.56 57.56 0 0 0-6.79 9.1 1.156 1.156 0 1 0 2 1.16z"/></g><g><path fill="#474b58" d="M58.813 202.21c.12-.19.26-.37.39-.55.076-.089.146-.183.21-.28-.22.42-.21.27 0 0s.45-.55.68-.82c.586-.667 1.2-1.334 1.84-2 .366-.354.743-.687 1.13-1l.62-.52.3-.24c.25-.2-.28.21.07-.05a22.744 22.744 0 0 1 3-1.92l.82-.4.22-.1.37-.14a16.116 16.116 0 0 1 2.73-.78l.44-.08c.33-.06-.3 0 .16 0a15.36 15.36 0 0 1 2.08-.07c.32 0 .64 0 1 .07s-.24 0 .22 0l.57.1c.768.158 1.524.375 2.26.65l.6.23c-.27-.12.24.11.32.15.446.213.886.443 1.32.69.867.495 1.699 1.05 2.49 1.66a35.186 35.186 0 0 1 5.61 5.75 1.93 1.93 0 0 0 2.72 0 2 2 0 0 0 0-2.72c-5-6.21-12-11.55-20.32-10.24-5 .79-9.48 4-12.81 7.69a25.493 25.493 0 0 0-2.34 2.94 1.923 1.923 0 0 0 3.32 1.94z"/></g><g><path fill="#474b58" d="M133.733 204.36c.12-.19.26-.37.39-.55.076-.089.146-.183.21-.28-.22.42-.21.27 0 0s.45-.55.68-.82c.586-.667 1.2-1.334 1.84-2 .366-.354.743-.687 1.13-1l.62-.52.3-.24c.25-.2-.28.21.07-.05a22.744 22.744 0 0 1 3-1.92l.82-.4.22-.1.37-.14a16.116 16.116 0 0 1 2.73-.78l.44-.08c.33-.06-.3 0 .16 0a15.36 15.36 0 0 1 2.08-.07c.32 0 .64 0 1 .07s-.24 0 .22 0l.57.1c.768.158 1.524.375 2.26.65l.6.23c-.27-.12.24.11.32.15.446.213.886.443 1.32.69.867.495 1.699 1.05 2.49 1.66a35.187 35.187 0 0 1 5.61 5.75 1.93 1.93 0 0 0 2.72 0 2 2 0 0 0 0-2.72c-5-6.21-12-11.55-20.32-10.24-5 .79-9.48 4-12.81 7.69a25.489 25.489 0 0 0-2.34 2.94 1.923 1.923 0 1 0 3.32 1.94z"/></g><g><path fill="#474b58" d="M102.056 296.938c3.09 3.89 8.64 6.54 13.54 4.82a15.13 15.13 0 0 0 6.48-4.82 1.58 1.58 0 0 0 0-2.18 1.55 1.55 0 0 0-2.18 0 12.92 12.92 0 0 1-4.84 3.93 8.44 8.44 0 0 1-1.92.5 8.35 8.35 0 0 1-1.11 0h-.75-.08a9.15 9.15 0 0 1-3.49-1.36c-.26-.16-.513-.327-.76-.5l-.33-.24c-.29-.21.07.07-.2-.15s-.75-.63-1.1-1a12.05 12.05 0 0 1-1.09-1.16 1.55 1.55 0 0 0-2.18 0 1.58 1.58 0 0 0 0 2.18z"/></g><g><path fill="#80766e" d="M54.46 181.742s19.54-12.57 36.93-15.17c10.36-1.55 13.39 12.09 3.13 14.11-8.2 1.61-20.79 2.32-40.06 1.06z"/></g><g><path fill="#6d645e" d="M94.52 176c-7.42 1.46-18.45 2.2-34.77 1.37-3.29 1.84-5.29 3.12-5.29 3.12 19.27 1.29 31.86.56 40.06-1.06 5.22-1 7-5.07 6.12-8.58-.64 2.34-2.57 4.43-6.12 5.15z"/></g><g><path fill="#474b58" d="M56 182.004a108.516 108.516 0 0 1 11.3-6.53c3.6-1.863 7.306-3.512 11.1-4.94a58.9 58.9 0 0 1 12.6-3.36 9.51 9.51 0 0 1 2.08 0H93.37l.44.09c.34.087.675.197 1 .33l.19.09.44.23c.282.158.552.335.81.53-.22-.17.1.09.16.15l.3.28.32.34.22.26a6.32 6.32 0 0 1 1.29 2.93c0 .07.08.5.05.31s0 .19 0 .25c.022.333.022.667 0 1v.54a6.87 6.87 0 0 1-.23.86c0 .12-.08.24-.13.36s.1-.22 0 0l-.08.17c-.15.27-.3.52-.46.78 0 0-.17.23 0 0l-.13.15-.27.3-.34.33c-.07.06-.44.35-.23.2a7.9 7.9 0 0 1-3.6 1.35c-.667.114-1.313.22-1.94.32-.7.1-.93.13-1.77.23-1.54.18-3.08.32-4.62.42-8.51.463-17.041.319-25.53-.43l-4-.33a1.55 1.55 0 0 0-1.54 1.54 1.57 1.57 0 0 0 1.54 1.54c9.332.946 18.718 1.23 28.09.85 3.216-.16 6.42-.494 9.6-1 3-.49 6-1.46 7.65-4.24 3.16-5.17-.3-12.29-6-13.58a14 14 0 0 0-5.57.14c-2.263.404-4.5.942-6.7 1.61a93.628 93.628 0 0 0-12.74 5 110.538 110.538 0 0 0-14.82 8.22l-.24.16c-1.71 1.03-.17 3.69 1.47 2.55z"/></g><g><path fill="#80766e" d="M169.778 182.202s-19.52-12.57-36.93-15.2c-10.36-1.55-13.39 12.09-3.13 14.11 8.2 1.64 20.78 2.38 40.06 1.09z"/></g><g><path fill="#6d645e" d="M129.715 176.44c7.42 1.46 18.45 2.2 34.77 1.37 3.29 1.84 5.29 3.12 5.29 3.12-19.27 1.29-31.86.56-40.06-1.06-5.22-1-7-5.07-6.12-8.58.62 2.37 2.58 4.45 6.12 5.15z"/></g><g><path fill="#474b58" d="M169.78 179.844a109.734 109.734 0 0 0-12.32-7.05 105.174 105.174 0 0 0-12.28-5.26c-2.15-.75-4.33-1.42-6.55-2a30.6 30.6 0 0 0-6.46-1.09 9.49 9.49 0 0 0-8 4 9.37 9.37 0 0 0-1.36 7.93 8.58 8.58 0 0 0 6.55 5.78c2.968.6 5.976.995 9 1.18a173.75 173.75 0 0 0 26.3-.33c1.44-.107 2.88-.227 4.32-.36a1.58 1.58 0 0 0 1.54-1.54 1.55 1.55 0 0 0-1.54-1.54c-8.97.896-17.99 1.196-27 .9-1.65-.07-3.3-.18-4.94-.33l-2.19-.23-1-.12h-.26l-.51-.07a21.255 21.255 0 0 1-4-.81 3.294 3.294 0 0 1-.7-.31l-.45-.26-.37-.24-.22-.19-.35-.33-.27-.3-.17-.2c.09.11.08.11 0 0a7.318 7.318 0 0 1-.43-.72c0-.09-.2-.44-.09-.16-.06-.14-.11-.28-.16-.42a6.873 6.873 0 0 1-.21-.8c0-.05-.08-.49-.05-.3s0-.3 0-.37a7.622 7.622 0 0 1 0-.84v-.39-.23c.052-.277.118-.55.2-.82 0-.15.09-.29.15-.44l.07-.18c.08-.22-.1.22 0 0 .128-.281.272-.555.43-.82l.21-.34c.06-.09.3-.42.23-.33-.07.09.14-.16.18-.21l.32-.34.29-.28c.05 0 .44-.37.21-.19.238-.183.489-.35.75-.5l.43-.23.19-.09c.23-.11-.33.12.09 0 .297-.115.6-.212.91-.29l.44-.1h.23c.48-.08-.15 0 .13 0a17.78 17.78 0 0 1 5.31.62 63.93 63.93 0 0 1 6.23 1.7 92.828 92.828 0 0 1 11.71 4.76 151.03 151.03 0 0 1 13.68 7.6l.21.14c1.67 1.1 3.21-1.56 1.57-2.66z"/></g></g></g><g><g><g><text dominant-baseline="text-before-edge" style="text-transform:uppercase;font-kerning:normal" font-family="'Poppins','Poppins-Regular'" font-size="6" transform="translate(122 430)"><tspan style="text-transform:uppercase;font-kerning:normal">Deliveryman</tspan></text></g></g><g><g><text dominant-baseline="text-before-edge" style="text-transform:uppercase;font-kerning:normal" font-family="'Poppins','Poppins-Bold'" font-size="9" transform="translate(133 420)"><tspan style="text-transform:uppercase;font-kerning:normal">Ben</tspan></text></g></g><g><g><text dominant-baseline="text-before-edge" style="font-kerning:normal" fill="#366eff" font-family="'Poppins','Poppins-Bold'" font-size="6" transform="translate(119 408)"><tspan style="font-kerning:normal">Ocean Burgers</tspan></text></g></g></g></g></g></svg>