<svg xmlns="http://www.w3.org/2000/svg" width="224" height="386" viewBox="0 0 224 386"><g><g><g/><g><g><g><path fill="#fff" d="M22.84 329a78.711 78.711 0 0 0-8.36 8.74c-.63.76.46 1.85 1.09 1.09a78.711 78.711 0 0 1 8.36-8.83c.74-.66-.35-1.74-1.09-1.09z"/></g><g><path fill="#94c8ff" d="M77.47 284.46l-45.13 24.39A57.92 57.92 0 0 0 2 359.8v24.78h220.6V359.8a57.918 57.918 0 0 0-30.38-51l-45.13-24.39"/></g><g><path fill="#f9d4bb" d="M131.321 234.19v25.23a18.45 18.45 0 0 0 3.64 11l10.2 13.72a6.92 6.92 0 0 1-1 9.35l-32.77 19.15a.85.85 0 0 1-.55.21.85.85 0 0 1-.55-.21l-32.81-19.14a6.92 6.92 0 0 1-1-9.35l10.2-13.72a18.45 18.45 0 0 0 3.64-11v-25.24"/></g><g><path fill="#e2b89c" d="M132.62 261.8v-10.27h-41v8.74c10.29 7.46 22.91 9.14 41 1.53z"/></g><g><path fill="#474b58" d="M130.834 234.19v19.54a65.957 65.957 0 0 0 .15 8 20.12 20.12 0 0 0 3.72 9.49l1.88 2.53 7.08 9.53c.79.913 1.461 1.92 2 3a5.51 5.51 0 0 1 .07 3.8 5.168 5.168 0 0 1-.86 1.56c-.14.17-.3.32-.45.49-.15.17-.14.15 0 .06-1.62 1.08-3.42 2-5.11 2.92l-10.42 5.89-16.94 9.68c-.13.08-.54.23-.11.08h.82l-.39-.06 1.13 1.48V312a1.558 1.558 0 0 0-1.95-1.48l-.39.06h.82c.45.16 0 0-.14-.09l-.9-.51-3.2-1.81-10.14-5.72-17.68-10c-.16-.09-.33-.17-.48-.27.34.24 0-.07-.1-.14a5.37 5.37 0 0 1-.37-.41 5.29 5.29 0 0 1-.92-1.76 5.78 5.78 0 0 1 1.18-5.29l6.41-8.63c2.16-2.91 4.57-5.73 5.94-9.11 1.37-3.38 1.43-7 1.43-10.71v-21.94a1.54 1.54 0 1 0-3.08 0V254c0 2.81.25 5.84-.29 8.6a18 18 0 0 1-3.29 7.27l-2.44 3.28-7 9.37a10 10 0 0 0-2.15 4.83c-.32 2.65.78 6 3.12 7.51 1.68 1.08 3.5 2 5.24 3l10.58 6c5.58 3.15 11.11 6.44 16.76 9.47a2.81 2.81 0 0 0 1.9.24l-1.94-1.57v.21a1.55 1.55 0 0 0 1.13 1.48 2.82 2.82 0 0 0 1.92-.25l.79-.45 3.07-1.76 10.08-5.76 18.09-10.34c4-2.31 4.73-8.18 2.11-11.8-1.89-2.61-3.84-5.17-5.77-7.76l-3.38-4.54a30.805 30.805 0 0 1-2.42-3.56 17.072 17.072 0 0 1-2-8.16v-25.12a1.54 1.54 0 1 0-3.08 0z"/></g><g><path fill="#86b7e2" d="M54.2 356.27l-8.81 27.15-1.05-7.36.63-9.88z"/></g><g><path fill="#474b58" d="M45.5 384.575v-29.03a1.155 1.155 0 1 0-2.31 0v29.03a1.155 1.155 0 0 0 2.31 0z"/></g><g><path fill="#474b58" d="M45.757 368.576l8.64-10.34 1.24-1.49c.95-1.13-.68-2.77-1.63-1.63l-8.64 10.34-1.24 1.54c-.95 1.13.68 2.77 1.63 1.63z"/></g><g><path fill="#86b7e2" d="M177.51 356.06l8.81 27.15 1.05-7.36-.63-9.88z"/></g><g><path fill="#474b58" d="M188.52 384.365v-29.03a1.155 1.155 0 0 0-2.31 0v29.03a1.155 1.155 0 0 0 2.31 0z"/></g><g><path fill="#474b58" d="M187.593 366.736l-8.64-10.34-1.24-1.49c-1-1.14-2.58.5-1.63 1.63l8.64 10.34 1.24 1.49c1 1.14 2.58-.5 1.63-1.63z"/></g><g><path fill="#fff" d="M61.883 298.493l-9.77 5.41c-4.13 2.28-8.29 4.53-12.35 6.93a111.258 111.258 0 0 0-13.47 9.17c-.77.62.32 1.71 1.09 1.09a133.16 133.16 0 0 1 19.62-12.61l11.77-6.48 3.89-2.15c.87-.48.09-1.81-.78-1.33z"/></g><g><path fill="#fff" d="M69.62 294.213l-4.68 2.59c-.87.48-.09 1.81.78 1.33l4.68-2.59c.87-.48.09-1.81-.78-1.33z"/></g><g><path fill="#474b58" d="M76.27 282.918l-16 8.62-24.41 13.22-4.72 2.55a59.46 59.46 0 0 0-17.47 14.36A60.22 60.22 0 0 0 0 359.948V384.368a1.558 1.558 0 0 0 1.54 1.54h211.68c2.86 0 5.72.05 8.58 0h.38a1.556 1.556 0 0 0 1.083-.457c.288-.287.452-.676.457-1.083v-22.84a68.122 68.122 0 0 0-1.48-15.13 59.232 59.232 0 0 0-8.88-20.34 59.995 59.995 0 0 0-16-15.87c-2.44-1.64-5-3-7.58-4.4l-23.14-12.5c-6.29-3.4-12.53-6.89-18.87-10.2l-.31-.17c-1.74-.94-3.3 1.71-1.55 2.66l15.57 8.42 24.44 13.21 5.08 2.79a56.344 56.344 0 0 1 29.64 50.12v24.3l1.54-1.54H10.5c-2.85 0-5.74-.15-8.58 0h-.38l1.54 1.54v-22.63a65.55 65.55 0 0 1 1.34-14.41 56.92 56.92 0 0 1 8.79-20A56.122 56.122 0 0 1 29 312.138c2.2-1.4 4.51-2.61 6.8-3.85l23.2-12.55c6.16-3.33 12.42-6.51 18.49-10l.31-.17c1.74-.94.19-3.6-1.55-2.66z"/></g><g><path fill="#fff" d="M167.69 338.56h-50.22a2.14 2.14 0 0 0-2.14 2.14v29.34a2.14 2.14 0 0 0 2.14 2.14h50.22a2.14 2.14 0 0 0 2.14-2.14V340.7a2.14 2.14 0 0 0-2.14-2.14z"/></g><g opacity=".15"><g opacity=".02"><path fill="#94c8ff" d="M170 369.94h-50.78a1.85 1.85 0 0 1-1.85-1.85v-29.92a1.83 1.83 0 0 1 0-.41 1.85 1.85 0 0 0-1.43 1.8v29.92a1.85 1.85 0 0 0 1.85 1.85h50.81a1.85 1.85 0 0 0 1.8-1.43 1.829 1.829 0 0 1-.4.04z"/></g></g><g><path fill="#ffe66a" d="M115.43 344.2l.02-5.72 11.39-.92 41.82 1.1 1.56 10.59-55.53.62z"/></g><g><path fill="#5a6281" d="M114.42 350.1l.78-5.92v-5.91l11.61-.94 42 1.11 1.63 11h-.26zm1.26-11.4v5.53l-.71 5.4 55-.61-1.5-10.14-41.61-1.1z"/></g><g><path fill="#474b58" d="M167.881 370.997h-50.46c-.52 0-1-.09-1-.74v-23.21c0-2.16-.14-4.38 0-6.54 0-.59.41-.79.93-.8h49.45a9.28 9.28 0 0 1 1.07 0c.81.1.7.81.7 1.41v28.38c0 .58.14 1.47-.69 1.52-1.48.08-1.49 2.39 0 2.31a3.139 3.139 0 0 0 3-3.4v-28.7a3.76 3.76 0 0 0-.95-3c-1.2-1.15-3.35-.81-4.88-.81h-32.55c-5.07 0-10.14-.05-15.2 0a3.1 3.1 0 0 0-3.23 3v23.22c0 2.21-.07 4.43 0 6.64a3.08 3.08 0 0 0 3.07 3.07h50.74a1.175 1.175 0 0 0 0-2.35z"/></g><g><path fill="#474b58" d="M115.215 350.444h47.78c2.21 0 4.44.1 6.65 0h.1a1.155 1.155 0 0 0 0-2.31h-47.75c-2.21 0-4.44-.1-6.65 0h-.1a1.155 1.155 0 1 0 0 2.31z"/></g><g><path fill="#fbcdac" d="M34.48 165.72c7.318 0 13.25-8.57 13.25-19.14s-5.932-19.14-13.25-19.14-13.25 8.57-13.25 19.14 5.932 19.14 13.25 19.14z"/></g><g><path fill="#e2b89c" d="M24.313 153.5c0-10.57 5.93-19.14 13.25-19.14 3.91 0 7.42 2.44 9.84 6.32-1.72-7.69-6.72-13.25-12.61-13.25-7.32 0-13.25 8.57-13.25 19.14a24.39 24.39 0 0 0 3.41 12.82 27 27 0 0 1-.64-5.89z"/></g><g><path fill="#474b58" d="M20.08 146.578c0 7 2.66 15.56 9.35 19a10.77 10.77 0 0 0 9 .52 15.17 15.17 0 0 0 7.22-6.62c4-6.9 4.31-16.06 1.22-23.36-2.51-5.93-8.3-11.4-15.21-9.46-7.11 2-10.59 10-11.37 16.7-.12 1.063-.18 2.131-.18 3.2a1.155 1.155 0 0 0 2.31 0c0-6.19 2.2-13.8 8.06-16.95a8.48 8.48 0 0 1 7.3-.38 13.14 13.14 0 0 1 6.09 5.94 24.717 24.717 0 0 1 1 20.75c-2.05 5-6.84 10-12.74 8.27-3-.91-5.32-3.39-6.84-6.06a23.58 23.58 0 0 1-2.86-11.57 1.175 1.175 0 1 0-2.35.02z"/></g><g><path fill="#474b58" d="M25.34 142.194l4.1 9.53c.39.91 1.72.12 1.33-.78l-4.1-9.53c-.39-.91-1.72-.12-1.33.78z"/></g><g><path fill="#474b58" d="M29.44 141.41l-4.1 9.53c-.39.9.94 1.68 1.33.78l4.1-9.53c.39-.9-.94-1.68-1.33-.78z"/></g><g><path fill="#fbcdac" d="M193.55 163.19c7.318 0 13.25-8.57 13.25-19.14s-5.932-19.14-13.25-19.14-13.25 8.57-13.25 19.14 5.932 19.14 13.25 19.14z"/></g><g><path fill="#e2b89c" d="M203.85 151.12c0-10.57-5.93-19.14-13.25-19.14-3.91 0-7.42 2.44-9.84 6.32 1.72-7.69 6.72-13.25 12.61-13.25 7.32 0 13.25 8.57 13.25 19.14a24.39 24.39 0 0 1-3.41 12.81c.428-1.93.643-3.902.64-5.88z"/></g><g><path fill="#474b58" d="M179.14 143.998c0 7 2.66 15.56 9.35 19a10.77 10.77 0 0 0 9 .52 15.17 15.17 0 0 0 7.22-6.62c4-6.9 4.31-16.06 1.22-23.36-2.51-5.93-8.3-11.4-15.21-9.46-7.11 2-10.59 10-11.37 16.7-.12 1.063-.18 2.131-.18 3.2a1.155 1.155 0 0 0 2.31 0c0-6.19 2.2-13.8 8.06-16.95a8.48 8.48 0 0 1 7.3-.38 13.14 13.14 0 0 1 6.09 5.94 24.72 24.72 0 0 1 1 20.75c-2.05 5-6.84 10-12.74 8.27-3-.91-5.32-3.39-6.84-6.06a23.58 23.58 0 0 1-2.9-11.55 1.155 1.155 0 0 0-2.31 0z"/></g><g><path fill="#32a7fa" d="M48.32 64.554v-31.24c0-6.3 3.29-12 8.36-14.47l18.4-9a77.77 77.77 0 0 1 68.93 0l18.4 9c5.07 2.47 8.36 8.17 8.36 14.47v31.24"/></g><g><path fill="#4bb7f9" d="M163 19.924l-18.4-9a77.77 77.77 0 0 0-68.93 0l-18.4 9c-5.07 2.47-8.36 8.17-8.36 14.47v4.77c0-6.3 3.29-12 8.36-14.47l18.4-9a77.77 77.77 0 0 1 68.93 0l18.4 9c5.07 2.47 8.36 8.17 8.36 14.47v-4.77c.01-6.3-3.28-12-8.36-14.47z"/></g><g><path fill="#474b58" d="M50.15 64.662v-30.53a16.12 16.12 0 0 1 2.54-9.26 12.38 12.38 0 0 1 4.87-4.27l1.57-.77 16-7.82a78.47 78.47 0 0 1 29.94-8.01 76.42 76.42 0 0 1 35.75 6.67c5.17 2.34 10.241 5 15.341 7.44 1.73.84 3.46 1.67 5.18 2.53a13.887 13.887 0 0 1 7.35 11.36c.13 1.61.06 3.26.06 4.87v27.79a1.924 1.924 0 1 0 3.85 0v-30.74a19.572 19.572 0 0 0-3.31-11.35 16.292 16.292 0 0 0-6-5.28l-1.49-.73-16.2-7.9A83.14 83.14 0 0 0 114 .132a80.47 80.47 0 0 0-37.32 7c-5.41 2.35-10.68 5.08-15.94 7.66-1.77.86-3.56 1.7-5.31 2.59a17.47 17.47 0 0 0-8.88 13 42.201 42.201 0 0 0-.24 6v28.28a1.925 1.925 0 0 0 3.85 0z"/></g><g><path fill="#f9d4bb" d="M112.46 41.66h-.01c-41.841 0-75.76 33.919-75.76 75.76v59.39c0 41.841 33.919 75.76 75.76 75.76h.01c41.841 0 75.76-33.919 75.76-75.76v-59.39c0-41.841-33.919-75.76-75.76-75.76z"/></g><g><path fill="#e2b89c" d="M114.69 236a76 76 0 0 1-75.76-75.76v16.56a76 76 0 0 0 75.76 75.76 75.999 75.999 0 0 0 75.76-75.76v-16.61A75.998 75.998 0 0 1 114.69 236z"/></g><g><path fill="#e2b89c" d="M187.57 109.87A76.056 76.056 0 0 0 113.3 49a76 76 0 0 0-75.69 72.39c27.77-24.04 87.61-36.2 149.96-11.52z"/></g><g opacity=".04"><path fill="#020201" d="M129.13 106.55l12.81-17.58-10.81-.47z"/></g><g opacity=".04"><path fill="#020201" d="M107.27 103.18l21.07-11.7-12-4.15z"/></g><g opacity=".04"><path fill="#020201" d="M92.9 103.72l8.46-22.56-11.82 4.61z"/></g><g opacity=".04"><path fill="#020201" d="M78.24 105.97l16.4-17.65-12.69-.23z"/></g><g><path fill="#474b58" d="M112.605 250.639a73.355 73.355 0 0 1-33.15-7.91 74.25 74.25 0 0 1-39.46-52.2 97.515 97.515 0 0 1-1.23-18.53v-45.5c0-4.79-.15-9.62.19-14.4a73.35 73.35 0 0 1 10.21-32.35 74.68 74.68 0 0 1 22.93-24 73.49 73.49 0 0 1 31.84-11.69 74.17 74.17 0 0 1 79.14 51.34 78.912 78.912 0 0 1 3.37 23.86v57.44a73.501 73.501 0 0 1-6.57 30.51 75.359 75.359 0 0 1-20.35 26.54 73.396 73.396 0 0 1-46.92 16.93c-2.47 0-2.48 3.85 0 3.85a78.001 78.001 0 0 0 76.16-62.38 100.718 100.718 0 0 0 1.53-19.94v-46.21c0-5.12.16-10.29-.3-15.39a77.647 77.647 0 0 0-11.21-33.79 79.05 79.05 0 0 0-24.32-24.79 77.657 77.657 0 0 0-33.35-11.85 76.87 76.87 0 0 0-35.44 4.37 78.29 78.29 0 0 0-47 49.12 81.77 81.77 0 0 0-3.73 25.36V176.72a77.71 77.71 0 0 0 77.69 77.73 1.921 1.921 0 0 0 1.176-3.185 1.923 1.923 0 0 0-1.206-.625z"/></g><g><path fill="#d38262" d="M67.79 89.55s9.2 11.63 10 15.7c0 0 8-17.06 6.31-28"/></g><g><path fill="#474b58" d="M66.696 90.632l.24.31.26.34.23.3c.74.967 1.47 1.94 2.19 2.92a81.39 81.39 0 0 1 5.24 7.88c.36.64.7 1.28 1 1.95l.08.17c.09.21-.13-.34 0 0l.14.37c.09.259.164.523.22.79a1.55 1.55 0 0 0 2.81.37 73.268 73.268 0 0 0 6.42-21c.38-2.713.38-5.466 0-8.18a1.55 1.55 0 0 0-1.89-1.07 1.58 1.58 0 0 0-1.07 1.89c.251 2.212.228 4.445-.07 6.65a50.7 50.7 0 0 1-1.38 6.91 87.998 87.998 0 0 1-3.87 11.36c0 .11-.27.65-.09.23l-.18.43-.3.69-.26.57 2.81.37a12.895 12.895 0 0 0-1.39-3.37c-.74-1.37-1.57-2.69-2.43-4-1.61-2.51-3.41-4.93-5.17-7.29-.45-.59-.9-1.18-1.36-1.76a1.55 1.55 0 0 0-2.18 0 1.58 1.58 0 0 0 0 2.18z"/></g><g><path fill="#d38262" d="M78 89.79S90.09 98.35 92 102c0 0 2.84-18.62-1.84-28.67"/></g><g><path fill="#474b58" d="M77.208 91.125a90.766 90.766 0 0 1 11.13 8.94c.52.51 1 1 1.51 1.59l.31.38c.17.21-.13-.2.07.09.2.29.31.45.44.7.58 1.09 2.61 1 2.81-.37a74.003 74.003 0 0 0 .25-22 29.256 29.256 0 0 0-2.25-7.88 1.55 1.55 0 0 0-2.1-.55 1.57 1.57 0 0 0-.55 2.1c1.85 4 2.32 8.93 2.45 13.41a88.014 88.014 0 0 1-.51 12c-.06.59-.14 1.18-.21 1.76 0 .37.06-.43 0-.05v.36l2.81-.37a12.873 12.873 0 0 0-2.27-2.84c-1.09-1.11-2.26-2.14-3.45-3.15-2.35-2-4.79-3.85-7.26-5.67l-1.57-1.14a1.55 1.55 0 0 0-2.1.55 1.57 1.57 0 0 0 .55 2.1z"/></g><g><path fill="#d38262" d="M105.14 82.62s3.28 14.46 2.23 18.48c0 0 14.56-11.95 17.79-22.55"/></g><g><path fill="#474b58" d="M103.657 82.995a93.409 93.409 0 0 1 2.34 14.1c0 .73.08 1.46.06 2.19 0 .3 0 .59-.05.89-.05.3.06-.24 0 .1 0 .13-.05.27-.09.4a1.55 1.55 0 0 0 2.57 1.5c1.81-1.49 3.53-3.11 5.2-4.75a69.315 69.315 0 0 0 9.31-11.14 29.4 29.4 0 0 0 3.65-7.29c.59-1.9-2.38-2.71-3-.82-1.35 4.34-4.24 8.28-7.19 11.75a88.148 88.148 0 0 1-8.41 8.57c-.59.53-1.19 1.05-1.8 1.56l2.57 1.5c.68-2.72.11-5.81-.26-8.54-.41-3-1-5.92-1.56-8.86-.13-.63-.27-1.27-.41-1.9-.44-1.93-3.4-1.11-3 .82z"/></g><g><path fill="#d38262" d="M115.43 86.4s12.19 13.68 13.49 18.66c0 0 8.4-21.68 5.5-35.1"/></g><g><path fill="#474b58" d="M114.335 87.478c4.022 4.377 7.7 9.057 11 14 .49.75 1 1.52 1.37 2.32l.28.55c0 .1.28.65.12.25.122.297.226.6.31.91a1.55 1.55 0 0 0 3 0c1-2.7 1.91-5.49 2.71-8.28a85.701 85.701 0 0 0 3.34-17.69c.281-3.343.096-6.708-.55-10-.41-1.94-3.38-1.12-3 .82 1.17 5.51.43 11.6-.65 17.18a109.59 109.59 0 0 1-3.85 14.33c-.32.93-.64 1.86-1 2.78h3a15.782 15.782 0 0 0-2-4.06c-1-1.64-2.13-3.2-3.29-4.74-2.25-3-4.63-5.9-7.07-8.75-.52-.6-1-1.21-1.57-1.8-1.32-1.48-3.49.7-2.18 2.18z"/></g><g><path fill="#298fce" d="M202.746 78.884a79.55 79.55 0 0 1-4.25 11.7c-.89 2-8.54 19.47-7.61 20.22-18.4-14.87-46.73-24.4-78.49-24.4-31.76 0-60 9.51-78.45 24.36-6.65-17.76-23.03-44.85-3.57-60.09 5.57-4.35 12.62-6.18 19.55-7.67 39.36-8.55 80.47-9.69 120-1.8 6.49 1.3 13 2.86 18.88 5.93 5.88 3.07 11.08 7.81 13.54 14 2.3 5.78 1.93 11.87.4 17.75z"/></g><g><path fill="#2380af" d="M41.919 48.37a37.251 37.251 0 0 1 13.2-6.15c-1.48.3-2.957.61-4.43.93-6.9 1.5-14 3.33-19.54 7.69-19.46 15.24-3.09 42.3 3.55 60.09a88.377 88.377 0 0 1 9.19-6.47c-7.24-17.66-20.02-41.96-1.97-56.09z"/></g><g><path fill="#227ba8" d="M65.247 49.807c3.467-.6 6.947-1.114 10.44-1.54 1-.12 1-1.66 0-1.54-3.63.45-7.25 1-10.85 1.59-1 .17-.56 1.65.41 1.48z"/></g><g><path fill="#227ba8" d="M39.77 56.94a23.001 23.001 0 0 1 2.55-1.15A80.238 80.238 0 0 1 50.93 53c2.59-.71 5.2-1.33 7.82-1.89 1-.21.56-1.69-.41-1.48-6.26 1.34-12.67 2.9-18.5 5.62-.29.13-.57.27-.85.42-.87.48-.09 1.81.78 1.33z"/></g><g><path fill="#227ba8" d="M117.3 45.22c3.59.1 7.17.3 10.74.57 1 .08 1-1.46 0-1.54-3.58-.27-7.16-.47-10.74-.57a.77.77 0 0 0 0 1.54z"/></g><g><path fill="#227ba8" d="M90.915 47.19a24.25 24.25 0 0 1 2.83-.65 77.74 77.74 0 0 1 8.83-1.06c2.7-.19 5.4-.28 8.11-.31a.77.77 0 1 0 0-1.54c-6.39.07-13 .33-19.24 1.83-.31.08-.63.15-.93.25-.94.3-.54 1.78.41 1.48z"/></g><g><path fill="#2c98db" d="M143.637 18.902c3.25 1.36 6.46 2.81 9.63 4.32.89.42 1.67-.9.78-1.33a231.016 231.016 0 0 0-10-4.48c-.91-.38-1.31 1.11-.41 1.48z"/></g><g><path fill="#2c98db" d="M118.33 11.222l.72.07h.23l.53.08 1.27.22a80 80 0 0 1 8.75 2.22c2.58.79 5.13 1.68 7.66 2.62.93.35 1.33-1.14.41-1.48-6-2.24-12.24-4.36-18.61-5.2-.32 0-.64-.08-1-.1-1-.06-1 1.48 0 1.54z"/></g><g><path fill="#227ba8" d="M174.56 52.375c3.473.893 6.923 1.873 10.35 2.94.95.29 1.35-1.19.41-1.48a231.585 231.585 0 0 0-10.35-2.94.77.77 0 0 0-.41 1.48z"/></g><g><path fill="#227ba8" d="M148.41 48.444a24.152 24.152 0 0 1 2.87 0 77.67 77.67 0 0 1 8.89.92c2.67.41 5.32.92 8 1.49 1 .21 1.38-1.27.41-1.48-6.25-1.35-12.75-2.57-19.17-2.49h-1c-1 .08-1 1.62 0 1.54z"/></g><g><path fill="#227ba8" d="M65.557 55.807a211.71 211.71 0 0 1 10.44-1.54c1-.12 1-1.66 0-1.54-3.63.45-7.25 1-10.85 1.59-1 .17-.56 1.65.41 1.48z"/></g><g><path fill="#227ba8" d="M40.08 62.94a23 23 0 0 1 2.55-1.15 80.24 80.24 0 0 1 8.61-2.84c2.59-.71 5.2-1.33 7.82-1.89 1-.21.56-1.69-.41-1.48-6.26 1.34-12.67 2.9-18.5 5.62-.29.13-.57.27-.85.42-.87.48-.09 1.81.78 1.33z"/></g><g><path fill="#227ba8" d="M117.6 51.22c3.59.1 7.17.3 10.74.57 1 .08 1-1.46 0-1.54-3.58-.27-7.16-.47-10.74-.57a.77.77 0 1 0 0 1.54z"/></g><g><path fill="#227ba8" d="M91.225 53.19c.93-.273 1.875-.49 2.83-.65a77.74 77.74 0 0 1 8.83-1.06c2.7-.19 5.4-.28 8.11-.31a.77.77 0 1 0 0-1.54c-6.39.07-13 .33-19.24 1.83-.31.08-.63.15-.93.25-.94.3-.54 1.78.41 1.48z"/></g><g><path fill="#227ba8" d="M174.87 58.375c3.473.893 6.923 1.873 10.35 2.94.95.29 1.35-1.19.41-1.48a231.585 231.585 0 0 0-10.35-2.94.77.77 0 0 0-.41 1.48z"/></g><g><path fill="#227ba8" d="M148.71 54.444a24.152 24.152 0 0 1 2.87 0 77.67 77.67 0 0 1 8.89.92c2.67.41 5.32.92 8 1.49 1 .21 1.38-1.27.41-1.48-6.25-1.35-12.75-2.57-19.17-2.49h-1c-1 .08-1 1.62 0 1.54z"/></g><g><path fill="#227ba8" d="M64.937 62.577a211.71 211.71 0 0 1 10.44-1.54c1-.12 1-1.66 0-1.54-3.63.45-7.25 1-10.85 1.59-1 .17-.56 1.65.41 1.48z"/></g><g><path fill="#227ba8" d="M39.46 69.71c.822-.437 1.67-.825 2.54-1.16a80.24 80.24 0 0 1 8.61-2.84c2.59-.71 5.2-1.33 7.82-1.89 1-.21.56-1.69-.41-1.48-6.26 1.34-12.67 2.9-18.5 5.62-.29.13-.57.27-.85.42-.87.48-.09 1.81.78 1.33z"/></g><g><path fill="#227ba8" d="M117 58c3.59.1 7.17.3 10.74.57 1 .08 1-1.46 0-1.54-3.58-.27-7.16-.47-10.74-.57a.77.77 0 1 0 0 1.54z"/></g><g><path fill="#227ba8" d="M90.605 60a24.25 24.25 0 0 1 2.83-.65 77.74 77.74 0 0 1 8.83-1.06c2.7-.19 5.4-.28 8.11-.31a.77.77 0 0 0 0-1.54c-6.39.07-13 .33-19.24 1.83-.31.08-.63.15-.93.25-.94.3-.54 1.78.41 1.48z"/></g><g><path fill="#227ba8" d="M174.25 65.145c3.473.893 6.923 1.873 10.35 2.94.95.29 1.35-1.19.41-1.48a231.55 231.55 0 0 0-10.35-2.94.77.77 0 0 0-.41 1.48z"/></g><g><path fill="#227ba8" d="M148.1 61.214a24.152 24.152 0 0 1 2.87 0 77.67 77.67 0 0 1 8.89.92c2.67.41 5.32.92 8 1.49 1 .21 1.38-1.27.41-1.48-6.25-1.35-12.75-2.57-19.17-2.49h-1c-1 .08-1 1.62 0 1.54z"/></g><g><path fill="#474b58" d="M200.903 78.37c-1.41 5.38-3.73 10.41-5.91 15.51-1.85 4.34-3.74 8.69-5.26 13.16-.49 1.45-1.53 3.83-.2 5.12l2.72-2.72a102.91 102.91 0 0 0-26.32-15.12 136.67 136.67 0 0 0-32.93-8.47 155.787 155.787 0 0 0-36.5-.56 141.17 141.17 0 0 0-33.74 7.54 106 106 0 0 0-27.18 14.26 137.963 137.963 0 0 0-3 2.31l3.21.85c-2.34-6.25-5.13-12.15-7.52-18.32-2.39-6.17-4.68-13-5.11-19.61a32.718 32.718 0 0 1 0-4.74 21.8 21.8 0 0 1 .75-4.25 20.23 20.23 0 0 1 4.29-8c5.52-6.27 13.63-8.6 21.51-10.34a305.65 305.65 0 0 1 57.82-7.1 279.672 279.672 0 0 1 58.27 4.45c8.77 1.63 17.95 3.41 25.46 8.5a25.986 25.986 0 0 1 8 8.32 22.189 22.189 0 0 1 2.74 12.53 35.077 35.077 0 0 1-1.12 6.68c-.61 2.4 3.1 3.42 3.71 1a33.378 33.378 0 0 0 .76-14.8 25.286 25.286 0 0 0-6.07-11.84c-6.1-6.83-14.93-10.23-23.63-12.29a241.458 241.458 0 0 0-29.89-4.89 285.426 285.426 0 0 0-30.13-1.62 309.58 309.58 0 0 0-60.23 5.96c-8.8 1.74-18.4 3.38-25.76 8.94a26.32 26.32 0 0 0-7.35 8.33 26 26 0 0 0-2.89 9.68c-.74 6.92 1 14 3.13 20.52 2.23 6.69 5.23 13.27 7.85 19.63.59 1.42 1.16 2.85 1.69 4.28a2 2 0 0 0 3.21.85 97.68 97.68 0 0 1 25.08-14.3 134.132 134.132 0 0 1 32-8.2 154.907 154.907 0 0 1 35.92-.49 137.196 137.196 0 0 1 32.52 7.32 102.92 102.92 0 0 1 26.2 13.79c.88.65 1.63 1.23 2.48 1.92a2.001 2.001 0 0 0 2.72 0 2 2 0 0 0 0-2.72 1.542 1.542 0 0 1 .49 1.14 1.49 1.49 0 0 1 0-.25c0-.25-.13.58 0 .19 0-.16.07-.32.11-.48.18-.71.41-1.41.65-2.11.7-2 1.5-4.06 2.32-6.07.447-1.1.9-2.2 1.36-3.3l.31-.74.11-.25.1-.24.64-1.5c.58-1.333 1.164-2.667 1.75-4a85.304 85.304 0 0 0 4.55-12.38c.64-2.45-3.06-3.45-3.69-1.08z"/></g><g><path fill="#474b58" d="M195.48 142.204l4.1 9.53c.39.91 1.72.12 1.33-.78l-4.1-9.53c-.39-.91-1.72-.12-1.33.78z"/></g><g><path fill="#474b58" d="M199.59 141.42l-4.1 9.53c-.39.9.94 1.68 1.33.78l4.1-9.53c.39-.9-.94-1.68-1.33-.78z"/></g><g><path fill="#474b58" d="M66.656 132.545c.45-.29.914-.557 1.39-.8.527-.273 1.06-.53 1.6-.77.17-.08.47-.2.12-.06l.56-.23c.4-.16.803-.31 1.21-.45a23.42 23.42 0 0 1 12-1.15 22.779 22.779 0 0 1 8.45 3.44 1.923 1.923 0 0 0 1.94-3.32 25.69 25.69 0 0 0-16-4.2 30.74 30.74 0 0 0-11.25 3.13c-.658.314-1.296.668-1.91 1.06a2 2 0 0 0-.69 2.63 1.94 1.94 0 0 0 2.63.69z"/></g><g><path fill="#474b58" d="M129.266 134.085c.45-.29.914-.557 1.39-.8.527-.273 1.06-.53 1.6-.77.17-.08.47-.2.12-.06l.56-.23c.4-.16.803-.31 1.21-.45a23.42 23.42 0 0 1 12-1.15 22.779 22.779 0 0 1 8.45 3.44 1.923 1.923 0 0 0 1.94-3.32 25.69 25.69 0 0 0-16-4.2 30.74 30.74 0 0 0-11.25 3.13c-.658.314-1.296.668-1.91 1.06a2 2 0 0 0-.69 2.63 1.94 1.94 0 0 0 2.63.69z"/></g><g><path fill="#fff" d="M75.688 20.754a116.44 116.44 0 0 1 25.69-6.59 1.16 1.16 0 0 0 .81-1.42 1.19 1.19 0 0 0-1.42-.81 116.44 116.44 0 0 0-25.69 6.59c-1.37.52-.78 2.76.61 2.23z"/></g><g><path fill="#fff" d="M55.656 30.19c5-2.5 9.9-5.12 15-7.37a1.16 1.16 0 0 0 .41-1.58 1.18 1.18 0 0 0-1.58-.41c-5.09 2.25-10 4.87-15 7.37-1.33.67-.16 2.66 1.16 2z"/></g><g><path fill="#fff" d="M157.755 108.695c6.54 1.84 13.07 4.66 18.25 9.19a26.399 26.399 0 0 1 4.5 5c1.11 1.63 3.77.09 2.66-1.55-4.65-6.85-12.08-11.18-19.71-14a66.13 66.13 0 0 0-4.88-1.59 1.555 1.555 0 1 0-.82 3z"/></g><g><path fill="#fff" d="M143.35 105.575a27.66 27.66 0 0 1 9.49 1.5 1.55 1.55 0 0 0 1.89-1.07 1.57 1.57 0 0 0-1.07-1.89 30.22 30.22 0 0 0-10.31-1.61 1.54 1.54 0 1 0 0 3.08z"/></g><g><path fill="#474b58" d="M79.62 149.03c2.916 0 5.28-2.753 5.28-6.15 0-3.397-2.364-6.15-5.28-6.15-2.916 0-5.28 2.753-5.28 6.15 0 3.397 2.364 6.15 5.28 6.15z"/></g><g><path fill="#474b58" d="M143.92 150.26c2.916 0 5.28-2.753 5.28-6.15 0-3.397-2.364-6.15-5.28-6.15-2.916 0-5.28 2.753-5.28 6.15 0 3.397 2.364 6.15 5.28 6.15z"/></g><g><path fill="#474b58" d="M111.443 240.077l.19-.17c.26-.24-.16.1 0 0l.34-.24c.298-.196.609-.373.93-.53l.34-.16c-.14.06-.13.05 0 0s.5-.18.76-.25a7.43 7.43 0 0 1 3.2-.22 12 12 0 0 1 4.59 1.79c1.69 1 3.24-1.63 1.55-2.66a12.94 12.94 0 0 0-10-1.92 9.36 9.36 0 0 0-4.05 2.16c-1.42 1.38.75 3.56 2.18 2.18z"/></g><g><path fill="#474b58" d="M107.422 217.66a9.43 9.43 0 0 0 4.05 2.1 13.28 13.28 0 0 0 10-1.86 1.54 1.54 0 0 0-1.55-2.66 10.28 10.28 0 0 1-7.79 1.51c-.24-.06-.47-.14-.7-.22l-.26-.1c.32.12-.07 0-.11-.05a9.76 9.76 0 0 1-.91-.49l-.36-.23c-.27-.18-.12-.09 0 0l-.21-.18c-1.44-1.36-3.62.82-2.18 2.18z"/></g><g><path fill="#bf7f5c" d="M115.515 192.385a38.4 38.4 0 0 0-26.4 5.43 21.69 21.69 0 0 1-13.71 3.36c-3.71-.36-7.35-1.69-8.76-5.24 0 0-1.5 21.87 48.86 15.16h-.56c50.36 6.71 48.86-15.16 48.86-15.16-1.41 3.56-5 4.89-8.76 5.24a21.69 21.69 0 0 1-13.71-3.36 38.4 38.4 0 0 0-26.4-5.43"/></g><g><path fill="#c48160" d="M160.86 200.33c-5.3 5.1-17.3 9.85-44.4 6.28-27.1 3.57-39.1-1.18-44.4-6.28-1.85-.81-4.15-2.12-5-4.14 0 0-.72 21.78 49.36 15.19 50.08 6.59 47.82-15.19 47.82-15.19-.77 2.02-1.53 3.32-3.38 4.14z"/></g><g><path fill="#474b58" d="M115.584 191.47c-4.447.06-8.958-.614-13.34.14-4.156.716-8.035 2.596-11.93 4.21-3.733 1.547-7.812 5.384-12.43 4.5-3.68-.703-6.925-2.873-10.31-4.48-.242-.114-.259-.495-.484-.64a1.195 1.195 0 0 0-.784-.173c-.265.036-.53.178-.708.377-.654.733-.142 2.852-.024 3.187.626 1.786 1.15 3.719 2.39 5.15 5.524 6.38 12.37 8.711 20.89 9.5 7.598.703 15.262-.13 22.89-.36 1.198-.037 2.39-.228 3.57-.44.286-.052.596-.142.802-.348.458-.459.467-1.148.005-1.61-.263-.263-.972-.44-1.367-.342-.287.07-.609.13-.817.338a1.155 1.155 0 0 0 0 1.633c.208.209.522.323.817.339 8.065.43 16.148 1.493 24.21 1 8.583-.526 16.473-2.625 22.48-8.87 1.443-1.5 2.174-3.575 2.94-5.51.36-.91.364-1.932.39-2.91.014-.567-.466-1.05-1.003-1.124a1.195 1.195 0 0 0-.784.173c-.225.145-.25.51-.483.64-2.853 1.586-5.54 3.7-8.71 4.47-2.127.517-4.417-.166-6.52-.77-2.125-.608-3.887-2.174-6-2.82-7.248-2.212-14.563-4.278-22-5.73-1.583-.308-3.459-.378-4.81.5-.647.42.135 1.623.61 2.23.208.267.664-.127 1-.17.109-.013.22.008.33 0 .234-.015.466-.052.7-.07.57-.042 1.144-.19 1.71-.11 5.334.759 10.747 1.218 15.95 2.62 2.352.635 4.15 2.645 6.46 3.42 4.247 1.427 8.625 3.709 13.07 3.14 3.993-.51 7.246-3.637 10.4-6.14.598-.474-1.511-.393-2.27-.31-.186.021.009.374 0 .56-.011.221-.044.44-.06.66-.004.047.007.094 0 .14-.073.483-.235 1.012-.37 1.46-.057.186-.126.368-.19.55-.036.101-.08.198-.11.3-.008.026.013.057 0 .08-.496.88-1.007 1.751-1.52 2.62-.034.058-.079.108-.12.16-.099.125-.197.25-.3.37-.193.224-.38.453-.59.66-.477.47-.974.921-1.47 1.37-.134.121-.279.23-.42.34-.38.299-.936.664-1.28.87-.728.436-1.431.926-2.21 1.26-3.946 1.692-8.708 3.307-13.01 3.45-7.484.25-14.976-.158-22.46-.4-1.199-.038-2.508-.996-3.57-.44-.682.358-.182 1.562 0 2.31.044.182.516.182.56 0 .181-.748.769-2.269 0-2.31-7.917-.42-15.833 1.08-23.76 1.05-2.695-.01-5.35-.683-8-1.17-1.135-.208-2.234-.582-3.34-.91-.505-.149-.995-.341-1.49-.52-.124-.044-1.046-.397-1.2-.48a257.828 257.828 0 0 1-4.51-2.47c-.1-.055-.69-.54-.7-.55-.263-.223-.538-.434-.78-.68-.44-.445-.842-.924-1.26-1.39a6.523 6.523 0 0 1-.4-.48c-.16-.224-.326-.445-.47-.68-.476-.773-.73-1.198-1.05-1.95-.007-.015.005-.034 0-.05-.036-.108-.084-.211-.12-.32-.344-1.031-.37-1.057-.56-2.09-.009-.045 0-.093 0-.14v-.36c0-.273.266-.76 0-.82-.746-.167-2.821-.218-2.27.31 2.568 2.467 5.332 5.387 8.84 6 4.359.764 8.85-.922 13.1-2.16 2.295-.668 4.095-2.486 6.27-3.48 2.05-.936 4.155-1.825 6.36-2.29 3.38-.712 6.844-.98 10.29-1.22 1.233-.085 2.466.169 3.7.25.026.002.053 0 .08 0 .086 0 .173-.008.26 0 .137.015.273.046.41.07.123.023.318.185.37.07 1.118-2.463.545-2.19.51-2.19z"/></g><g><path fill="#a06950" d="M97.585 198.254a30.21 30.21 0 0 1 15.41-1.09c1 .2 1.38-1.28.41-1.48a31.8 31.8 0 0 0-16.25 1.09c-.94.3-.54 1.79.41 1.48z"/></g><g><path fill="#a06950" d="M90.686 201.392a27.24 27.24 0 0 1 4.4-2.22c.9-.37.51-1.86-.41-1.48a29.38 29.38 0 0 0-4.77 2.37c-.83.54-.06 1.87.78 1.33z"/></g><g><path fill="#a06950" d="M131.747 196.554a31.48 31.48 0 0 0-15-.72c-1 .2-.56 1.68.41 1.48a29.79 29.79 0 0 1 14.22.72.77.77 0 0 0 .41-1.48z"/></g><g><path fill="#a06950" d="M140.234 200.209a29.859 29.859 0 0 0-5.15-2.53c-.92-.37-1.32 1.12-.41 1.48a27.81 27.81 0 0 1 4.79 2.37c.83.54 1.61-.79.78-1.33z"/></g><g><path fill="#474b58" d="M110.86 129.931c-.59 2.64-1 5.31-1.46 8a142.229 142.229 0 0 0-1.77 18c-.17 6.1 0 12.53 2 18.37 1.62 4.85 4.86 9.41 10.24 10.25 1.518.23 3.062.23 4.58 0l1-.17c.35-.112.707-.196 1.07-.25.35 0 .49.16.61.49-.07-.2 0 0 0 .09v.74c0-.28.05-.27 0 0s-.05.24-.09.36c-.04.12-.25.6 0 .15-.11.24-.23.46-.37.68l-.14.2s.23-.27.06-.07-.23.27-.36.39l-.38.35c-.13.12.13-.07-.23.17-.366.25-.747.477-1.14.68-.937.44-1.92.774-2.93 1-1.398.337-2.818.57-4.25.7a1.58 1.58 0 0 0-1.54 1.54 1.55 1.55 0 0 0 1.54 1.54c4.11-.41 9.82-1.19 12.15-5.17a6 6 0 0 0 .8-3.48 3.66 3.66 0 0 0-2.75-3.34 8 8 0 0 0-3.24.33l-.39.06h-.38c-.37 0-.74.06-1.12.07-.38.01-.64 0-1 0h-.41c-.16 0-.6-.08-.19 0a11.364 11.364 0 0 1-1.78-.41l-.39-.14-.21-.08s.35.16.11 0-.52-.24-.77-.38-.47-.27-.69-.42l-.33-.23c-.33-.23.18.17-.11-.09a13.6 13.6 0 0 1-1.24-1.21l-.24-.28-.15-.18c-.14-.17.23.31 0 .05s-.35-.49-.52-.74a16.01 16.01 0 0 1-.91-1.58c-.14-.27-.27-.55-.39-.83-.12-.28.07.18-.07-.16l-.19-.49c-.24-.63-.45-1.27-.64-1.91a35.283 35.283 0 0 1-.95-4.26c-.06-.36-.11-.72-.16-1.09-.05-.37 0 .27 0 0v-.31c0-.207-.023-.413-.07-.62-.087-.8-.16-1.6-.22-2.4-.11-1.6-.17-3.21-.17-4.81 0-3.23.14-6.47.41-9.69.133-1.547.29-3.093.47-4.64.087-.72.177-1.437.27-2.15v-.71l.15-1.08c.48-3.31 1.1-6.59 1.74-9.87v-.14c.43-1.93-2.54-2.75-3-.82z"/></g><g><path fill="#a06950" d="M83.74 208.745a52.19 52.19 0 0 0 22.46.88c1-.18.56-1.66-.41-1.48a50.35 50.35 0 0 1-21.64-.88.77.77 0 0 0-.41 1.48z"/></g><g><path fill="#a06950" d="M73.145 204.773a41.86 41.86 0 0 0 7.35 3c.94.31 1.35-1.18.41-1.48a39.71 39.71 0 0 1-7-2.87c-.87-.48-1.64.85-.78 1.33z"/></g><g><path fill="#a06950" d="M144.453 207.105a50.35 50.35 0 0 1-21.64.88c-1-.18-1.38 1.3-.41 1.48a52.19 52.19 0 0 0 22.46-.88.77.77 0 0 0-.41-1.48z"/></g><g><path fill="#a06950" d="M154.675 203.293a39.709 39.709 0 0 1-7 2.87c-.94.31-.54 1.79.41 1.48 2.54-.765 5.001-1.77 7.35-3 .87-.48.09-1.81-.78-1.33z"/></g></g></g><g><g><g><text dominant-baseline="text-before-edge" style="text-transform:uppercase;font-kerning:normal" font-family="'Poppins','Poppins-Regular'" font-size="7" transform="translate(125 361)"><tspan style="text-transform:uppercase;font-kerning:normal">Head Chef</tspan></text></g></g><g><g><text dominant-baseline="text-before-edge" style="font-kerning:normal" font-family="'Poppins','Poppins-Bold'" font-size="9" transform="translate(134 351)"><tspan style="font-kerning:normal">JOE</tspan></text></g></g><g><g><text dominant-baseline="text-before-edge" style="font-kerning:normal" fill="#366eff" font-family="'Poppins','Poppins-Bold'" font-size="6" transform="translate(120 339)"><tspan style="font-kerning:normal">Ocean Burgers</tspan></text></g></g></g></g></g></svg>