<svg xmlns="http://www.w3.org/2000/svg" width="852" height="601" viewBox="0 0 852 601"><g><g><path fill="#c8d3d9" d="M564.59 4.06h45.855v12.062h-33.572c-3.258 0-6.382-1.27-8.686-3.533a11.954 11.954 0 0 1-3.597-8.529z"/></g><g><path fill="#d9e1e4" d="M790.587 286.32H779.05v252.507h11.537z"/></g><g><path fill="#b4bec1" d="M788.747 286.32h-5.077v252.507h5.077z"/></g><g><path fill="#fff" d="M780.888 286.32h-2.768v252.507h2.768z"/></g><g><path fill="#000201" d="M777.897 432.278a2.066 2.066 0 0 1-1.447-.589 1.992 1.992 0 0 1-.6-1.421V369.32c0-.533.216-1.044.6-1.421a2.066 2.066 0 0 1 1.447-.589c.543 0 1.064.212 1.448.589.384.377.6.888.6 1.421v60.948c0 .533-.216 1.044-.6 1.421a2.066 2.066 0 0 1-1.448.59z"/></g><g><path fill="#000201" d="M789.435 540.434h-11.538a2.066 2.066 0 0 1-1.447-.589 1.994 1.994 0 0 1-.6-1.422v-96.66c0-.533.216-1.045.6-1.422a2.066 2.066 0 0 1 1.447-.588c.543 0 1.064.211 1.448.588.384.377.6.889.6 1.422v94.65h7.443V321.09c0-.533.215-1.044.599-1.421a2.066 2.066 0 0 1 1.448-.589c.543 0 1.063.212 1.447.589.384.377.6.888.6 1.421v217.333c0 .533-.216 1.045-.6 1.422a2.066 2.066 0 0 1-1.447.589z"/></g><g><path fill="#000201" d="M777.897 347.181a2.066 2.066 0 0 1-1.447-.588 1.992 1.992 0 0 1-.6-1.422v-59.25c0-.534.216-1.045.6-1.422a2.066 2.066 0 0 1 1.447-.589h11.538c.543 0 1.063.212 1.447.589.384.377.6.888.6 1.421v22.726c0 .533-.216 1.045-.6 1.422a2.066 2.066 0 0 1-1.447.588 2.066 2.066 0 0 1-1.448-.588 1.992 1.992 0 0 1-.6-1.422v-20.715h-7.443v57.24c0 .533-.215 1.045-.6 1.422a2.066 2.066 0 0 1-1.447.588z"/></g><g><path fill="#000201" d="M777.897 363.04a2.066 2.066 0 0 1-1.447-.59 1.992 1.992 0 0 1-.6-1.42v-5.55c0-.533.216-1.044.6-1.421a2.066 2.066 0 0 1 1.447-.589c.543 0 1.064.212 1.448.589.384.377.6.888.6 1.421v5.55c0 .532-.216 1.044-.6 1.42a2.066 2.066 0 0 1-1.448.59z"/></g><g><path fill="#fff" d="M784.856 296.778c24.873 0 45.036-19.802 45.036-44.23 0-24.426-20.163-44.228-45.036-44.228s-45.036 19.802-45.036 44.229 20.163 44.229 45.036 44.229z"/></g><g><path fill="#c8d3d9" d="M829.888 251.74a43.625 43.625 0 0 1-4.824 19.885 44.479 44.479 0 0 1-13.407 15.637 45.506 45.506 0 0 1-19.13 8.055 45.868 45.868 0 0 1-20.777-1.246c9.251-2.75 17.355-8.352 23.115-15.975 5.76-7.623 8.87-16.863 8.87-26.356 0-9.493-3.11-18.733-8.87-26.356-5.76-7.623-13.864-13.224-23.115-15.975a45.869 45.869 0 0 1 20.776-1.246 45.506 45.506 0 0 1 19.131 8.055 44.48 44.48 0 0 1 13.407 15.637 43.625 43.625 0 0 1 4.824 19.885z"/></g><g><path fill="#000201" d="M783.213 297.989a47.697 47.697 0 0 1-26.158-7.793c-7.743-5.08-13.777-12.303-17.341-20.752a45.47 45.47 0 0 1-2.68-26.716c1.817-8.969 6.302-17.208 12.886-23.675 6.585-6.466 14.974-10.87 24.108-12.655a47.882 47.882 0 0 1 27.203 2.632c8.603 3.5 15.957 9.426 21.13 17.03a45.652 45.652 0 0 1 7.935 25.69c-.015 12.258-4.98 24.01-13.807 32.679-8.826 8.668-20.793 13.545-33.276 13.56zm0-88.458a43.549 43.549 0 0 0-23.883 7.115c-7.07 4.639-12.58 11.233-15.833 18.947a41.516 41.516 0 0 0-2.447 24.393c1.659 8.19 5.753 15.712 11.765 21.616 6.013 5.905 13.672 9.926 22.011 11.555a43.719 43.719 0 0 0 24.838-2.403c7.856-3.195 14.57-8.606 19.293-15.55a41.682 41.682 0 0 0 7.245-23.455c-.013-11.193-4.546-21.924-12.605-29.838-8.06-7.915-18.986-12.367-30.384-12.38z"/></g><g><path fill="#c8d3d9" d="M794.27 281.5c3.844 0 6.96-3.06 6.96-6.835s-3.116-6.835-6.96-6.835-6.96 3.06-6.96 6.835 3.116 6.836 6.96 6.836z"/></g><g><path fill="#c8d3d9" d="M792.637 264.61c1.13 0 2.047-.9 2.047-2.01 0-1.11-.916-2.01-2.047-2.01-1.13 0-2.047.9-2.047 2.01 0 1.11.917 2.01 2.047 2.01z"/></g><g><path fill="#67f4aa" d="M776.908 494.504c-5.323-14.868-15.833-27.407-29.667-35.395-13.834-7.988-30.1-10.911-45.918-8.251-15.818 2.66-30.168 10.731-40.507 22.785-10.34 12.053-16.003 27.311-15.986 43.072v73.983l43.398 1.206h102.764c9.879 0 19.537-2.877 27.751-8.267 8.214-5.39 14.616-13.051 18.396-22.015a48.235 48.235 0 0 0 2.843-28.342c-1.928-9.515-6.685-18.256-13.67-25.116-6.986-6.86-15.886-11.532-25.575-13.425a50.796 50.796 0 0 0-28.859 2.791c-9.127 3.713-16.928 10-22.417 18.067-5.488 8.067-8.418 17.551-8.418 27.253"/></g><g><path fill="#29b260" d="M733.232 543.951h-.23a3.74 3.74 0 0 1-1.391-.359 3.679 3.679 0 0 1-1.146-.855 3.605 3.605 0 0 1-.725-1.221 3.558 3.558 0 0 1-.193-1.4c.72-11.685 6.109-40.04 40.573-51a3.748 3.748 0 0 1 2.814.221 3.64 3.64 0 0 1 1.83 2.11c.3.914.219 1.908-.227 2.763a3.67 3.67 0 0 1-2.148 1.797c-30.142 9.578-34.858 34.346-35.48 44.55a3.6 3.6 0 0 1-1.157 2.41 3.73 3.73 0 0 1-2.52.984z"/></g><g><path fill="#29b260" d="M704.935 598.624l-4.724-5.556a26.672 26.672 0 0 0 6.63-8.071 26.224 26.224 0 0 0 2.98-9.948 26.124 26.124 0 0 0-1.124-10.311 26.436 26.436 0 0 0-5.055-9.104 26.976 26.976 0 0 0-8.219-6.51 27.43 27.43 0 0 0-10.13-2.928 27.53 27.53 0 0 0-10.498 1.104 27.215 27.215 0 0 0-9.27 4.965l-4.725-5.557c7.01-5.748 16.058-8.526 25.154-7.722 9.095.804 17.493 5.123 23.346 12.008 5.852 6.885 8.68 15.77 7.862 24.703-.818 8.932-5.216 17.18-12.227 22.927z"/></g><g><path fill="#29b260" d="M840.127 543.653c0 13.01-5.262 25.487-14.63 34.686-9.367 9.2-22.071 14.368-35.319 14.368h-7.287c9.52-4.423 17.499-11.507 22.938-20.364a51.82 51.82 0 0 0 7.637-29.426c-.458-10.333-4.01-20.303-10.213-28.662-6.202-8.36-14.778-14.735-24.653-18.329a50.838 50.838 0 0 1 22.347-.182 50.349 50.349 0 0 1 20.191 9.406 49.227 49.227 0 0 1 13.994 17.111 48.328 48.328 0 0 1 4.995 21.392z"/></g><g><path fill="#29b260" d="M809.009 535.61c4.296 0 7.779-3.421 7.779-7.64 0-4.22-3.483-7.64-7.779-7.64-4.296 0-7.779 3.42-7.779 7.64 0 4.219 3.483 7.64 7.779 7.64z"/></g><g><path fill="#29b260" d="M803.275 545.267c2.035 0 3.685-1.62 3.685-3.618 0-1.999-1.65-3.619-3.685-3.619s-3.685 1.62-3.685 3.619c0 1.998 1.65 3.618 3.685 3.618z"/></g><g><path fill="#29b260" d="M797.958 535.39c.904 0 1.637-1.03 1.637-2.3 0-1.27-.733-2.3-1.637-2.3-.905 0-1.638 1.03-1.638 2.3 0 1.27.733 2.3 1.638 2.3z"/></g><g><path fill="#000201" d="M774.866 496.516a2.064 2.064 0 0 1-1.183-.365 2.007 2.007 0 0 1-.75-.97c-3.793-10.516-10.279-19.896-18.833-27.237a2.019 2.019 0 0 1-.52-.62 1.984 1.984 0 0 1 .267-2.267c.181-.204.402-.37.65-.487a2.077 2.077 0 0 1 2.297.35c9.088 7.802 15.975 17.773 19.996 28.95a1.977 1.977 0 0 1-.081 1.536 2.035 2.035 0 0 1-1.163 1.03 2.04 2.04 0 0 1-.68.08z"/></g><g><path fill="#000201" d="M748.276 463.068a2.09 2.09 0 0 1-1.13-.33 65.09 65.09 0 0 0-5.224-3.08 2.042 2.042 0 0 1-.642-.492 2 2 0 0 1-.481-1.494c.026-.268.106-.528.236-.765a2.02 2.02 0 0 1 .52-.614 2.06 2.06 0 0 1 1.536-.428c.272.034.534.12.771.255a70.803 70.803 0 0 1 5.552 3.265c.366.24.643.588.791.995.149.406.16.849.032 1.262a2.011 2.011 0 0 1-.74 1.031 2.072 2.072 0 0 1-1.221.395z"/></g><g><path fill="#000201" d="M735.88 456.693a2.13 2.13 0 0 1-.762-.144 67.277 67.277 0 0 0-31.116-4.23 2.083 2.083 0 0 1-1.507-.447 1.996 1.996 0 0 1-.29-2.843 2.068 2.068 0 0 1 1.388-.731 72.842 72.842 0 0 1 7.156-.338 70.66 70.66 0 0 1 25.884 4.825c.44.174.806.493 1.033.902.228.409.304.883.215 1.34a2.004 2.004 0 0 1-.703 1.17 2.07 2.07 0 0 1-1.299.464z"/></g><g><path fill="#000201" d="M642.787 518.723a2.066 2.066 0 0 1-1.447-.59 1.992 1.992 0 0 1-.6-1.42c.004-15.537 5.363-30.615 15.204-42.78 9.84-12.164 23.585-20.7 38.995-24.215a2.083 2.083 0 0 1 1.583.22c.235.14.44.324.6.543a1.994 1.994 0 0 1 .359 1.53c-.048.265-.15.519-.3.745-.15.226-.344.42-.571.571-.228.151-.484.255-.754.307-14.507 3.312-27.446 11.349-36.71 22.802-9.264 11.454-14.309 25.65-14.312 40.276 0 .534-.215 1.045-.6 1.422a2.066 2.066 0 0 1-1.447.589z"/></g><g><path fill="#000201" d="M788.951 593.919H686.187a2.066 2.066 0 0 1-1.447-.589 1.994 1.994 0 0 1-.6-1.422c0-.533.216-1.044.6-1.421a2.066 2.066 0 0 1 1.447-.59h102.764c9.474 0 18.736-2.758 26.613-7.928 7.878-5.169 14.017-12.516 17.643-21.112a46.268 46.268 0 0 0 2.726-27.18c-1.849-9.126-6.411-17.508-13.11-24.088-6.699-6.579-15.235-11.06-24.527-12.874a48.713 48.713 0 0 0-27.676 2.677c-8.753 3.56-16.234 9.59-21.498 17.326-5.263 7.737-8.073 16.832-8.073 26.136 0 .533-.215 1.045-.6 1.422a2.066 2.066 0 0 1-1.447.589 2.066 2.066 0 0 1-1.447-.59 1.993 1.993 0 0 1-.6-1.42c0-10.1 3.05-19.973 8.763-28.37 5.713-8.398 13.834-14.943 23.335-18.808a52.878 52.878 0 0 1 30.042-2.906c10.086 1.97 19.351 6.834 26.623 13.975 7.272 7.142 12.224 16.24 14.23 26.146a50.205 50.205 0 0 1-2.959 29.504c-3.935 9.33-10.6 17.306-19.15 22.917-8.551 5.61-18.604 8.606-28.888 8.606z"/></g><g><path fill="#000201" d="M699.544 598.582c-.3.002-.596-.061-.867-.185a1.994 1.994 0 0 1-.442-3.37c5.447-4.588 8.835-11.098 9.432-18.122.596-7.024-1.647-13.995-6.246-19.407-4.598-5.411-11.181-8.826-18.324-9.507-7.143-.68-14.272 1.429-19.844 5.872a2.06 2.06 0 0 1-1.496.46 2.078 2.078 0 0 1-1.39-.714 2.002 2.002 0 0 1-.469-1.47c.024-.263.1-.519.225-.753a2.02 2.02 0 0 1 .502-.611c6.41-5.088 14.6-7.497 22.802-6.708 8.203.79 15.76 4.715 21.043 10.928 5.282 6.213 7.865 14.217 7.192 22.284-.674 8.067-4.55 15.55-10.791 20.837a2.07 2.07 0 0 1-1.327.466z"/></g><g><path fill="#c8d3d9" d="M252.084 125.093c.041-15.728-5.824-30.919-16.471-42.667-10.648-11.748-25.332-19.23-41.244-21.013-15.912-1.784-31.934 2.255-45.004 11.345-13.07 9.09-22.269 22.592-25.838 37.924a43.017 43.017 0 0 0-18.155-4.945A43.108 43.108 0 0 0 86.828 109a42.406 42.406 0 0 0-15.278 10.826 41.444 41.444 0 0 0-8.997 16.256 40.941 40.941 0 0 0-.944 18.478 41.267 41.267 0 0 0 7.297 17.058 42.18 42.18 0 0 0 14.098 12.273 43 43 0 0 0 18.12 5.068v.065h92.012v-.29c16.127-1.505 31.103-8.859 42.003-20.628 10.901-11.768 16.942-27.104 16.945-43.013z"/></g><g opacity=".4"><path fill="#c8d3d9" d="M785.964 111.423c.041-15.728-5.824-30.919-16.471-42.667-10.648-11.748-25.332-19.23-41.244-21.013-15.912-1.784-31.934 2.255-45.004 11.345-13.07 9.09-22.269 22.592-25.838 37.924a43.018 43.018 0 0 0-18.155-4.945 43.108 43.108 0 0 0-18.544 3.263 42.405 42.405 0 0 0-15.278 10.826 41.443 41.443 0 0 0-8.997 16.256 40.941 40.941 0 0 0-.944 18.478 41.268 41.268 0 0 0 7.297 17.058 42.18 42.18 0 0 0 14.098 12.273 43 43 0 0 0 18.12 5.068v.065h92.012v-.29c16.127-1.505 31.103-8.859 42.003-20.628 10.901-11.768 16.942-27.104 16.945-43.013z"/></g><g opacity=".2"><g opacity=".04"><path fill="#c8d3d9" d="M137.974 254.752c-.002 7.039-2.751 13.809-7.681 18.917-4.931 5.109-11.668 8.167-18.824 8.546H54.862a43.424 43.424 0 0 1-25.767-8.435c-6.326-4.66-11.22-10.944-14.143-18.161a41.49 41.49 0 0 1-2.421-22.74 41.88 41.88 0 0 1 10.012-20.643c5.208-5.844 11.958-10.164 19.506-12.482a43.717 43.717 0 0 1 23.272-.658c7.67 1.889 14.662 5.82 20.204 11.36 5.542 5.541 9.42 12.477 11.205 20.043a28.427 28.427 0 0 1 13.899-3.273 28.395 28.395 0 0 1 13.734 3.887 27.744 27.744 0 0 1 9.993 10.036 27.118 27.118 0 0 1 3.651 13.571z"/></g><g opacity=".04"><path fill="#c8d3d9" d="M54.864 282.245H50.77v-.185c1.343.12 2.694.185 4.094.185z"/></g><g opacity=".04"><path fill="#c8d3d9" d="M111.47 282.21h-1.49c.5.032.999.016 1.49 0z"/></g></g><g><path fill="#67f4aa" d="M96.621 513.1h58.547v78.808H69.19v-51.86c0-7.146 2.89-13.999 8.034-19.052 5.144-5.054 12.121-7.894 19.397-7.896z"/></g><g><path fill="#32c973" d="M132.205 512.29a97.21 97.21 0 0 0-10.063 8.613 94.91 94.91 0 0 0-21.058 30.905 93.527 93.527 0 0 0-7.364 36.475h-7.37a93.527 93.527 0 0 1 7.365-36.475 94.913 94.913 0 0 1 21.057-30.905 97.22 97.22 0 0 1 10.063-8.613z"/></g><g><path fill="#fff" d="M106.448 513.9c-7.276.002-14.253 2.842-19.397 7.896-5.144 5.053-8.034 11.906-8.034 19.051v51.86H70.01v-51.86c0-7.145 2.89-13.998 8.034-19.051 5.144-5.054 12.121-7.894 19.397-7.896z"/></g><g><path fill="#000201" d="M69.597 594.319a2.066 2.066 0 0 1-1.447-.59 1.992 1.992 0 0 1-.6-1.42v-51.87c0-7.677 3.106-15.04 8.634-20.47 5.528-5.429 13.026-8.479 20.844-8.479h58.547c.543 0 1.064.212 1.448.589.383.377.6.888.6 1.421v78.808c0 .534-.217 1.045-.6 1.422a2.066 2.066 0 0 1-1.448.589zm2.047-4.021h81.884V515.51h-56.5c-6.732 0-13.189 2.626-17.949 7.301-4.76 4.676-7.435 11.016-7.435 17.628z"/></g><g><path fill="#000201" d="M171.139 243.299c-31.026 0-55.681-9.94-73.172-29.537-11.463-12.786-25.875-36.903-29.74-79.194a228.306 228.306 0 0 1 .328-45.475c.056-.427.283-.814.63-1.076a1.674 1.674 0 0 1 2.316.295 1.6 1.6 0 0 1 .33 1.199c-.1.804-9.95 78.993 28.658 122.136 16.82 18.866 40.607 28.435 70.65 28.435.434 0 .851.17 1.158.471.307.302.479.711.479 1.138 0 .426-.172.835-.479 1.137a1.656 1.656 0 0 1-1.158.471z"/></g><g><path fill="#000201" d="M188.329 243.299c-31.026 0-55.681-9.94-73.172-29.537-11.463-12.786-25.875-36.903-29.74-79.194a228.306 228.306 0 0 1 .328-45.475c.056-.427.283-.814.63-1.076a1.674 1.674 0 0 1 2.316.295 1.6 1.6 0 0 1 .33 1.199c-.1.804-9.95 78.993 28.658 122.136 16.82 18.866 40.607 28.435 70.65 28.435.434 0 .851.17 1.158.471.307.302.479.711.479 1.138 0 .426-.172.835-.479 1.137a1.656 1.656 0 0 1-1.158.471z"/></g><g><path fill="#f9ab64" d="M230.502 74.02H34.8v16.083h195.702z"/></g><g><path fill="#d88a4a" d="M229.682 73.22H33.98v6.433h195.702z"/></g><g><path fill="#000201" d="M34.797 91.314a2.066 2.066 0 0 1-1.447-.589 1.992 1.992 0 0 1-.6-1.421V73.22c0-.533.216-1.044.6-1.421a2.066 2.066 0 0 1 1.447-.589H230.5c.543 0 1.064.212 1.448.589.384.377.599.888.599 1.421v16.084c0 .533-.215 1.044-.599 1.421a2.068 2.068 0 0 1-1.448.59zm2.047-4.02h191.608V75.23H36.844z"/></g><g><path fill="#c8d3d9" d="M314.025 76.44H303.38v10.454h10.645z"/></g><g><path fill="#c8d3d9" d="M433.575 76.44H422.93v10.454h10.645z"/></g><g><path fill="#c8d3d9" d="M551.485 76.44H540.84v10.454h10.645z"/></g><g><path fill="#000201" d="M304.607 117.45a2.066 2.066 0 0 1-1.447-.588 1.992 1.992 0 0 1-.6-1.422v-38.6c0-.533.216-1.044.6-1.421a2.066 2.066 0 0 1 1.447-.589h10.645c.543 0 1.064.212 1.448.589.383.377.6.888.6 1.421v38.6c0 .533-.217 1.045-.6 1.422a2.066 2.066 0 0 1-1.448.589zm2.047-4.02h6.55V78.85h-6.55z"/></g><g><path fill="#000201" d="M540.437 117.45a2.066 2.066 0 0 1-1.447-.588 1.993 1.993 0 0 1-.6-1.422v-38.6c0-.533.216-1.044.6-1.421a2.066 2.066 0 0 1 1.447-.589h10.645c.543 0 1.064.212 1.447.589.384.377.6.888.6 1.421v38.6c0 .533-.216 1.045-.6 1.422a2.066 2.066 0 0 1-1.447.589zm2.047-4.02h6.55V78.85h-6.55z"/></g><g><path fill="#000201" d="M423.337 117.45a2.066 2.066 0 0 1-1.447-.588 1.993 1.993 0 0 1-.6-1.422v-38.6c0-.533.216-1.044.6-1.421a2.066 2.066 0 0 1 1.447-.589h10.645c.543 0 1.064.212 1.447.589.384.377.6.888.6 1.421v38.6c0 .533-.216 1.045-.6 1.422a2.066 2.066 0 0 1-1.447.589zm2.047-4.02h6.55V78.85h-6.55z"/></g><g><path fill="#d9e1e4" d="M127.33 22.56h-20.47v131.883h20.47z"/></g><g><path fill="#b4bec1" d="M124.057 22.56h-9.007v131.883h9.007z"/></g><g><path fill="#fff" d="M110.133 22.56h-4.913v131.883h4.913z"/></g><g><path fill="#000201" d="M104.807 156.053a2.065 2.065 0 0 1-1.447-.588 1.994 1.994 0 0 1-.6-1.422V22.16c0-.533.216-1.044.6-1.421a2.066 2.066 0 0 1 1.447-.589h20.471c.543 0 1.064.212 1.448.589.383.377.6.888.6 1.421v131.883c0 .533-.217 1.045-.6 1.422a2.066 2.066 0 0 1-1.448.588zm2.047-4.02h16.377V24.171h-16.377z"/></g><g><path fill="#f9ab64" d="M143.703 2.45H124.87v570.955h18.833z"/></g><g><path fill="#c67940" d="M142.066 2.45h-9.826v570.955h9.826z"/></g><g><path fill="#000201" d="M124.467 301.197a2.07 2.07 0 0 1-1.45-.587 1.999 1.999 0 0 1-.597-1.424V288.37c0-.533.216-1.044.6-1.421a2.066 2.066 0 0 1 1.447-.589c.543 0 1.064.212 1.448.589.384.377.6.888.6 1.421v10.816a1.971 1.971 0 0 1-.598 1.424 2.07 2.07 0 0 1-1.45.587z"/></g><g><path fill="#000201" d="M124.467 319.176a2.066 2.066 0 0 1-1.447-.589 1.992 1.992 0 0 1-.6-1.422v-6.385c0-.533.216-1.044.6-1.421a2.066 2.066 0 0 1 1.447-.589c.543 0 1.064.212 1.448.589.383.377.6.888.6 1.421v6.385c0 .534-.216 1.045-.6 1.422a2.066 2.066 0 0 1-1.448.589z"/></g><g><path fill="#000201" d="M143.3 575.826h-18.833a2.066 2.066 0 0 1-1.447-.589 1.991 1.991 0 0 1-.6-1.421V327.388c0-.533.216-1.044.6-1.421a2.066 2.066 0 0 1 1.447-.589c.543 0 1.064.212 1.448.589.383.377.6.888.6 1.421v244.417h14.738V4.871h-14.739v270.078c0 .533-.215 1.044-.6 1.421a2.066 2.066 0 0 1-1.447.589 2.066 2.066 0 0 1-1.447-.589 1.991 1.991 0 0 1-.6-1.421V2.86c0-.533.216-1.044.6-1.421a2.066 2.066 0 0 1 1.447-.589H143.3c.543 0 1.064.212 1.448.589.384.377.6.888.6 1.421v570.956a1.99 1.99 0 0 1-.6 1.421 2.066 2.066 0 0 1-1.448.589z"/></g><g><path fill="#d9e1e4" d="M216.583 394.08H141.25v169.678h75.333z"/></g><g><path fill="#f9f9f9" d="M151.563 394.89v119.82l-8.213-.056V394.89z"/></g><g><path fill="#a7b4b7" d="M245.243 394.08H169.91v169.678h75.333z"/></g><g><path fill="#000201" d="M142.477 566.169a2.066 2.066 0 0 1-1.447-.589 1.991 1.991 0 0 1-.6-1.421V394.48c0-.533.216-1.044.6-1.421a2.066 2.066 0 0 1 1.447-.589h75.333c.543 0 1.064.212 1.448.589.383.377.6.888.6 1.421V564.16c0 .533-.216 1.044-.6 1.421a2.066 2.066 0 0 1-1.448.589zm2.047-4.021h71.239V396.491h-71.239z"/></g><g><path fill="#6b838c" d="M594.882 107H265.71v41.816h329.172z"/></g><g><path fill="#385666" d="M372.16 108.6h222.724v19.3H391.812c-5.212 0-10.21-2.034-13.896-5.653-3.686-3.62-5.756-8.528-5.756-13.647z"/></g><g><path fill="#000201" d="M594.89 149.209H265.717a2.066 2.066 0 0 1-1.447-.589 1.992 1.992 0 0 1-.6-1.421V106.99c0-.533.216-1.044.6-1.421a2.066 2.066 0 0 1 1.447-.589h65.098c.543 0 1.063.212 1.447.589.384.377.6.888.6 1.421 0 .534-.216 1.045-.6 1.422a2.066 2.066 0 0 1-1.447.589h-63.05v36.187h325.078v-36.187h-246.92a2.066 2.066 0 0 1-1.448-.589 1.992 1.992 0 0 1-.6-1.422c0-.533.216-1.044.6-1.421a2.066 2.066 0 0 1 1.447-.589H594.89c.543 0 1.063.212 1.447.589.384.377.6.888.6 1.421V147.2c0 .533-.216 1.044-.6 1.421a2.065 2.065 0 0 1-1.447.589z"/></g><g><path fill="#67f4aa" d="M194.063 493.8v95.293H96.99a93.813 93.813 0 0 1 7.39-36.476 95.2 95.2 0 0 1 21.045-30.92 97.171 97.171 0 0 1 31.493-20.655 98.572 98.572 0 0 1 37.145-7.242z"/></g><g><path fill="#fff" d="M194.471 491.79v3.08c-16.925 4.334-45.97 13.044-57.966 24.833-9.793 9.728-17.246 21.485-21.813 34.41a98.938 98.938 0 0 0-5.11 21.921c-1.294 11.122-.041 11.861-12.11 11.13-9.27-.563 5.56-31.363 6.804-34.435a99.486 99.486 0 0 1 19.791-30.783c8.993-9.51 19.887-17.097 32-22.286a97.602 97.602 0 0 1 38.404-7.87z"/></g><g><path fill="#32c973" d="M175.229 575.82c4.296 0 7.779-3.421 7.779-7.64 0-4.22-3.483-7.64-7.78-7.64-4.295 0-7.778 3.42-7.778 7.64 0 4.219 3.483 7.64 7.779 7.64z"/></g><g><path fill="#32c973" d="M169.495 558.127c2.035 0 3.685-1.62 3.685-3.618 0-1.999-1.65-3.619-3.685-3.619s-3.685 1.62-3.685 3.619c0 1.998 1.65 3.618 3.685 3.618z"/></g><g><path fill="#32c973" d="M164.178 565.37c.904 0 1.637-1.03 1.637-2.3 0-1.27-.733-2.3-1.637-2.3-.905 0-1.638 1.03-1.638 2.3 0 1.27.733 2.3 1.638 2.3z"/></g><g><path fill="#32c973" d="M96.234 551.694c3.61 0 6.535-2.873 6.535-6.417 0-3.544-2.926-6.417-6.535-6.417-3.608 0-6.534 2.873-6.534 6.417 0 3.544 2.926 6.417 6.534 6.417z"/></g><g><path fill="#32c973" d="M91.415 536.84c1.71 0 3.095-1.361 3.095-3.04 0-1.68-1.385-3.04-3.095-3.04-1.71 0-3.095 1.36-3.095 3.04 0 1.679 1.386 3.04 3.095 3.04z"/></g><g><path fill="#32c973" d="M86.946 542.92c.76 0 1.375-.864 1.375-1.93 0-1.066-.616-1.93-1.375-1.93-.76 0-1.376.864-1.376 1.93 0 1.066.616 1.93 1.376 1.93z"/></g><g><path fill="#a7b4b7" d="M170.319 480.93c4.296 0 7.779-3.421 7.779-7.64 0-4.22-3.483-7.64-7.78-7.64-4.295 0-7.778 3.42-7.778 7.64 0 4.219 3.483 7.64 7.779 7.64z"/></g><g><path fill="#a7b4b7" d="M164.585 463.237c2.035 0 3.685-1.62 3.685-3.618 0-1.999-1.65-3.619-3.685-3.619s-3.685 1.62-3.685 3.619c0 1.998 1.65 3.618 3.685 3.618z"/></g><g><path fill="#a7b4b7" d="M159.268 470.48c.904 0 1.637-1.03 1.637-2.3 0-1.27-.733-2.3-1.637-2.3-.905 0-1.638 1.03-1.638 2.3 0 1.27.733 2.3 1.638 2.3z"/></g><g><path fill="#32c973" d="M185.466 533.2v49.858h-9.826V542.85a9.563 9.563 0 0 1 2.878-6.824 9.918 9.918 0 0 1 6.948-2.826z"/></g><g><path fill="#000201" d="M95.807 591.104a2.066 2.066 0 0 1-1.447-.589 1.993 1.993 0 0 1-.6-1.421c.03-25.798 10.479-50.53 29.053-68.772 18.575-18.241 43.758-28.502 70.026-28.532.543 0 1.064.212 1.448.589.384.377.599.888.599 1.421v95.294c0 .533-.215 1.044-.599 1.421a2.067 2.067 0 0 1-1.448.589zm94.985-4.02v-91.249c-24.468.544-47.78 10.333-65.086 27.329-17.306 16.995-27.273 39.89-27.827 63.92z"/></g><g><path fill="#536b77" d="M666.946 234.86H185.47v349.006h481.476z"/></g><g><path fill="#f68d27" d="M463.05 453.588V345.83h176.869v153.458l-133.47 22.654-43.162-22.179z"/></g><g><path fill="#253b4a" d="M429.48 287.13v37.965c0 .594-.24 1.165-.669 1.586-.428.42-1.009.657-1.615.657H400.24v-39.203z"/></g><g><path fill="#c45605" d="M639.516 391.67H601.44V571.4h38.076z"/></g><g><path fill="#f9ab64" d="M463.458 444.255l91.055-96.315h79.673L461.821 536.822s-.393-92.567 1.637-92.567z"/></g><g><path fill="#f9ab64" d="M462.95 432.591l.926-.949 82.072-84.702h-14.92l-68.348 70.05"/></g><g><path fill="#fff" d="M462.941 397.221l48.901-50.421h-8.024l-42.408 44.398"/></g><g><path fill="#000201" d="M506.455 524.762a2.076 2.076 0 0 1-.95-.233l-43.16-22.179a2.028 2.028 0 0 1-.799-.735 1.981 1.981 0 0 1-.299-1.034l-.237-46.183V346.64c0-.533.216-1.044.6-1.421a2.066 2.066 0 0 1 1.447-.589h176.869c.543 0 1.063.212 1.447.589.384.377.6.888.6 1.421V500.1c.001.474-.168.933-.478 1.297-.31.363-.741.607-1.217.689l-133.47 22.645a1.807 1.807 0 0 1-.352.032zm-41.122-25.411l41.458 21.302L637.88 498.41V348.65H465.104v105.748z"/></g><g><path fill="#d9e1e4" d="M727.871 328.003a6.196 6.196 0 0 1 2.076-1.465 6.295 6.295 0 0 1 5.003 0c.788.341 1.495.84 2.076 1.465l8.581 9.256 3.734 4.02a6.036 6.036 0 0 1 1.54 3.12 5.98 5.98 0 0 1-.447 3.437 6.11 6.11 0 0 1-2.286 2.64 6.273 6.273 0 0 1-3.384.984h-24.63a6.272 6.272 0 0 1-3.375-.987 6.11 6.11 0 0 1-2.28-2.634 5.98 5.98 0 0 1-.45-3.428 6.035 6.035 0 0 1 1.527-3.116l3.734-4.02z"/></g><g><path fill="#b4bec1" d="M743.948 353.87h-10.645a6.272 6.272 0 0 0 3.374-.987 6.11 6.11 0 0 0 2.28-2.634 5.98 5.98 0 0 0 .45-3.428 6.036 6.036 0 0 0-1.527-3.116l-3.734-4.02-7.836-8.468.745-.804a6.197 6.197 0 0 1 2.076-1.465 6.295 6.295 0 0 1 5.003 0c.788.341 1.495.84 2.076 1.465l8.581 9.255 3.734 4.021a6.036 6.036 0 0 1 1.54 3.12 5.98 5.98 0 0 1-.447 3.437 6.11 6.11 0 0 1-2.286 2.64 6.273 6.273 0 0 1-3.384.984z"/></g><g><path fill="#000201" d="M730.811 328.54a2.066 2.066 0 0 1-1.447-.59 1.992 1.992 0 0 1-.6-1.421 9.173 9.173 0 0 0-2.76-6.537 9.512 9.512 0 0 0-6.656-2.711h-24.63a2.066 2.066 0 0 1-1.448-.589 1.992 1.992 0 0 1-.6-1.422c0-.533.216-1.044.6-1.421a2.066 2.066 0 0 1 1.447-.589h24.63a13.653 13.653 0 0 1 9.55 3.891 13.166 13.166 0 0 1 3.962 9.378c0 .533-.216 1.044-.6 1.421a2.066 2.066 0 0 1-1.448.59z"/></g><g><path fill="#000201" d="M655.787 349.278a2.066 2.066 0 0 1-1.447-.588 1.992 1.992 0 0 1-.6-1.422V315.27c0-.533.216-1.044.6-1.421a2.066 2.066 0 0 1 1.447-.589h28.88c.543 0 1.064.212 1.448.589.384.377.6.888.6 1.421 0 .534-.216 1.045-.6 1.422a2.066 2.066 0 0 1-1.448.589h-26.833v29.987c0 .533-.215 1.045-.6 1.422a2.066 2.066 0 0 1-1.447.588z"/></g><g><path fill="#000201" d="M743.124 353.873h-24.631a8.348 8.348 0 0 1-4.501-1.304 8.132 8.132 0 0 1-3.045-3.507 7.958 7.958 0 0 1-.601-4.571 8.032 8.032 0 0 1 2.038-4.152l12.283-13.284a8.234 8.234 0 0 1 2.762-1.954 8.366 8.366 0 0 1 6.66 0 8.235 8.235 0 0 1 2.762 1.954l12.283 13.284a8.033 8.033 0 0 1 2.035 4.128 7.957 7.957 0 0 1-.577 4.551 8.127 8.127 0 0 1-3.004 3.512 8.344 8.344 0 0 1-4.464 1.344zm-13.959-25.101c-.527.229-1 .564-1.386.985l-12.283 13.293a4.04 4.04 0 0 0-1.022 2.084 4.003 4.003 0 0 0 .301 2.295 4.09 4.09 0 0 0 1.526 1.763c.671.43 1.456.66 2.257.66h24.631a4.199 4.199 0 0 0 2.258-.66 4.09 4.09 0 0 0 1.525-1.763c.325-.72.43-1.517.301-2.295a4.04 4.04 0 0 0-1.022-2.084l-12.282-13.293a4.093 4.093 0 0 0-1.432-1.005 4.16 4.16 0 0 0-1.727-.322 4.157 4.157 0 0 0-1.645.342z"/></g><g><path fill="#d9e1e4" d="M315.05 291.63v32.489h107.882V260.59h-99.08l-8.597 6.031s-.205 26.425-.205 25.01z"/></g><g><path fill="#9cb2b7" d="M356.6 281.5s11.464 30.559 44.217 4.021c0 0 2.457 10.454 12.283 10.454v28.411h5.42s5.225-.265 2.768-40.473c-2.456-40.208-62.567-33.775-62.567-33.775z"/></g><g><path fill="#40545b" d="M345.755 300.394c7.8 0 14.125-6.211 14.125-13.872s-6.324-13.872-14.125-13.872-14.125 6.21-14.125 13.872c0 7.661 6.324 13.872 14.125 13.872z"/></g><g><path fill="#27373d" d="M359.06 287.327c0 7.664-4.48 14.274-12.283 14.274-3.16 0-2.456-19.565-2.456-24.125 0-7.664-7.19-4.02.614-4.02 3.746 0 7.339 1.46 9.988 4.062a13.747 13.747 0 0 1 4.137 9.809z"/></g><g><path fill="#000201" d="M345.753 313.462a26.13 26.13 0 0 1-14.33-4.269 25.435 25.435 0 0 1-9.5-11.368 24.91 24.91 0 0 1-1.467-14.636 25.194 25.194 0 0 1 7.059-12.97 25.942 25.942 0 0 1 13.206-6.932 26.231 26.231 0 0 1 14.903 1.441 25.7 25.7 0 0 1 11.576 9.33 25.01 25.01 0 0 1 4.347 14.073c-.007 6.716-2.726 13.156-7.562 17.905-4.836 4.749-11.393 7.42-18.232 7.426zm0-46.641c-4.291 0-8.487 1.25-12.055 3.591a21.399 21.399 0 0 0-7.992 9.564 20.956 20.956 0 0 0-1.235 12.313 21.195 21.195 0 0 0 5.939 10.91 21.825 21.825 0 0 0 11.11 5.833c4.21.822 8.572.4 12.537-1.213a21.62 21.62 0 0 0 9.739-7.849 21.04 21.04 0 0 0 3.656-11.839c-.006-5.65-2.294-11.066-6.362-15.061-4.068-3.996-9.584-6.243-15.337-6.25z"/></g><g><path fill="#000201" d="M345.753 302.406c-3.036 0-6.005-.884-8.53-2.541a15.14 15.14 0 0 1-5.654-6.767 14.827 14.827 0 0 1-.874-8.711 14.996 14.996 0 0 1 4.202-7.72 15.442 15.442 0 0 1 7.86-4.127 15.614 15.614 0 0 1 8.872.858 15.297 15.297 0 0 1 6.89 5.553 14.887 14.887 0 0 1 2.587 8.377 14.958 14.958 0 0 1-4.501 10.657 15.513 15.513 0 0 1-10.852 4.421zm0-27.744c-2.55 0-5.044.743-7.165 2.135a12.718 12.718 0 0 0-4.75 5.684 12.455 12.455 0 0 0-.734 7.318 12.598 12.598 0 0 0 3.53 6.485 12.971 12.971 0 0 0 6.603 3.466c2.502.489 5.095.238 7.451-.72a12.85 12.85 0 0 0 5.788-4.665 12.505 12.505 0 0 0 2.174-7.037 12.568 12.568 0 0 0-3.782-8.951 13.033 13.033 0 0 0-9.115-3.715z"/></g><g><path fill="#000201" d="M314.227 326.93a2.066 2.066 0 0 1-1.447-.59 1.992 1.992 0 0 1-.6-1.42v-32.594c0-1.503.14-16.782.205-24.928.004-.316.085-.626.234-.905.15-.28.364-.52.625-.704l8.598-6.031c.345-.247.76-.38 1.188-.378h99.079c.543 0 1.063.212 1.447.589.384.377.6.888.6 1.421v63.53c0 .532-.216 1.044-.6 1.42a2.065 2.065 0 0 1-1.447.59zm2.047-4.021h103.788V263.4h-96.377l-7.214 5.058-.189 22.967V292.455z"/></g><g><path fill="#253b4a" d="M663.663 249.33H651.38v332.119h12.283z"/></g><g><path fill="#253b4a" d="M661.211 249.33v62.725H485.423c-14.837 0-29.066-5.789-39.558-16.092-10.491-10.303-16.385-24.278-16.385-38.849v-7.784z"/></g><g><path fill="#6b838c" d="M198.572 249.33H186.29v332.119h12.283z"/></g><g><path fill="#6b838c" d="M306.653 250.14H196.11v332.119h110.543z"/></g><g><path fill="#d6393a" d="M699.933 250.945v10.92c.091 7.785-2.97 15.286-8.511 20.854-5.54 5.568-13.106 8.746-21.032 8.836-7.927.089-15.565-2.917-21.235-8.358-5.666-5.438-8.903-12.865-8.997-20.645-.085 7.547-3.128 14.781-8.511 20.191-5.54 5.568-13.106 8.746-21.033 8.836-7.926.09-15.564-2.917-21.234-8.358-5.67-5.441-8.906-12.872-8.997-20.656v-.002c-.079 7.568-3.132 14.824-8.537 20.242-5.547 5.561-13.117 8.73-21.044 8.81-7.926.08-15.561-2.936-21.223-8.384-5.663-5.448-8.89-12.882-8.971-20.666v-.001c-.088 7.542-3.13 14.772-8.511 20.179-5.54 5.568-13.106 8.746-21.033 8.836-7.926.09-15.565-2.917-21.234-8.358-5.67-5.441-8.906-12.872-8.997-20.656v-.001c-.088 7.542-3.13 14.772-8.511 20.179-5.54 5.568-13.106 8.746-21.033 8.836-7.927.09-15.565-2.917-21.234-8.358-5.67-5.441-8.906-12.872-8.997-20.656v-.051a28.904 28.904 0 0 1-2.144 10.585 29.312 29.312 0 0 1-6.367 9.596 29.908 29.908 0 0 1-9.622 6.472 30.383 30.383 0 0 1-22.875.259 29.948 29.948 0 0 1-9.77-6.253 29.339 29.339 0 0 1-6.591-9.45 28.894 28.894 0 0 1-2.406-11.206v-.001c-.088 7.542-3.131 14.772-8.511 20.179-5.541 5.568-13.106 8.746-21.033 8.836-7.927.089-15.565-2.917-21.235-8.358-5.668-5.44-8.904-12.869-8.997-20.65a28.885 28.885 0 0 1-2.143 10.576 29.312 29.312 0 0 1-6.367 9.596 29.919 29.919 0 0 1-9.622 6.472 30.38 30.38 0 0 1-22.875.259 29.95 29.95 0 0 1-9.77-6.253 29.343 29.343 0 0 1-6.591-9.45 28.904 28.904 0 0 1-2.407-11.206 28.892 28.892 0 0 1-2.143 10.582 29.313 29.313 0 0 1-6.367 9.596 29.913 29.913 0 0 1-9.622 6.472 30.38 30.38 0 0 1-22.875.259 29.95 29.95 0 0 1-9.77-6.253 29.344 29.344 0 0 1-6.591-9.45 28.903 28.903 0 0 1-2.407-11.206v-6.128a17.3 17.3 0 0 1 0-4.021v-1.423h.238a13.285 13.285 0 0 1 1.981-4.825c.737-1.094 3.62-4.037 7.624-7.937l95.14-109.873h329.173l102.354 118.212zm-399.42-121.83l-.262.401h1.416z"/></g><g><path fill="#f68d27" d="M436.03 499.801V346.64H210.85v223.557h224.771s-.262-70.919.409-70.396z"/></g><g><path fill="#c45605" d="M437.259 442.33H351.69v126.655h85.569z"/></g><g><path fill="#c45605" d="M336.41 542.05H301.46c-3.916 0-7.091 3.118-7.091 6.964v13.413c0 3.847 3.175 6.964 7.091 6.964h34.948c3.916 0 7.091-3.117 7.091-6.963v-13.414c0-3.846-3.175-6.964-7.09-6.964z"/></g><g><path fill="#c45605" d="M275 542.05H240.05c-3.916 0-7.091 3.118-7.091 6.964v13.413c0 3.847 3.175 6.964 7.091 6.964H275c3.916 0 7.091-3.117 7.091-6.963v-13.414c0-3.846-3.175-6.964-7.09-6.964z"/></g><g><path fill="#000201" d="M310.253 312.856c-8.008 0-24.123-1.544-36.79-12.61-11.39-9.907-17.163-25.186-17.163-45.29 0-.32.13-.626.36-.853a1.24 1.24 0 0 1 .868-.353c.326 0 .638.127.869.353.23.227.36.533.36.853 0 19.397 5.494 34.032 16.335 43.505 16.377 14.307 39.583 11.814 39.812 11.79a1.261 1.261 0 0 1 .91.253 1.221 1.221 0 0 1 .462.812 1.193 1.193 0 0 1-.259.894 1.23 1.23 0 0 1-.826.453c-1.641.153-3.29.217-4.938.193z"/></g><g><path fill="#f9ab64" d="M351.279 411.774c8.366 0 15.148-6.66 15.148-14.877 0-8.216-6.782-14.877-15.149-14.877-8.366 0-15.148 6.66-15.148 14.877 0 8.216 6.782 14.877 15.149 14.877z"/></g><g><path fill="#f9ab64" d="M540.436 469.271c13.115 0 23.746-10.44 23.746-23.32s-10.631-23.321-23.746-23.321c-13.114 0-23.746 10.441-23.746 23.32 0 12.88 10.632 23.321 23.746 23.321z"/></g><g><path fill="#000201" d="M308.613 303.206c-8.008 0-24.123-1.544-36.79-12.61-11.39-9.907-17.163-25.186-17.163-45.29 0-.32.13-.626.36-.853a1.24 1.24 0 0 1 .868-.353c.326 0 .638.127.869.353.23.227.36.533.36.853 0 19.397 5.494 34.032 16.335 43.505 16.377 14.307 39.583 11.814 39.812 11.79a1.26 1.26 0 0 1 .91.253 1.223 1.223 0 0 1 .462.812 1.193 1.193 0 0 1-.259.894 1.229 1.229 0 0 1-.826.453 45.85 45.85 0 0 1-4.938.193z"/></g><g><path fill="#c45605" d="M275 484.95H240.05c-3.916 0-7.091 3.118-7.091 6.964v13.413c0 3.847 3.175 6.965 7.091 6.965H275c3.916 0 7.091-3.118 7.091-6.965v-13.413c0-3.846-3.175-6.964-7.09-6.964z"/></g><g><path fill="#f9ab64" d="M213.019 451.575l97.318-102.925h85.159L211.258 550.495s-.393-98.92 1.76-98.92z"/></g><g><path fill="#f9ab64" d="M212.487 439.11l.982-1.014 87.706-90.516h-15.943L212.2 422.44"/></g><g><path fill="#fff" d="M212.488 401.319l52.25-53.879h-8.573l-45.315 47.446"/></g><g><path fill="#c15606" d="M362.625 570.523H215.357a2.086 2.086 0 0 1-1.454-.6 1.991 1.991 0 0 1-.593-1.435V349.475a1.987 1.987 0 0 1 .593-1.435 2.058 2.058 0 0 1 1.454-.6h217.811a2.083 2.083 0 0 1 1.448.603 1.995 1.995 0 0 1 .591 1.432v149.26c0 .533-.216 1.045-.6 1.422a2.064 2.064 0 0 1-1.447.588 2.067 2.067 0 0 1-1.448-.588 1.993 1.993 0 0 1-.599-1.422V351.501H217.396v214.953h145.229c.549 0 1.076.214 1.465.595.388.382.607.899.607 1.439a2.02 2.02 0 0 1-.607 1.439 2.095 2.095 0 0 1-1.465.596z"/></g><g><path fill="#d36102" d="M387.718 395.688a15.76 15.76 0 0 1-8.644-2.575 15.342 15.342 0 0 1-5.73-6.857 15.025 15.025 0 0 1-.885-8.828 15.196 15.196 0 0 1 4.258-7.823 15.648 15.648 0 0 1 7.966-4.181 15.822 15.822 0 0 1 8.989.87 15.501 15.501 0 0 1 6.982 5.626 15.085 15.085 0 0 1 2.622 8.49c0 4.051-1.64 7.938-4.557 10.803a15.703 15.703 0 0 1-11.001 4.475zm0-26.537c-2.267 0-4.484.66-6.369 1.897a11.305 11.305 0 0 0-4.222 5.053 11.071 11.071 0 0 0-.653 6.505 11.197 11.197 0 0 0 3.138 5.764 11.53 11.53 0 0 0 5.87 3.081c2.223.435 4.528.212 6.623-.64a11.422 11.422 0 0 0 5.145-4.147 11.116 11.116 0 0 0 1.932-6.255c0-2.986-1.208-5.85-3.358-7.96a11.57 11.57 0 0 0-8.106-3.298z"/></g><g><path fill="#91a3a8" d="M186.29 337.79c3.909 0 7.658 1.525 10.422 4.24a14.345 14.345 0 0 1 4.317 10.235v230.794H186.29z"/></g><g><path fill="#a01d29" d="M516.84 128.78l54.297 122.16s8.803 24.865-14.436 39.774l10.53-3.755s22.223-15.786 7.37-50.429c-14.854-34.644-49.319-106.214-49.319-106.214z"/></g><g><path fill="#fff" d="M445.86 129.51l13.92 114.191.82 15.279s-4.275 24.817 16.695 29.698l8.688 3.273s21.29 1.608 29.478-14.475c8.188-16.083 4.094-26.538 4.094-26.538l-33.572-120.624z"/></g><g><path fill="#c8d3d9" d="M514.609 277.476c-6.109 9.891-18.326 16.292-29.864 14.065 4.914.957 12.005-2.735 15.796-5.485 5.175-3.747 8.049-8.693 10.162-14.555 5.306-14.7-1.18-30.349-5.126-44.88l-11.464-42.251-14.682-54.056-34.391-.675v-.129l40.123.804 17.065 61.31 10.8 38.816c4.234 15.207 10.645 30.936 2.162 46.023-.188.329-.385.667-.581 1.013z"/></g><g><path fill="#a01d29" d="M589.15 129.51l101.536 123.841s13.511 31.258-21.085 38.141c0 0 30.911 3.675 30.092-37.337l-2.456-8.041L594.882 129.51z"/></g><g><path fill="#000201" d="M186.367 587.084a2.066 2.066 0 0 1-1.447-.588 1.995 1.995 0 0 1-.6-1.422V292.64c0-.533.216-1.044.6-1.421a2.066 2.066 0 0 1 1.447-.589c.543 0 1.064.212 1.448.589.384.377.6.888.6 1.421v292.434c0 .533-.216 1.044-.6 1.422a2.066 2.066 0 0 1-1.448.588z"/></g><g><path fill="#fff" d="M300.51 128.31l-79.427 118.212v12.062s-4.913 31.363 26.203 33.775c31.116 2.413 34.104-26.465 34.104-26.465l-.532-13.743 1.638-8.846 53.224-114.19z"/></g><g><path fill="#91a3a8" d="M210.846 383.63h-9.826v78.004h9.826z"/></g><g><path fill="#fff" d="M372.982 128.704l-31.934 117.408-1.638 11.258s.491 29.046 22.354 33.421 31.19-7.157 33.483-11.041c2.292-3.884 4.757-23.184 4.757-23.184L413.105 127.9z"/></g><g><path fill="#fff" d="M522.83 130.314l55.68 114.995 1.639 21.52s1.72 25.926 25.834 25.122c24.115-.804 33.245-23.49 33.245-23.49l-.123-15.11-79.427-123.841z"/></g><g><path fill="#c8d3d9" d="M553.2 130.661l72.795 111.779a41.87 41.87 0 0 1 6.257 15.46 41.556 41.556 0 0 1-.296 16.634c-1.441 6.232-4.406 12.022-10.187 14.58 0 0 22.248-6.04 17.68-35.384-1.598-10.229-15.313-26.65-27.366-45.435-23.747-36.991-52.824-79.845-52.824-79.845z"/></g><g><path fill="#a01d29" d="M441.409 127.9l11.815 122.233s4.651 38.961-25.924 40.795c0 0 34.972 5.886 33.728-38.761-1.245-44.647-15.173-123.463-15.173-123.463z"/></g><g><path fill="#c8d3d9" d="M405.737 129.507l-14.74 115.8s9.827 26.537-15.557 45.837l15.558-6.433 8.188-17.692s13.92-136.707 12.283-137.512c-1.638-.804-5.732 0-5.732 0z"/></g><g><path fill="#a01d29" d="M366.431 128.71L332.86 250.138s9.007 27.342-15.689 41.865c0 0 28.79-8.894 22.665-39.187 0 0 36.422-122.498 34.785-123.302-1.638-.804-8.189-.804-8.189-.804z"/></g><g><path fill="#c8d3d9" d="M329.58 129.511l-57.319 119.82s14.6 26.393-17.261 42.95c0 0 29.544-5.958 25.45-39.733l56.5-123.841-7.64-.547z"/></g><g><path fill="#a01d29" d="M292.323 128.47l-79.837 119.249s4.094 37.796-23.746 45.033c0 0 36.848-3.216 31.935-40.208l78.608-123.037z"/></g><g><path fill="#000201" d="M430.115 294.361c-8.406 0-16.474-3.254-22.452-9.057-5.979-5.804-9.386-13.688-9.483-21.943v-11.62c0-.534.216-1.045.6-1.422a2.066 2.066 0 0 1 1.447-.589c.543 0 1.064.212 1.448.589.384.377.6.888.6 1.421v11.596c.087 7.252 3.105 14.172 8.388 19.238 5.283 5.067 12.4 7.865 19.783 7.778 7.384-.086 14.43-3.05 19.59-8.238 5.158-5.189 8.007-12.178 7.92-19.429V251.74c0-.533.215-1.044.599-1.421a2.066 2.066 0 0 1 1.447-.589c.543 0 1.064.212 1.448.589.384.377.6.888.6 1.421v10.92c.091 8.313-3.181 16.321-9.099 22.266-5.917 5.944-13.996 9.337-22.46 9.435z"/></g><g><path fill="#000201" d="M489.895 294.361c-8.406 0-16.474-3.254-22.452-9.057-5.979-5.804-9.386-13.688-9.483-21.943v-11.62c0-.534.216-1.045.6-1.422a2.066 2.066 0 0 1 1.447-.589c.543 0 1.064.212 1.448.589.384.377.6.888.6 1.421v11.596c.043 3.591.806 7.138 2.245 10.439a27.331 27.331 0 0 0 6.143 8.8 27.897 27.897 0 0 0 9.104 5.82 28.29 28.29 0 0 0 10.68 1.957 28.279 28.279 0 0 0 10.628-2.206 27.867 27.867 0 0 0 8.96-6.032 27.3 27.3 0 0 0 5.928-8.941 26.913 26.913 0 0 0 1.992-10.488V251.74c0-.533.216-1.044.6-1.421a2.066 2.066 0 0 1 1.447-.589c.543 0 1.064.212 1.448.589.384.377.6.888.6 1.421v10.92c.091 8.313-3.181 16.321-9.099 22.266-5.917 5.944-13.996 9.337-22.46 9.435z"/></g><g><path fill="#000201" d="M549.665 294.361c-8.407 0-16.474-3.254-22.452-9.057-5.979-5.804-9.386-13.688-9.483-21.943v-11.62c0-.534.216-1.045.6-1.422a2.066 2.066 0 0 1 1.447-.589c.543 0 1.064.212 1.448.589.383.377.6.888.6 1.421v11.596c.087 7.252 3.105 14.172 8.388 19.238 5.283 5.067 12.4 7.865 19.783 7.778 7.384-.086 14.43-3.05 19.59-8.238 5.158-5.189 8.007-12.178 7.92-19.429V251.74c0-.533.215-1.044.599-1.421a2.066 2.066 0 0 1 1.447-.589c.543 0 1.064.212 1.448.589.384.377.6.888.6 1.421v10.92c.091 8.313-3.181 16.321-9.099 22.266-5.917 5.944-13.996 9.337-22.46 9.435z"/></g><g><path fill="#000201" d="M609.445 294.361c-8.407 0-16.474-3.254-22.452-9.057-5.979-5.804-9.386-13.688-9.483-21.943v-11.62c0-.534.216-1.045.6-1.422a2.066 2.066 0 0 1 1.447-.589c.543 0 1.064.212 1.448.589.383.377.6.888.6 1.421v11.596c.043 3.591.806 7.138 2.245 10.439a27.331 27.331 0 0 0 6.143 8.8 27.897 27.897 0 0 0 9.104 5.82c3.394 1.335 7.023 2 10.68 1.957a28.279 28.279 0 0 0 10.628-2.206 27.865 27.865 0 0 0 8.96-6.032 27.3 27.3 0 0 0 5.928-8.941 26.913 26.913 0 0 0 1.992-10.488V251.74c0-.533.216-1.044.6-1.421a2.066 2.066 0 0 1 1.447-.589c.543 0 1.064.212 1.448.589.384.377.6.888.6 1.421v10.92c.091 8.313-3.181 16.321-9.099 22.266-5.917 5.944-13.996 9.337-22.46 9.435z"/></g><g><path fill="#000201" d="M669.215 294.361c-8.407 0-16.474-3.254-22.452-9.057-5.979-5.804-9.386-13.688-9.483-21.943v-11.62c0-.534.216-1.045.6-1.422a2.066 2.066 0 0 1 1.447-.589c.543 0 1.064.212 1.448.589.383.377.6.888.6 1.421v11.596c.087 7.252 3.105 14.172 8.388 19.238 5.283 5.067 12.4 7.865 19.783 7.778 7.384-.086 14.43-3.05 19.59-8.238 5.158-5.189 8.007-12.178 7.92-19.429V251.74c0-.533.215-1.044.599-1.421a2.066 2.066 0 0 1 1.447-.589c.543 0 1.064.212 1.448.589.384.377.6.888.6 1.421v10.92c.091 8.313-3.181 16.321-9.099 22.266-5.917 5.944-13.996 9.337-22.46 9.435z"/></g><g><path fill="#000201" d="M370.345 294.361c-8.407 0-16.474-3.254-22.452-9.057-5.979-5.804-9.386-13.688-9.483-21.943v-11.62c0-.534.216-1.045.6-1.422a2.066 2.066 0 0 1 1.447-.589c.543 0 1.064.212 1.448.589.384.377.6.888.6 1.421v11.596c.087 7.252 3.105 14.172 8.388 19.238 5.283 5.067 12.4 7.865 19.783 7.778 7.384-.086 14.43-3.05 19.59-8.238 5.158-5.189 8.007-12.178 7.92-19.429V251.74c0-.533.215-1.044.599-1.421a2.066 2.066 0 0 1 1.447-.589c.543 0 1.064.212 1.448.589.384.377.6.888.6 1.421v10.92c.091 8.313-3.181 16.321-9.099 22.266-5.917 5.944-13.996 9.337-22.46 9.435z"/></g><g><path fill="#000201" d="M310.565 294.361c-8.406 0-16.474-3.254-22.452-9.057-5.979-5.804-9.386-13.688-9.483-21.943v-11.62c0-.534.216-1.045.6-1.422a2.066 2.066 0 0 1 1.447-.589c.543 0 1.064.212 1.448.589.384.377.6.888.6 1.421v11.596c.087 7.252 3.105 14.172 8.388 19.238 5.283 5.067 12.4 7.865 19.783 7.778 7.384-.086 14.43-3.05 19.59-8.238 5.158-5.189 8.007-12.178 7.92-19.429V251.74c0-.533.215-1.044.599-1.421a2.066 2.066 0 0 1 1.447-.589c.543 0 1.064.212 1.448.589.384.377.6.888.6 1.421v10.92c.091 8.313-3.181 16.321-9.099 22.266-5.917 5.944-13.996 9.337-22.46 9.435z"/></g><g><path fill="#000201" d="M250.795 294.361c-8.406 0-16.474-3.254-22.452-9.057-5.979-5.804-9.386-13.688-9.483-21.943v-11.62c0-.534.216-1.045.6-1.422a2.066 2.066 0 0 1 1.447-.589c.543 0 1.064.212 1.448.589.384.377.6.888.6 1.421v11.596c.087 7.252 3.105 14.172 8.388 19.238 5.283 5.067 12.4 7.865 19.783 7.778 7.384-.086 14.43-3.05 19.59-8.238 5.158-5.189 8.007-12.178 7.92-19.429V251.74c0-.533.215-1.044.599-1.421a2.066 2.066 0 0 1 1.447-.589c.543 0 1.064.212 1.448.589.384.377.6.888.6 1.421v10.92c.091 8.313-3.181 16.321-9.099 22.266-5.917 5.944-13.996 9.337-22.46 9.435z"/></g><g><path fill="#000201" d="M191.015 294.361c-8.406 0-16.474-3.254-22.452-9.057-5.979-5.804-9.386-13.688-9.483-21.943v-11.62c0-.534.216-1.045.6-1.422a2.066 2.066 0 0 1 1.447-.589c.543 0 1.064.212 1.448.589.384.377.6.888.6 1.421v11.596c.087 7.252 3.105 14.172 8.388 19.238 5.283 5.067 12.4 7.865 19.783 7.778 7.384-.086 14.43-3.05 19.59-8.238 5.158-5.189 8.007-12.178 7.92-19.429V251.74c0-.533.215-1.044.599-1.421a2.066 2.066 0 0 1 1.447-.589c.543 0 1.064.212 1.448.589.384.377.6.888.6 1.421v10.92c.091 8.313-3.181 16.321-9.099 22.266-5.917 5.944-13.996 9.337-22.46 9.435z"/></g><g><path fill="#000201" d="M400.41 247.727h-.213a2.065 2.065 0 0 1-1.378-.736 1.992 1.992 0 0 1-.448-1.475l12.282-116.604a1.996 1.996 0 0 1 .75-1.36 2.07 2.07 0 0 1 1.51-.441 2.085 2.085 0 0 1 1.385.737 2.01 2.01 0 0 1 .45 1.482l-12.283 116.604a2.008 2.008 0 0 1-.678 1.284c-.38.331-.87.512-1.378.509z"/></g><g><path fill="#000201" d="M452.003 177.361a2.077 2.077 0 0 1-1.37-.518 2.007 2.007 0 0 1-.669-1.283l-4.913-46.24a1.987 1.987 0 0 1 .45-1.482c.17-.207.38-.378.617-.504a2.085 2.085 0 0 1 2.277.208c.21.167.384.373.513.607.129.233.21.49.237.753l4.913 46.24a1.993 1.993 0 0 1-.448 1.475 2.065 2.065 0 0 1-1.378.736z"/></g><g><path fill="#000201" d="M454.612 202.594a2.068 2.068 0 0 1-1.367-.519 1.998 1.998 0 0 1-.664-1.282l-1.4-13.173a1.987 1.987 0 0 1 .45-1.482c.17-.207.38-.378.617-.504a2.085 2.085 0 0 1 2.277.208 1.995 1.995 0 0 1 .75 1.36l1.384 13.172a1.976 1.976 0 0 1-.446 1.478c-.17.206-.379.376-.615.502a2.074 2.074 0 0 1-.765.232z"/></g><g><path fill="#000201" d="M459.37 247.725a2.077 2.077 0 0 1-1.37-.518 2.006 2.006 0 0 1-.669-1.283l-2.8-26.658a1.986 1.986 0 0 1 .452-1.482 2.085 2.085 0 0 1 2.895-.29c.209.168.383.374.511.608.128.234.208.49.236.754l2.808 26.65a1.994 1.994 0 0 1-.448 1.475 2.066 2.066 0 0 1-1.378.736z"/></g><g><path fill="#000201" d="M518.324 249.335a2.077 2.077 0 0 1-1.248-.418 2.016 2.016 0 0 1-.733-1.077l-31.935-118.212a1.982 1.982 0 0 1 .21-1.527 2.046 2.046 0 0 1 1.248-.934 2.082 2.082 0 0 1 1.554.206c.47.268.812.71.951 1.225l31.935 118.212a1.988 1.988 0 0 1-.212 1.526c-.273.461-.72.797-1.246.935a2.312 2.312 0 0 1-.524.064z"/></g><g><path fill="#000201" d="M578.916 249.334c-.392 0-.776-.11-1.105-.318a2.02 2.02 0 0 1-.754-.856l-54.862-118.212a1.978 1.978 0 0 1-.056-1.539c.19-.5.574-.905 1.068-1.127a2.083 2.083 0 0 1 1.566-.055c.51.186.922.563 1.148 1.048l54.862 118.212c.225.485.244 1.038.054 1.537-.19.5-.575.904-1.07 1.125a2.016 2.016 0 0 1-.85.185z"/></g><g><path fill="#000201" d="M281.684 249.334a2.027 2.027 0 0 1-.82-.185 2.036 2.036 0 0 1-.647-.458 1.975 1.975 0 0 1-.36-2.204l54.863-118.212a2.034 2.034 0 0 1 1.147-1.048 2.083 2.083 0 0 1 1.567.055c.494.222.878.627 1.068 1.127.19.5.17 1.054-.057 1.539L283.583 248.16a2.018 2.018 0 0 1-.771.865c-.338.209-.73.316-1.128.309z"/></g><g><path fill="#000201" d="M274.388 170.12a2.067 2.067 0 0 1-1.049-.28 2.02 2.02 0 0 1-.753-.769 1.973 1.973 0 0 1 .09-2.055l25.31-38.197c.141-.234.328-.437.55-.598a2.064 2.064 0 0 1 1.565-.361c.272.046.532.146.763.294.232.148.43.34.585.565a1.99 1.99 0 0 1 .3 1.55 1.994 1.994 0 0 1-.331.737l-25.31 38.198c-.186.282-.44.514-.741.674-.3.16-.637.243-.98.242z"/></g><g><path fill="#000201" d="M257.228 196.01a2.067 2.067 0 0 1-1.049-.28 2.018 2.018 0 0 1-.753-.769 1.973 1.973 0 0 1 .09-2.055l10.645-16.083c.297-.447.762-.76 1.293-.87a2.078 2.078 0 0 1 1.54.283c.455.291.774.748.886 1.27a1.98 1.98 0 0 1-.288 1.512l-10.645 16.084c-.186.28-.441.51-.742.67-.3.158-.636.24-.977.238z"/></g><g><path fill="#000201" d="M221.908 249.337a2.067 2.067 0 0 1-1.049-.28 2.019 2.019 0 0 1-.753-.77 1.974 1.974 0 0 1 .09-2.054l28.897-43.618a2.05 2.05 0 0 1 1.285-.81 2.078 2.078 0 0 1 1.498.29c.442.281.757.72.878 1.225a1.98 1.98 0 0 1-.23 1.482l-28.897 43.618c-.185.282-.44.514-.74.674-.3.16-.637.244-.98.243z"/></g><g><path fill="#000201" d="M637.87 249.33a2.056 2.056 0 0 1-.975-.243 2.019 2.019 0 0 1-.736-.673l-77.79-117.408a1.993 1.993 0 0 1-.343-1.542 1.99 1.99 0 0 1 .312-.745 2.03 2.03 0 0 1 .584-.565 2.069 2.069 0 0 1 1.584-.27c.269.061.522.176.744.337.223.16.41.364.55.598l77.79 117.407a1.988 1.988 0 0 1 .08 2.055 2.028 2.028 0 0 1-.753.768 2.075 2.075 0 0 1-1.047.281z"/></g><g><path fill="#000201" d="M697.648 249.329a2.047 2.047 0 0 1-1.556-.708L593.738 130.41a1.978 1.978 0 0 1-.345-2.27c.122-.246.295-.463.506-.64a2.058 2.058 0 0 1 1.541-.47c.276.03.543.113.786.245.242.133.454.313.623.53l102.355 118.211a1.987 1.987 0 0 1 .3 2.145 2.03 2.03 0 0 1-.754.85 2.079 2.079 0 0 1-1.102.318z"/></g><g><path fill="#000201" d="M163.764 249.336a2.07 2.07 0 0 1-1.102-.318 2.022 2.022 0 0 1-.754-.85 1.981 1.981 0 0 1 .3-2.145l102.355-118.212a2.07 2.07 0 0 1 2.817-.15 1.98 1.98 0 0 1 .294 2.756L165.32 248.628a2.044 2.044 0 0 1-1.556.708z"/></g><g><path fill="#000201" d="M354.34 201.665a2.062 2.062 0 0 1-1.243-.409 2.022 2.022 0 0 1-.53-.59 1.987 1.987 0 0 1-.208-1.527l19.054-70.54c.069-.256.188-.496.351-.706a2.075 2.075 0 0 1 3.402.208 1.99 1.99 0 0 1 .21 1.527l-19.062 70.54a2 2 0 0 1-.727 1.08c-.357.27-.796.417-1.247.416z"/></g><g><path fill="#000201" d="M341.458 249.327a2.335 2.335 0 0 1-.524-.064 2.051 2.051 0 0 1-1.245-.935 1.987 1.987 0 0 1-.212-1.526l8.794-32.536c.061-.263.175-.512.336-.731.16-.22.365-.404.6-.544a2.071 2.071 0 0 1 1.585-.224c.266.07.515.19.732.356.217.166.398.373.532.609a1.987 1.987 0 0 1 .17 1.563l-8.786 32.537a2.017 2.017 0 0 1-.733 1.077 2.08 2.08 0 0 1-1.249.418z"/></g><g><path fill="#000201" d="M595.29 131.12H266.117a2.066 2.066 0 0 1-1.447-.588 1.992 1.992 0 0 1-.6-1.422c0-.533.216-1.044.6-1.421a2.066 2.066 0 0 1 1.447-.589H595.29c.543 0 1.063.212 1.447.589.384.377.6.888.6 1.421 0 .534-.216 1.045-.6 1.422a2.065 2.065 0 0 1-1.447.589z"/></g><g><path fill="#000201" d="M246.466 152.836a2.458 2.458 0 0 1-.418-.04c-27.022-5.565-41.155-22.38-48.311-35.504a79.295 79.295 0 0 1-9.008-27.39 1.985 1.985 0 0 1 .461-1.477 2.084 2.084 0 0 1 2.895-.273 1.993 1.993 0 0 1 .739 1.365 76.55 76.55 0 0 0 8.606 26.014c9.76 17.917 25.04 29.127 45.42 33.325.496.098.937.374 1.238.773a1.985 1.985 0 0 1-.259 2.677 2.067 2.067 0 0 1-1.363.53z"/></g><g><path fill="#000201" d="M665.717 501.037a2.066 2.066 0 0 1-1.447-.589 1.992 1.992 0 0 1-.6-1.422V292.3c0-.533.216-1.044.6-1.421a2.066 2.066 0 0 1 1.447-.589c.543 0 1.064.212 1.448.589.384.377.6.888.6 1.421v206.726c0 .534-.216 1.045-.6 1.422a2.066 2.066 0 0 1-1.448.589z"/></g><g><path fill="#d9e1e4" d="M365.2 585.065V499.02h312.796v86.954"/></g><g><path fill="#b4bec1" d="M676.768 499.43v84.437l-8.188-.04V499.43z"/></g><g><path fill="#f9f9f9" d="M371.34 499.43v88.16l-7.37-.04v-88.12z"/></g><g><path fill="#f9f9f9" d="M421.704 500.63v86.954l-2.104-.04V500.63z"/></g><g><path fill="#f9f9f9" d="M415.095 500.63v86.954l-5.265-.04V500.63z"/></g><g><path fill="#000201" d="M364.323 572.608H212.077a2.066 2.066 0 0 1-1.447-.589 1.992 1.992 0 0 1-.6-1.422V347.04c0-.533.216-1.044.6-1.421a2.066 2.066 0 0 1 1.447-.589h225.18c.543 0 1.064.212 1.448.589.384.377.599.888.599 1.421V499.43c0 .533-.215 1.045-.599 1.422a2.068 2.068 0 0 1-1.448.589 2.065 2.065 0 0 1-1.447-.589 1.994 1.994 0 0 1-.6-1.422V349.051H214.124v219.536h150.199c.543 0 1.064.212 1.448.589.384.377.6.888.6 1.421 0 .534-.216 1.045-.6 1.422a2.068 2.068 0 0 1-1.448.589z"/></g><g><path fill="#000201" d="M381.534 391.503a15.342 15.342 0 0 1-5.73-6.857 15.025 15.025 0 0 1-.885-8.828 15.196 15.196 0 0 1 4.258-7.823 15.648 15.648 0 0 1 7.966-4.181 15.822 15.822 0 0 1 8.989.87 15.5 15.5 0 0 1 6.982 5.626 15.085 15.085 0 0 1 2.622 8.49c0 4.051-1.64 7.938-4.557 10.803a15.703 15.703 0 0 1-11.001 4.475 15.76 15.76 0 0 1-8.644-2.575zm8.644-23.962c-2.267 0-4.484.66-6.369 1.897a11.305 11.305 0 0 0-4.222 5.053 11.071 11.071 0 0 0-.653 6.505 11.197 11.197 0 0 0 3.138 5.764 11.53 11.53 0 0 0 5.87 3.081c2.223.434 4.528.211 6.623-.64a11.42 11.42 0 0 0 5.145-4.147 11.115 11.115 0 0 0 1.932-6.255c0-2.986-1.208-5.85-3.358-7.96a11.57 11.57 0 0 0-8.106-3.298z"/></g><g><path fill="#000201" d="M390.157 367.541a2.066 2.066 0 0 1-1.447-.588 1.992 1.992 0 0 1-.6-1.422v-17.12c0-.534.216-1.045.6-1.422a2.066 2.066 0 0 1 1.447-.589c.543 0 1.064.212 1.448.589.383.377.6.888.6 1.421v17.121c0 .533-.217 1.045-.6 1.422a2.066 2.066 0 0 1-1.448.588z"/></g><g><path fill="#000201" d="M237.875 327.212h-50.547a1.24 1.24 0 0 1-.868-.353 1.195 1.195 0 0 1-.36-.853c0-.32.13-.626.36-.853a1.24 1.24 0 0 1 .868-.353h50.547c.326 0 .638.127.869.353.23.227.36.533.36.853 0 .32-.13.627-.36.853a1.24 1.24 0 0 1-.869.353z"/></g><g><path fill="#000201" d="M211.451 317.682h-24.123a1.24 1.24 0 0 1-.868-.353 1.195 1.195 0 0 1-.36-.853c0-.32.13-.626.36-.853a1.24 1.24 0 0 1 .868-.353h24.123c.326 0 .638.127.869.353.23.227.36.533.36.853 0 .32-.13.627-.36.853a1.24 1.24 0 0 1-.869.353z"/></g><g><path fill="#000201" d="M222.485 317.682h-3.407a1.24 1.24 0 0 1-.868-.353 1.195 1.195 0 0 1-.36-.853c0-.32.13-.626.36-.853a1.24 1.24 0 0 1 .868-.353h3.407c.325 0 .638.127.868.353.23.227.36.533.36.853 0 .32-.13.627-.36.853a1.24 1.24 0 0 1-.868.353z"/></g><g><path fill="#000201" d="M422.109 308.642h-40.72a1.24 1.24 0 0 1-.87-.353 1.195 1.195 0 0 1-.359-.853c0-.32.13-.626.36-.853a1.24 1.24 0 0 1 .868-.353h40.721c.326 0 .638.127.869.353.23.226.36.533.36.853 0 .32-.13.627-.36.853a1.24 1.24 0 0 1-.869.353z"/></g><g><path fill="#000201" d="M422.113 317.682h-11.055a1.24 1.24 0 0 1-.868-.353 1.195 1.195 0 0 1-.36-.853c0-.32.13-.626.36-.853a1.24 1.24 0 0 1 .868-.353h11.054c.326 0 .639.127.87.353a1.196 1.196 0 0 1 0 1.706 1.24 1.24 0 0 1-.87.353z"/></g><g><path fill="#000201" d="M403.47 317.682h-7.272a1.24 1.24 0 0 1-.868-.353 1.195 1.195 0 0 1-.36-.853c0-.32.13-.626.36-.853a1.24 1.24 0 0 1 .868-.353h7.271c.326 0 .639.127.869.353.23.227.36.533.36.853 0 .32-.13.627-.36.853a1.24 1.24 0 0 1-.869.353z"/></g><g><path fill="#000201" d="M400.408 555.92H364.6v2.412h35.808z"/></g><g><path fill="#000201" d="M457.726 545.46H364.6v2.412h93.126z"/></g><g><path fill="#000201" d="M480.653 545.46H469.41v2.412h11.243z"/></g><g><path fill="#c15606" d="M327.948 567.778l-4.078-.804V349.85h4.078z"/></g><g><path fill="#000201" d="M321.894 399.71H213.717a2.066 2.066 0 0 1-1.447-.588 1.992 1.992 0 0 1-.6-1.422c0-.533.216-1.044.6-1.421a2.066 2.066 0 0 1 1.447-.589h108.177c.543 0 1.063.212 1.447.589.384.377.6.888.6 1.421 0 .534-.216 1.045-.6 1.422a2.065 2.065 0 0 1-1.447.589z"/></g><g><path fill="#000201" d="M322.707 572.681a2.047 2.047 0 0 1-1.45-.587 1.976 1.976 0 0 1-.597-1.424v-223.3c0-.533.216-1.044.6-1.421a2.066 2.066 0 0 1 1.447-.589c.543 0 1.064.212 1.448.589.384.377.6.888.6 1.421v223.3c0 .533-.216 1.045-.6 1.422a2.066 2.066 0 0 1-1.448.589z"/></g><g><path fill="#f9f9f9" d="M388.31 579.822c3.023-2.418 3.562-6.681 1.206-9.522-2.357-2.84-6.717-3.183-9.74-.765-3.021 2.418-3.561 6.681-1.204 9.522 2.356 2.84 6.716 3.183 9.739.765z"/></g><g><path fill="#f9f9f9" d="M374.213 574.764c1.314-1.052 1.426-3.054.25-4.473-1.178-1.419-3.197-1.716-4.512-.664-1.315 1.052-1.427 3.055-.25 4.474 1.177 1.418 3.197 1.715 4.512.663z"/></g><g><path fill="#f9f9f9" d="M389.659 564.74c.789-.632.86-1.827.16-2.671-.699-.844-1.906-1.016-2.695-.385-.788.632-.86 1.827-.16 2.67.699.844 1.906 1.016 2.695.385z"/></g><g><path fill="#b4bec1" d="M648.396 516.794c.866-3.564-1.509-7.174-5.305-8.064-3.796-.89-7.576 1.277-8.442 4.84-.867 3.564 1.508 7.175 5.304 8.065 3.796.89 7.576-1.277 8.443-4.84z"/></g><g><path fill="#b4bec1" d="M649.766 526.738c.434-1.784-.552-3.544-2.201-3.931-1.65-.387-3.339.746-3.773 2.53-.433 1.784.552 3.544 2.202 3.93 1.65.388 3.338-.745 3.772-2.53z"/></g><g><path fill="#b4bec1" d="M631.398 519.184c.257-1.059-.337-2.105-1.326-2.337-.99-.232-2.001.438-2.258 1.496-.258 1.059.336 2.105 1.326 2.337.99.232 2-.438 2.258-1.496z"/></g><g><path fill="#000201" d="M664.08 324.123h-68.782a1.24 1.24 0 0 1-.868-.354 1.195 1.195 0 0 1-.36-.853c0-.32.13-.626.36-.853a1.24 1.24 0 0 1 .868-.353h68.783c.325 0 .638.127.868.353.23.227.36.533.36.853 0 .32-.13.627-.36.853a1.24 1.24 0 0 1-.868.354z"/></g><g><path fill="#000201" d="M376.433 529.118a1.215 1.215 0 0 1-.819-.33 1.194 1.194 0 0 1-.05-1.705l16.837-17.562a1.244 1.244 0 0 1 1.74-.052 1.197 1.197 0 0 1 .053 1.709L377.35 528.74a1.238 1.238 0 0 1-.917.378z"/></g><g><path fill="#000201" d="M382.128 529.747c-.241 0-.477-.07-.678-.2-.2-.13-.358-.316-.452-.534a1.186 1.186 0 0 1 .245-1.308l9.343-9.49a1.227 1.227 0 0 1 .868-.394 1.248 1.248 0 0 1 .894.336 1.206 1.206 0 0 1 .376.864 1.189 1.189 0 0 1-.37.867l-9.326 9.49a1.196 1.196 0 0 1-.9.37z"/></g><g><path fill="#000201" d="M358.514 185.748c-.292.001-.574-.1-.797-.284a1.188 1.188 0 0 1-.263-1.54c.15-.246.383-.432.659-.524l23.205-7.921a1.25 1.25 0 0 1 1.324.33 1.203 1.203 0 0 1 .313.872 1.192 1.192 0 0 1-.406.833c-.12.106-.26.188-.412.24l-23.197 7.922c-.137.049-.281.073-.426.072z"/></g><g><path fill="#000201" d="M362.45 191.307a1.25 1.25 0 0 1-.784-.297 1.196 1.196 0 0 1-.256-1.532c.146-.245.375-.431.647-.527l12.74-4.174a1.249 1.249 0 0 1 1.374.314 1.201 1.201 0 0 1 .309.907 1.192 1.192 0 0 1-.46.843 1.238 1.238 0 0 1-.444.22l-12.733 4.182a1.34 1.34 0 0 1-.393.064z"/></g><g><path fill="#000201" d="M751.69 255.77c-.164 0-.325-.033-.475-.096a1.223 1.223 0 0 1-.678-.667 1.18 1.18 0 0 1 .023-.942l6.706-15.576a1.22 1.22 0 0 1 .67-.65c.303-.12.642-.118.943.006.3.125.539.362.662.66.123.296.12.63-.007.924L752.82 255c-.088.225-.242.419-.444.557-.201.137-.44.212-.686.214z"/></g><g><path fill="#000201" d="M759.73 248.533c-.164 0-.325-.033-.475-.097a1.222 1.222 0 0 1-.678-.667 1.179 1.179 0 0 1 .023-.941l3.586-8.34a1.22 1.22 0 0 1 .671-.65c.303-.12.642-.117.942.007.301.125.54.362.662.66.123.296.12.63-.007.924l-3.594 8.332c-.088.225-.242.42-.444.557-.201.138-.44.213-.686.215z"/></g><g><path fill="#000201" d="M361.292 265.194c-.2 0-.397-.05-.573-.145l-18.49-9.513a1.225 1.225 0 0 1-.603-.708 1.186 1.186 0 0 1 .384-1.287 1.236 1.236 0 0 1 .898-.276c.16.014.317.059.46.132l18.49 9.522c.284.147.498.398.596.699.098.3.072.627-.073.909a1.222 1.222 0 0 1-.45.483 1.253 1.253 0 0 1-.639.184z"/></g><g><path fill="#000201" d="M350.403 265.357c-.2.003-.397-.044-.573-.137l-8.188-4.238a1.212 1.212 0 0 1-.598-.713 1.188 1.188 0 0 1 .09-.919c.153-.283.414-.494.726-.587a1.25 1.25 0 0 1 .936.088l8.14 4.238c.24.127.43.33.54.574.11.245.134.519.068.778-.065.26-.217.491-.431.657a1.242 1.242 0 0 1-.75.26z"/></g><g><path fill="#000201" d="M573.044 233.998c-.292.001-.574-.1-.797-.284a1.188 1.188 0 0 1-.263-1.54c.15-.246.383-.432.659-.524l23.205-7.921a1.25 1.25 0 0 1 1.324.33 1.203 1.203 0 0 1 .313.872 1.19 1.19 0 0 1-.406.833c-.12.106-.26.188-.412.24l-23.197 7.922c-.137.049-.281.073-.426.072z"/></g><g><path fill="#000201" d="M577.8 240.357a1.25 1.25 0 0 1-.784-.297 1.196 1.196 0 0 1-.256-1.532c.146-.245.375-.431.647-.527l12.74-4.174a1.249 1.249 0 0 1 1.374.314 1.201 1.201 0 0 1 .309.907 1.191 1.191 0 0 1-.46.843 1.238 1.238 0 0 1-.444.22l-12.733 4.182a1.34 1.34 0 0 1-.393.064z"/></g><g><path fill="#000201" d="M617.408 382.825c-.241 0-.477-.07-.678-.2-.2-.131-.358-.317-.452-.535a1.186 1.186 0 0 1 .245-1.308l13.33-13.606a1.228 1.228 0 0 1 .87-.395 1.248 1.248 0 0 1 .892.336 1.207 1.207 0 0 1 .377.864 1.187 1.187 0 0 1-.37.867l-13.33 13.607a1.213 1.213 0 0 1-.885.37z"/></g><g><path fill="#000201" d="M611.668 397.295c-.241 0-.477-.07-.678-.2-.2-.13-.358-.316-.452-.534a1.187 1.187 0 0 1 .245-1.308l18.899-19.38a1.243 1.243 0 0 1 1.74-.036c.236.22.372.526.379.846.007.32-.116.63-.342.862l-18.89 19.38a1.23 1.23 0 0 1-.901.37z"/></g><g><path fill="#536b77" d="M850.365 584.67H43.81v12.867h806.555z"/></g><g><path fill="#253b4a" d="M494.99 584.67h355.375v7.237H502.36a7.438 7.438 0 0 1-5.212-2.12 7.172 7.172 0 0 1-2.158-5.117z"/></g><g><path fill="#000201" d="M45.037 601.004a2.066 2.066 0 0 1-1.447-.589 1.992 1.992 0 0 1-.6-1.421V584.02c0-.533.216-1.044.6-1.421a2.066 2.066 0 0 1 1.447-.589h804.917c.543 0 1.064.212 1.447.589.384.377.6.888.6 1.421v14.974c0 .533-.216 1.044-.6 1.421a2.063 2.063 0 0 1-1.447.59zm2.047-4.02h800.823V586.03H47.084z"/></g><g><path fill="#b4bec1" d="M588.33 501.03h86.797v12.062h-74.514c-3.258 0-6.382-1.27-8.686-3.533a11.954 11.954 0 0 1-3.597-8.529z"/></g><g><path fill="#000201" d="M364.387 587.082a2.066 2.066 0 0 1-1.447-.589 1.992 1.992 0 0 1-.6-1.421V499.83c0-.533.216-1.044.6-1.421a2.066 2.066 0 0 1 1.447-.589h312.796c.543 0 1.063.212 1.447.589.384.377.6.888.6 1.421v84.534c0 .533-.216 1.044-.6 1.421a2.065 2.065 0 0 1-1.447.59 2.067 2.067 0 0 1-1.448-.59 1.991 1.991 0 0 1-.599-1.421V501.84H366.434v83.23c0 .534-.215 1.045-.6 1.422a2.066 2.066 0 0 1-1.447.589z"/></g><g><path fill="#a01d29" d="M449.95 248.527c3.619 0 6.551-2.88 6.551-6.434 0-3.553-2.932-6.433-6.55-6.433s-6.551 2.88-6.551 6.433 2.933 6.434 6.55 6.434z"/></g><g><path fill="#c8d3d9" d="M508.91 260.587c3.619 0 6.551-2.88 6.551-6.434 0-3.553-2.932-6.433-6.55-6.433s-6.551 2.88-6.551 6.433 2.933 6.434 6.55 6.434z"/></g><g><path fill="#c8d3d9" d="M481.48 185c3.844 0 6.96-3.06 6.96-6.835s-3.116-6.835-6.96-6.835-6.96 3.06-6.96 6.835c0 3.776 3.116 6.836 6.96 6.836z"/></g><g><path fill="#c8d3d9" d="M479.837 168.11c1.13 0 2.047-.9 2.047-2.01 0-1.11-.916-2.01-2.047-2.01-1.13 0-2.047.9-2.047 2.01 0 1.11.917 2.01 2.047 2.01z"/></g><g><path fill="#385666" d="M372.98 125.487c3.619 0 6.551-2.88 6.551-6.434 0-3.553-2.932-6.433-6.55-6.433s-6.551 2.88-6.551 6.433 2.933 6.434 6.55 6.434z"/></g><g><path fill="#385666" d="M361.927 115.845c1.13 0 2.047-1.08 2.047-2.413 0-1.332-.916-2.412-2.047-2.412-1.13 0-2.047 1.08-2.047 2.412 0 1.333.917 2.413 2.047 2.413z"/></g><g><path fill="#c8d3d9" d="M264.894 266.216c6.331 0 11.464-5.04 11.464-11.258 0-6.217-5.133-11.258-11.464-11.258-6.332 0-11.464 5.04-11.464 11.258 0 6.218 5.132 11.259 11.464 11.259z"/></g><g><path fill="#a01d29" d="M686.59 261.397c3.619 0 6.551-2.88 6.551-6.434 0-3.553-2.932-6.433-6.55-6.433s-6.551 2.88-6.551 6.433 2.933 6.434 6.55 6.434z"/></g><g><path fill="#a01d29" d="M677.177 248.53c1.13 0 2.047-.9 2.047-2.01 0-1.11-.916-2.01-2.047-2.01-1.13 0-2.047.9-2.047 2.01 0 1.11.917 2.01 2.047 2.01z"/></g><g><path fill="#c8d3d9" d="M499.077 244.505c1.356 0 2.456-1.08 2.456-2.413 0-1.332-1.1-2.412-2.456-2.412-1.357 0-2.457 1.08-2.457 2.412 0 1.333 1.1 2.413 2.457 2.413z"/></g><g><path fill="#a01d29" d="M441.767 235.665c1.356 0 2.456-1.08 2.456-2.413 0-1.332-1.1-2.412-2.456-2.412-1.357 0-2.457 1.08-2.457 2.412 0 1.333 1.1 2.413 2.457 2.413z"/></g><g><path fill="#c8d3d9" d="M255.064 241.292c2.261 0 4.094-1.8 4.094-4.021 0-2.22-1.833-4.021-4.094-4.021s-4.094 1.8-4.094 4.02c0 2.221 1.833 4.022 4.094 4.022z"/></g><g><path fill="#c45605" d="M263.255 509.88H252.61v38.6h10.645z"/></g><g><path fill="#000201" d="M698.466 251.34H162.537a2.066 2.066 0 0 1-1.447-.588 1.992 1.992 0 0 1-.6-1.422c0-.533.216-1.044.6-1.421a2.066 2.066 0 0 1 1.447-.589h535.929c.543 0 1.063.212 1.447.589.384.377.6.888.6 1.421 0 .534-.216 1.045-.6 1.422a2.065 2.065 0 0 1-1.447.589z"/></g><g><path fill="#c8d3d9" d="M490.482 166.1a7.788 7.788 0 0 0-3.364.763 7.647 7.647 0 0 0-2.683 2.134 7.475 7.475 0 0 0-1.458 3.074 7.404 7.404 0 0 0 .062 3.39l8.45 33.18a7.525 7.525 0 0 0 2.721 4.112 7.763 7.763 0 0 0 4.722 1.597h4.651z"/></g><g><path fill="#253b4a" d="M494.17 308.038c0 4.053 1.64 7.939 4.557 10.804a15.703 15.703 0 0 0 11 4.475h45.856c4.126 0 8.083-1.61 11-4.475a15.142 15.142 0 0 0 4.558-10.804v-1.608z"/></g><g><path fill="#000201" d="M289.868 115.846a1.24 1.24 0 0 1-.868-.354 1.195 1.195 0 0 1-.36-.852v-6.434c0-.32.13-.626.36-.853a1.24 1.24 0 0 1 .868-.353c.326 0 .638.127.869.353.23.227.36.533.36.853v6.434c0 .32-.13.626-.36.852a1.24 1.24 0 0 1-.869.354z"/></g><g><path fill="#000201" d="M296.418 123.083a1.24 1.24 0 0 1-.868-.353 1.195 1.195 0 0 1-.36-.853v-13.67c0-.32.13-.627.36-.854a1.24 1.24 0 0 1 .868-.353c.326 0 .638.127.869.353.23.227.36.533.36.853v13.671c0 .32-.13.627-.36.853a1.24 1.24 0 0 1-.869.353z"/></g><g><path fill="#000201" d="M133.468 17.733a1.24 1.24 0 0 1-.868-.353 1.195 1.195 0 0 1-.36-.853V2.857c0-.32.13-.627.36-.854a1.24 1.24 0 0 1 .868-.353c.326 0 .638.127.869.353.23.227.36.533.36.853v13.671c0 .32-.13.627-.36.853a1.24 1.24 0 0 1-.869.353z"/></g><g><path fill="#fff" d="M112.178 49.903a1.24 1.24 0 0 1-.868-.353 1.195 1.195 0 0 1-.36-.853v-13.67c0-.32.13-.627.36-.854a1.24 1.24 0 0 1 .868-.353c.326 0 .638.127.869.353.23.227.36.533.36.853v13.671c0 .32-.13.627-.36.853a1.24 1.24 0 0 1-.869.353z"/></g><g><path fill="#fff" d="M112.178 64.374a1.24 1.24 0 0 1-.868-.353 1.195 1.195 0 0 1-.36-.853v-8.042c0-.32.13-.626.36-.853a1.24 1.24 0 0 1 .868-.353c.326 0 .638.127.869.353.23.227.36.533.36.853v8.042c0 .32-.13.627-.36.853a1.24 1.24 0 0 1-.869.353z"/></g><g><path fill="#000201" d="M136.748 179.373a1.24 1.24 0 0 1-.868-.353 1.195 1.195 0 0 1-.36-.853v-13.67c0-.32.13-.627.36-.854a1.24 1.24 0 0 1 .868-.353c.326 0 .638.127.869.353.23.227.36.533.36.853v13.671c0 .32-.13.627-.36.853a1.24 1.24 0 0 1-.869.353z"/></g><g><path fill="#000201" d="M136.748 377.193a1.24 1.24 0 0 1-.868-.353 1.196 1.196 0 0 1-.36-.853v-13.67c0-.32.13-.627.36-.854a1.24 1.24 0 0 1 .868-.353c.326 0 .638.127.869.353.23.227.36.533.36.853v13.671c0 .32-.13.627-.36.853a1.24 1.24 0 0 1-.869.353z"/></g><g><path fill="#000201" d="M136.748 357.094a1.24 1.24 0 0 1-.868-.353 1.195 1.195 0 0 1-.36-.853v-8.042c0-.32.13-.626.36-.853a1.24 1.24 0 0 1 .868-.353c.326 0 .638.127.869.353.23.227.36.533.36.853v8.042c0 .32-.13.627-.36.853a1.24 1.24 0 0 1-.869.353z"/></g><g><path fill="#000201" d="M280.858 75.63a1.24 1.24 0 0 1-.868-.353 1.195 1.195 0 0 1-.36-.853v-7.238c0-.32.13-.626.36-.853a1.24 1.24 0 0 1 .868-.353c.326 0 .638.127.869.353.23.227.36.533.36.853v7.238c0 .32-.13.626-.36.853a1.24 1.24 0 0 1-.869.353z"/></g><g><path fill="#000201" d="M285.778 75.633a1.24 1.24 0 0 1-.868-.353 1.195 1.195 0 0 1-.36-.853v-13.67c0-.32.13-.627.36-.854a1.24 1.24 0 0 1 .868-.353c.326 0 .638.127.869.353.23.227.36.533.36.853v13.671c0 .32-.13.627-.36.853a1.24 1.24 0 0 1-.869.353z"/></g><g><path fill="#000201" d="M49.949 83.672h-13.92a1.24 1.24 0 0 1-.87-.353 1.195 1.195 0 0 1-.359-.853c0-.32.13-.626.36-.853a1.24 1.24 0 0 1 .868-.353h13.92c.326 0 .639.127.869.353.23.227.36.533.36.853 0 .32-.13.627-.36.853a1.24 1.24 0 0 1-.869.353z"/></g><g><path fill="#000201" d="M67.963 83.672H57.318a1.24 1.24 0 0 1-.868-.353 1.195 1.195 0 0 1-.36-.853c0-.32.13-.626.36-.853a1.24 1.24 0 0 1 .868-.353h10.645c.326 0 .638.127.869.353.23.227.36.533.36.853 0 .32-.13.627-.36.853a1.24 1.24 0 0 1-.869.353z"/></g><g><path fill="#000201" d="M133.468 516.313a1.24 1.24 0 0 1-.868-.353 1.195 1.195 0 0 1-.36-.853v-13.67c0-.32.13-.627.36-.854a1.24 1.24 0 0 1 .868-.353c.326 0 .638.127.869.353.23.227.36.533.36.853v13.671c0 .32-.13.627-.36.853a1.24 1.24 0 0 1-.869.353z"/></g><g><path fill="#000201" d="M345.138 301.202a1.24 1.24 0 0 1-.868-.354 1.195 1.195 0 0 1-.36-.853v-8.339c0-.32.13-.626.36-.853a1.24 1.24 0 0 1 .868-.353c.326 0 .638.127.869.353.23.227.36.533.36.853v8.34c0 .32-.13.626-.36.852a1.24 1.24 0 0 1-.869.354z"/></g><g><path fill="#000201" d="M334.902 296.778a1.264 1.264 0 0 1-.933-.418 1.2 1.2 0 0 1-.296-.88 1.19 1.19 0 0 1 .427-.825l3.684-3.112a1.247 1.247 0 0 1 .9-.3 1.26 1.26 0 0 1 .853.412 1.214 1.214 0 0 1 .305.884 1.202 1.202 0 0 1-.42.837l-3.685 3.112c-.232.196-.53.299-.835.29z"/></g><g><path fill="#000201" d="M355.786 296.778c-.299.003-.59-.1-.818-.29l-3.685-3.112a1.222 1.222 0 0 1-.42-.837 1.199 1.199 0 0 1 .305-.884 1.24 1.24 0 0 1 .853-.412 1.263 1.263 0 0 1 .9.3l3.684 3.112a1.21 1.21 0 0 1 .426.825 1.186 1.186 0 0 1-.295.88 1.243 1.243 0 0 1-.95.418z"/></g><g><path fill="#f9ab64" d="M574.001 449.567c3.392 0 6.142-3.78 6.142-8.443 0-4.664-2.75-8.444-6.142-8.444-3.391 0-6.141 3.78-6.141 8.444 0 4.663 2.75 8.443 6.141 8.443z"/></g><g><path fill="#f9ab64" d="M571.252 429.465c.968 0 1.753-1.08 1.753-2.413 0-1.332-.785-2.412-1.753-2.412-.967 0-1.752 1.08-1.752 2.412 0 1.333.785 2.413 1.752 2.413z"/></g><g><path fill="#f9ab64" d="M363.068 426.512c4.362-1.845 6.81-5.82 5.468-8.88-1.342-3.058-5.965-4.043-10.326-2.199-4.361 1.845-6.809 5.82-5.467 8.88 1.341 3.059 5.964 4.044 10.325 2.199z"/></g><g><path fill="#f9ab64" d="M375.897 413.535c1.248-.533 1.946-1.674 1.559-2.549-.387-.874-1.713-1.15-2.96-.618-1.249.533-1.947 1.674-1.56 2.548.387.875 1.713 1.152 2.961.619z"/></g><g><path fill="#253b4a" d="M455.425 310.859c3.115-1.318 4.117-5.858 2.24-10.14-1.879-4.284-5.927-6.688-9.042-5.37-3.115 1.317-4.118 5.857-2.24 10.14 1.878 4.283 5.926 6.687 9.042 5.37z"/></g><g><path fill="#253b4a" d="M461.187 317.172c.889-.376 1.174-1.673.638-2.897-.537-1.223-1.692-1.91-2.581-1.535-.89.376-1.175 1.673-.638 2.897.537 1.223 1.692 1.91 2.581 1.535z"/></g><g><path fill="#000201" d="M1.64 166.905c-.401.003-.79-.138-1.09-.398a1.586 1.586 0 0 1-.274-2.118c.226-.324.565-.556.954-.652 42.514-10.824 43.963-72.905 43.98-73.533.006-.426.185-.833.497-1.13.311-.297.73-.46 1.165-.454.434.007.848.182 1.15.488.303.306.47.718.463 1.145a124.861 124.861 0 0 1-6.109 33.774c-7.73 23.257-21.682 38.061-40.327 42.814-.134.037-.271.059-.41.064z"/></g><g><path fill="#000201" d="M13.1 172.535c-.401.002-.79-.14-1.09-.398a1.586 1.586 0 0 1-.274-2.118c.226-.325.565-.557.954-.653 42.514-10.824 43.963-78.454 43.98-79.162.006-.426.185-.833.496-1.13.312-.297.731-.46 1.166-.454.434.007.848.182 1.15.488.303.306.47.718.463 1.145a148.255 148.255 0 0 1-6.092 36.565c-7.73 25.122-21.683 40.916-40.344 45.668a1.785 1.785 0 0 1-.41.048z"/></g><g><path fill="#253b4a" d="M613.72 590.3h203.89c0 1.706-.69 3.343-1.918 4.55a6.613 6.613 0 0 1-4.632 1.883H620.27a6.612 6.612 0 0 1-4.631-1.884 6.375 6.375 0 0 1-1.919-4.549z"/></g><g><path fill="#fff" d="M691.422 467.088a2.484 2.484 0 0 1-1.552-.546 2.405 2.405 0 0 1-.85-1.386 2.374 2.374 0 0 1 .232-1.603 2.44 2.44 0 0 1 1.212-1.097c7.902-3.297 17.073-4.632 27.267-3.972a2.479 2.479 0 0 1 1.69.82 2.39 2.39 0 0 1 .603 1.753 2.402 2.402 0 0 1-.835 1.659 2.49 2.49 0 0 1-1.785.593c-9.417-.603-17.835.603-25.024 3.602-.304.122-.63.182-.958.177z"/></g><g><path fill="#fff" d="M676.252 478.007a2.484 2.484 0 0 1-1.548-.547 2.383 2.383 0 0 1-.352-3.394 38.169 38.169 0 0 1 5.912-5.693 2.473 2.473 0 0 1 1.808-.507c.32.036.63.134.913.288.282.154.53.36.73.609a2.397 2.397 0 0 1 .517 1.775c-.037.315-.137.62-.294.897-.156.277-.367.52-.62.717a33.646 33.646 0 0 0-5.158 4.962 2.45 2.45 0 0 1-.852.658c-.33.155-.69.235-1.056.235z"/></g><g><g><text dominant-baseline="text-before-edge" style="font-kerning:normal" fill="#366eff" font-family="'Poppins','Poppins-Bold'" font-size="42" transform="translate(268 2)"><tspan style="font-kerning:normal">Ocean Burgers</tspan></text></g></g></g></svg>