<svg xmlns="http://www.w3.org/2000/svg" width="226" height="417" viewBox="0 0 226 417"><g><g><g/><g><g><g><path fill="#fff" d="M25.29 359.65a78.71 78.71 0 0 0-8.36 8.74c-.63.76.46 1.85 1.09 1.09a78.713 78.713 0 0 1 8.36-8.74c.74-.66-.35-1.74-1.09-1.09z"/></g><g><path fill="#94c8ff" d="M79.91 315.15l-45.12 24.39a57.92 57.92 0 0 0-30.38 51v24.78h220.63v-24.83a57.918 57.918 0 0 0-30.38-51l-45.13-24.39"/></g><g><path fill="#f9d4bb" d="M133.761 264.89v25.23a18.45 18.45 0 0 0 3.64 11l10.2 13.72a6.92 6.92 0 0 1-1 9.35l-32.79 19.15a.85.85 0 0 1-.55.21.85.85 0 0 1-.55-.21l-32.78-19.14a6.92 6.92 0 0 1-1-9.35l10.2-13.72a18.45 18.45 0 0 0 3.64-11v-25.24"/></g><g><path fill="#e2b89c" d="M135.06 292.5v-10.28h-41v8.74c10.29 7.46 22.91 9.14 41 1.54z"/></g><g><path fill="#474b58" d="M133.294 264.89v19.54a65.956 65.956 0 0 0 .15 8 20.12 20.12 0 0 0 3.72 9.49l1.88 2.53 7.08 9.53c.79.913 1.461 1.92 2 3a5.51 5.51 0 0 1 .07 3.8 5.168 5.168 0 0 1-.86 1.56c-.14.17-.3.32-.45.49-.15.17-.14.15 0 .06-1.62 1.08-3.42 2-5.11 2.92l-10.48 5.93-16.94 9.68c-.13.08-.54.23-.11.08h.82l-.39-.06 1.13 1.48v-.21a1.558 1.558 0 0 0-1.95-1.48l-.39.06h.83c.45.16 0 0-.14-.09l-.9-.51-3.2-1.81-10.11-5.74-17.65-9.99c-.16-.09-.33-.17-.48-.27.34.24 0-.07-.1-.14a5.37 5.37 0 0 1-.37-.41 5.29 5.29 0 0 1-.92-1.76 5.78 5.78 0 0 1 1.18-5.29l6.41-8.63c2.16-2.91 4.57-5.73 5.94-9.11 1.37-3.38 1.43-7 1.43-10.71v-21.94a1.54 1.54 0 1 0-3.08 0v19.8c0 2.81.25 5.84-.29 8.6a18 18 0 0 1-3.29 7.27l-2.44 3.28-7 9.37a10 10 0 0 0-2.16 4.83c-.32 2.65.78 6 3.12 7.51 1.68 1.08 3.5 2 5.24 3l10.58 6c5.58 3.15 11.11 6.44 16.76 9.47a2.81 2.81 0 0 0 1.9.24l-1.95-1.48v.21a1.55 1.55 0 0 0 1.13 1.48 2.82 2.82 0 0 0 1.92-.25l.79-.45 3.07-1.76 10.08-5.76 18.09-10.34c4-2.31 4.73-8.18 2.11-11.8-1.89-2.61-3.84-5.17-5.77-7.76l-3.38-4.54a30.805 30.805 0 0 1-2.42-3.56 17.072 17.072 0 0 1-2-8.16v-25.2a1.54 1.54 0 1 0-3.08 0z"/></g><g><path fill="#86b7e2" d="M56.64 386.96l-8.8 27.16-1.05-7.37.63-9.88z"/></g><g><path fill="#474b58" d="M47.94 415.275v-29.03a1.155 1.155 0 1 0-2.31 0v29.03a1.155 1.155 0 0 0 2.31 0z"/></g><g><path fill="#474b58" d="M48.197 399.286l8.64-10.34 1.24-1.49c.95-1.13-.68-2.77-1.63-1.63l-8.64 10.34-1.24 1.49c-.95 1.13.68 2.77 1.63 1.63z"/></g><g><path fill="#86b7e2" d="M179.96 386.75l8.8 27.16 1.05-7.37-.63-9.88z"/></g><g><path fill="#474b58" d="M190.97 415.045v-29a1.155 1.155 0 1 0-2.31 0v29a1.155 1.155 0 0 0 2.31 0z"/></g><g><path fill="#474b58" d="M190.033 397.436l-8.64-10.34-1.24-1.49c-1-1.14-2.58.5-1.63 1.63l8.64 10.34 1.24 1.49c1 1.14 2.58-.5 1.63-1.63z"/></g><g><path fill="#474b58" d="M78.72 313.618l-16 8.62-24.43 13.21-4.7 2.59a59.46 59.46 0 0 0-17.47 14.36 60.22 60.22 0 0 0-13.68 38.24V415.058a1.558 1.558 0 0 0 1.54 1.54h211.69c2.86 0 5.72.05 8.58 0h.38a1.556 1.556 0 0 0 1.083-.457c.288-.287.452-.676.457-1.083v-22.84a68.181 68.181 0 0 0-1.48-15.13 59.232 59.232 0 0 0-8.88-20.34 59.995 59.995 0 0 0-16-15.87c-2.44-1.64-5-3-7.58-4.4l-23.14-12.5c-6.29-3.4-12.53-6.89-18.87-10.2l-.31-.17c-1.74-.94-3.3 1.71-1.55 2.66l15.59 8.42 24.44 13.21 5.08 2.74a56.344 56.344 0 0 1 29.64 50.12v24.28l1.54-1.54H12.94c-2.85 0-5.74-.15-8.58 0h-.38l1.54 1.54v-22.56a65.55 65.55 0 0 1 1.34-14.44 56.92 56.92 0 0 1 8.79-20 56.118 56.118 0 0 1 15.81-15.22c2.2-1.4 4.51-2.61 6.8-3.85l23.22-12.55c6.16-3.33 12.42-6.51 18.49-10l.31-.17c1.74-.94.19-3.6-1.55-2.66z"/></g><g><path fill="#fff" d="M169.94 369.25h-49.82a2.34 2.34 0 0 0-2.34 2.34v28.94a2.34 2.34 0 0 0 2.34 2.34h49.82a2.34 2.34 0 0 0 2.34-2.34v-28.94a2.34 2.34 0 0 0-2.34-2.34z"/></g><g opacity=".15"><g opacity=".02"><path fill="#94c8ff" d="M172.48 400.64h-50.81a1.85 1.85 0 0 1-1.85-1.85v-29.92a1.83 1.83 0 0 1 0-.41 1.85 1.85 0 0 0-1.43 1.8v29.92a1.85 1.85 0 0 0 1.9 1.86h50.8a1.85 1.85 0 0 0 1.8-1.43 1.83 1.83 0 0 1-.41.03z"/></g></g><g><path fill="#ffe66a" d="M117.87 374.89l.03-5.71 11.38-.93 41.82 1.11 1.56 10.58-55.53.62z"/></g><g><path fill="#5a6281" d="M116.87 380.79l.78-5.92v-5.91l11.64-.92 42 1.11 1.63 11h-.26zm1.26-11.4v5.53l-.71 5.4 55-.61-1.5-10.14-41.63-1.09z"/></g><g><path fill="#474b58" d="M170.291 401.717h-50.43c-.52 0-1-.09-1-.74v-23.23c0-2.16-.14-4.38 0-6.54 0-.59.41-.79.93-.8h49.5a9.28 9.28 0 0 1 1.07 0c.81.1.7.81.7 1.41v28.38c0 .58.14 1.47-.69 1.52-1.48.08-1.49 2.39 0 2.31a3.14 3.14 0 0 0 3-3.4v-28.69a3.76 3.76 0 0 0-.95-3c-1.2-1.15-3.35-.81-4.88-.81h-32.6c-5.07 0-10.14-.05-15.2 0a3.1 3.1 0 0 0-3.23 3v23.22c0 2.21-.07 4.43 0 6.64a3.08 3.08 0 0 0 3.08 3.06h50.7a1.165 1.165 0 1 0 0-2.33z"/></g><g><path fill="#474b58" d="M117.675 381.134h47.75c2.21 0 4.44.1 6.65 0h.1a1.155 1.155 0 0 0 0-2.31h-47.75c-2.21 0-4.44-.1-6.65 0h-.1a1.155 1.155 0 1 0 0 2.31z"/></g><g><path fill="#fbcdac" d="M34 198.26c7.318 0 13.25-8.57 13.25-19.14S41.318 159.98 34 159.98s-13.25 8.57-13.25 19.14 5.932 19.14 13.25 19.14z"/></g><g><path fill="#e2b89c" d="M23.833 186.04c0-10.57 5.93-19.14 13.25-19.14 3.91 0 7.42 2.44 9.84 6.32-1.72-7.69-6.72-13.25-12.61-13.25-7.32 0-13.25 8.57-13.25 19.14a24.39 24.39 0 0 0 3.41 12.82 27 27 0 0 1-.64-5.89z"/></g><g><path fill="#474b58" d="M19.6 179.118c0 7 2.66 15.56 9.35 19a10.77 10.77 0 0 0 9 .52 15.17 15.17 0 0 0 7.19-6.6c4-6.9 4.31-16.06 1.22-23.36-2.51-5.93-8.3-11.4-15.21-9.46-7.11 2-10.59 10-11.37 16.7a28.73 28.73 0 0 0-.18 3.2 1.155 1.155 0 0 0 2.31 0c0-6.19 2.2-13.8 8.06-16.95a8.48 8.48 0 0 1 7.3-.38 13.14 13.14 0 0 1 6.09 5.94 24.72 24.72 0 0 1 1 20.75c-2.05 5-6.84 10-12.74 8.27-3-.91-5.32-3.39-6.84-6.06a23.58 23.58 0 0 1-2.86-11.57 1.16 1.16 0 1 0-2.32 0z"/></g><g><path fill="#474b58" d="M24.86 174.734l4.1 9.53c.39.91 1.72.12 1.33-.78l-4.1-9.53c-.39-.91-1.72-.12-1.33.78z"/></g><g><path fill="#474b58" d="M28.96 173.95l-4.1 9.53c-.39.9.94 1.68 1.33.78l4.1-9.53c.39-.9-.94-1.68-1.33-.78z"/></g><g><path fill="#fbcdac" d="M193.07 195.73c7.318 0 13.25-8.57 13.25-19.14s-5.932-19.14-13.25-19.14-13.25 8.57-13.25 19.14 5.932 19.14 13.25 19.14z"/></g><g><path fill="#e2b89c" d="M203.37 183.66c0-10.57-5.93-19.14-13.25-19.14-3.91 0-7.42 2.44-9.84 6.32 1.72-7.69 6.72-13.25 12.61-13.25 7.32 0 13.25 8.57 13.25 19.14a24.39 24.39 0 0 1-3.41 12.82c.429-1.934.643-3.91.64-5.89z"/></g><g><path fill="#474b58" d="M178.66 176.588c0 7 2.66 15.56 9.35 19a10.77 10.77 0 0 0 9 .52 15.17 15.17 0 0 0 7.22-6.62c4-6.9 4.31-16.06 1.22-23.36-2.51-5.93-8.3-11.4-15.21-9.46-7.11 2-10.59 10-11.37 16.7-.12 1.063-.18 2.131-.18 3.2a1.155 1.155 0 0 0 2.31 0c0-6.19 2.2-13.8 8.06-16.95a8.48 8.48 0 0 1 7.3-.38 13.14 13.14 0 0 1 6.09 5.94 24.719 24.719 0 0 1 1 20.75c-2.05 5-6.84 10-12.74 8.27-3-.91-5.32-3.39-6.84-6.06a23.58 23.58 0 0 1-2.86-11.57 1.175 1.175 0 1 0-2.35.02z"/></g><g><path fill="#f9d4bb" d="M111.98 74.2h-.01c-41.841 0-75.76 33.919-75.76 75.76v59.39c0 41.841 33.919 75.76 75.76 75.76h.01c41.841 0 75.76-33.919 75.76-75.76v-59.39c0-41.841-33.919-75.76-75.76-75.76z"/></g><g><path fill="#e2b89c" d="M114.21 268.49a76 76 0 0 1-75.76-75.76v16.61a76 76 0 0 0 75.76 75.76 75.999 75.999 0 0 0 75.76-75.76v-16.61a76 76 0 0 1-75.76 75.76z"/></g><g><path fill="#e2b89c" d="M37.19 129.94c55.89-1.41 72.56-25.47 77.24-43.08 5.12 18.2 22 38.94 71.91 40l.7 8.35-.7 4.51v-.09c-49.95-1.08-66.8-21.82-71.91-40-4.68 17.6-21.35 41.67-77.24 43.08"/></g><g><path fill="#474b58" d="M112.125 283.179a73.355 73.355 0 0 1-33.15-7.91 74.242 74.242 0 0 1-39.41-52.23 97.516 97.516 0 0 1-1.28-18.51v-45.49c0-4.79-.15-9.62.19-14.4a73.35 73.35 0 0 1 10.21-32.35 74.68 74.68 0 0 1 22.93-24 73.49 73.49 0 0 1 31.84-11.69 74.17 74.17 0 0 1 79.13 51.32 78.912 78.912 0 0 1 3.37 23.86v57.46a73.501 73.501 0 0 1-6.57 30.51 75.359 75.359 0 0 1-20.35 26.54 73.396 73.396 0 0 1-46.92 16.93c-2.47 0-2.48 3.85 0 3.85a77.999 77.999 0 0 0 76.17-62.42 100.718 100.718 0 0 0 1.53-19.94v-46.13c0-5.12.16-10.29-.3-15.39a77.66 77.66 0 0 0-11.23-33.79 79.049 79.049 0 0 0-24.3-24.8 77.657 77.657 0 0 0-33.35-11.85 76.87 76.87 0 0 0-35.44 4.37 78.29 78.29 0 0 0-47 49.12 81.77 81.77 0 0 0-3.73 25.36V209.29a77.712 77.712 0 0 0 77.66 77.75 1.93 1.93 0 1 0 0-3.86z"/></g><g><path fill="#474b58" d="M195 174.744l4.1 9.53c.39.91 1.72.12 1.33-.78l-4.1-9.53c-.39-.91-1.72-.12-1.33.78z"/></g><g><path fill="#474b58" d="M199.11 173.96l-4.1 9.53c-.39.9.94 1.68 1.33.78l4.1-9.53c.39-.9-.94-1.68-1.33-.78z"/></g><g><path fill="#fff" d="M55.176 62.73c5-2.5 9.9-5.12 15-7.37a1.16 1.16 0 0 0 .41-1.58 1.18 1.18 0 0 0-1.58-.41c-5.09 2.25-10 4.87-15 7.37-1.33.67-.16 2.66 1.16 2z"/></g><g><path fill="#fff" d="M157.289 136.349c6 3.12 11.87 7.19 16 12.66a26.398 26.398 0 0 1 3.4 5.8c.76 1.82 3.68.85 2.91-1-3.19-7.65-9.6-13.38-16.49-17.68a61.286 61.286 0 0 0-4.46-2.53 1.54 1.54 0 0 0-1.4 2.74z"/></g><g><path fill="#fff" d="M143.764 130.398a27.66 27.66 0 0 1 9 3.38 1.55 1.55 0 0 0 2.07-.67 1.57 1.57 0 0 0-.67-2.07 30.22 30.22 0 0 0-9.78-3.65 1.54 1.54 0 0 0-.62 3z"/></g><g><path fill="#474b58" d="M139.35 180.94c0 5.4 3.76 3.18 8.4 3.18 4.64 0 8.4 2.22 8.4-3.18s-3.76-9.78-8.4-9.78c-4.64 0-8.4 4.39-8.4 9.78z"/></g><g><path fill="#474b58" d="M66.74 180.94c0 5.4 3.76 3.18 8.4 3.18 4.64 0 8.4 2.22 8.4-3.18s-3.76-9.78-8.4-9.78c-4.64 0-8.4 4.39-8.4 9.78z"/></g><g><path fill="#b35553" d="M91 258.95a42.495 42.495 0 0 0 7.42 6c10.67 6.62 23.87 5.79 34.18-1.71 6.91-5 12.4-12.63 17.78-20.11 2.43-3.38 4.35-10.77-1.47-10.77H79.64c-6.44 0-3.41 8.23-1 11.55 3.93 5.26 7.89 10.63 12.36 15.04z"/></g><g><path fill="#a64f4d" d="M78.99 244.32c16.35-1.67 44.6-3.46 70.28.33l1.11-1.54c2.43-3.38 4.35-10.77-1.47-10.77H79.64c-6.44 0-3.41 8.23-1 11.55z"/></g><g><path fill="#474b58" d="M89.909 259.97a38.6 38.6 0 0 0 13.47 9 30.81 30.81 0 0 0 14.66 1.63 33.49 33.49 0 0 0 14.17-5.32 54.21 54.21 0 0 0 11.62-11c1.78-2.17 3.48-4.42 5.14-6.69a38.654 38.654 0 0 0 3.74-5.49c1.39-2.83 2.58-7 .3-9.71-1.31-1.55-3.28-1.66-5.15-1.66h-67.34c-2 0-4 .21-5.26 1.9-2.06 2.7-.67 6.76.63 9.48a29.57 29.57 0 0 0 3.16 4.79c1.72 2.32 3.46 4.63 5.29 6.86a79.599 79.599 0 0 0 5.58 6.22 1.542 1.542 0 0 0 2.18-2.18 108.332 108.332 0 0 1-10.47-12.57 29.187 29.187 0 0 1-3-4.6 12.23 12.23 0 0 1-.76-1.91c-.11-.35-.21-.7-.29-1.06 0-.17-.08-.35-.11-.53-.03-.18 0-.2 0-.3 0 .16 0 .09 0 0a7.622 7.622 0 0 1 0-1v-.33c0 .18.07-.33.09-.42.02-.09.07-.24.12-.35-.13.35.07-.09.11-.17.12-.24-.15.13 0-.07l.17-.17c.19-.21-.12.07 0 0a2.37 2.37 0 0 1 1.56-.45h69.16a3.84 3.84 0 0 1 1.6.22c-.12-.05.23.14.29.18.22.14-.11-.11.13.12.24.23 0-.09.12.12.093.141.176.288.25.44-.15-.31 0 .16.07.24.07.08.06.26.09.39.06.29 0 .06 0 0v1.38a.9.9 0 0 1 0 .28c-.067.393-.153.783-.26 1.17a12.23 12.23 0 0 1-.71 2 33.139 33.139 0 0 1-3.44 5.15c-5.82 8-12.41 16.52-21.92 20.24a29.479 29.479 0 0 1-13.72 1.93 28.56 28.56 0 0 1-13.12-4.93 42.762 42.762 0 0 1-5.88-4.93c-1.51-1.47-3.68.7-2.27 2.1z"/></g><g><path fill="#ff7b6b" d="M135.19 261.25c-.84.72-1.7 1.387-2.58 2a32.349 32.349 0 0 1-12 5.47 29.58 29.58 0 0 1-22.19-3.68 38.78 38.78 0 0 1-5.13-3.86c3-3.85 7.15-6.23 11.73-6.23a14.07 14.07 0 0 1 9.19 3.56 14.07 14.07 0 0 1 9.19-3.56c4.61 0 8.78 2.41 11.79 6.3z"/></g><g><path fill="#dd685f" d="M104.43 257.42a14.07 14.07 0 0 1 9.19 3.56 14.07 14.07 0 0 1 9.19-3.56 14.53 14.53 0 0 1 10.63 4.94c.387-.313.77-.647 1.15-1-3-3.89-7.17-6.3-11.78-6.3a14.07 14.07 0 0 0-9.19 3.56 14.07 14.07 0 0 0-9.19-3.56c-4.58 0-8.73 2.38-11.73 6.23.38.333.763.667 1.15 1a14.52 14.52 0 0 1 10.58-4.87z"/></g><g><path fill="#474b58" d="M115.165 256.356c-2.64 1.51-4.07 4.62-4.33 7.53-.13 1.48 2.17 1.47 2.31 0a7.55 7.55 0 0 1 1.77-4.29 7.4 7.4 0 0 1 .55-.57l.29-.26s.33-.26.1-.09c.15-.116.307-.223.47-.32a1.156 1.156 0 1 0-1.16-2z"/></g><g><path fill="#474b58" d="M134.367 260.436a32.55 32.55 0 0 1-15 7.4 28.44 28.44 0 0 1-17.18-2.09 34.52 34.52 0 0 1-8.1-5.38v1.68a14.85 14.85 0 0 1 8.82-5.71 12.79 12.79 0 0 1 10.46 3 1.19 1.19 0 0 0 1.63 0 12.78 12.78 0 0 1 10.48-3 14.87 14.87 0 0 1 8.86 5.78 1.16 1.16 0 0 0 1.63 0 1.18 1.18 0 0 0 0-1.63 16.63 16.63 0 0 0-10.33-6.45 15.32 15.32 0 0 0-12.27 3.71h1.63a15.32 15.32 0 0 0-12.26-3.71 16.62 16.62 0 0 0-10.29 6.38 1.18 1.18 0 0 0 0 1.63 33.5 33.5 0 0 0 16.49 8.22 31.94 31.94 0 0 0 18.25-2.46 36.811 36.811 0 0 0 8.77-5.68c1.17-1.02-.47-2.64-1.59-1.69z"/></g><g><path fill="#474b58" d="M110.44 162.96v41.84a1.54 1.54 0 0 0 3.08 0v-41.84a1.54 1.54 0 0 0-3.08 0z"/></g><g><path fill="#474b58" d="M98.035 211.436c4.17 5.47 11.5 8.46 18.21 6.45a24.47 24.47 0 0 0 9.74-6.14c1.43-1.38-.75-3.55-2.18-2.18a21.82 21.82 0 0 1-7.62 5.1 14.09 14.09 0 0 1-3.2.75 13.6 13.6 0 0 1-1.55.05h-1.31a14.19 14.19 0 0 1-2.82-.74c-.08 0-.67-.27-.44-.17l-.52-.24a17.855 17.855 0 0 1-2.22-1.28l-.46-.32c-.08-.06-.61-.46-.31-.22-.5-.4-1-.81-1.45-1.26-.45-.45-.73-.72-1.07-1.11-.14-.16-.67-.84-.16-.17a1.59 1.59 0 0 0-2.1-.55 1.55 1.55 0 0 0-.55 2.1z"/></g><g><path fill="#80766e" d="M172.67 163.1s-25.23-1.67-38.13-1.34c-2.89.07-5.49-1.64-5.8-4.51a5.1 5.1 0 0 1 5.52-5.63c9.15.81 30.11 3.42 38.41 11.48z"/></g><g><path fill="#6d645e" d="M134.54 158.99c-2.68.07-5.11-1.4-5.69-3.91a5.11 5.11 0 0 0-.1 1.71c.31 2.87 2.91 4.59 5.8 4.51 12.89-.33 38.13 1.34 38.13 1.34a20.055 20.055 0 0 0-3.22-2.51c-7.23-.44-24.84-1.4-34.92-1.14z"/></g><g><path fill="#474b58" d="M172.669 161.945c-3.6-.24-7.19-.44-10.79-.62-6.94-.36-13.89-.66-20.83-.74h-4.71c-1.57 0-3.23.19-4.67-.69-3-1.83-1.92-6.48 1.46-7.08a14.76 14.76 0 0 1 3.91.24c1.46.153 2.92.326 4.38.52 3.37.45 6.72 1 10 1.73a77.185 77.185 0 0 1 10.4 2.93 32.282 32.282 0 0 1 8.5 4.4c.525.404 1.025.838 1.5 1.3 1.07 1 2.7-.6 1.63-1.63a27.42 27.42 0 0 0-8.36-5.23 67.001 67.001 0 0 0-10.8-3.5 135.09 135.09 0 0 0-19.84-3.09 6.32 6.32 0 0 0-6.8 7.29 6 6 0 0 0 3.46 4.44c1.693.623 3.505.852 5.3.67 7.28-.08 14.56.23 21.83.57 4.73.22 9.46.63 14.18.79h.24c1.49.11 1.48-2.2.01-2.3z"/></g><g><path fill="#80766e" d="M54.72 163.1s25.23-1.67 38.13-1.34c2.89.07 5.49-1.64 5.8-4.51a5.1 5.1 0 0 0-5.52-5.63c-9.15.81-30.11 3.42-38.41 11.48z"/></g><g><path fill="#6d645e" d="M92.85 158.99c2.68.07 5.11-1.4 5.69-3.91.13.56.163 1.138.1 1.71-.31 2.87-2.91 4.59-5.8 4.51-12.89-.33-38.13 1.34-38.13 1.34a20.05 20.05 0 0 1 3.22-2.51c7.23-.44 24.84-1.4 34.92-1.14z"/></g><g><path fill="#474b58" d="M54.72 164.252c4-.26 7.92-.48 11.88-.68 7.29-.37 14.6-.68 21.9-.7 3.46 0 7.55.66 10-2.39a6.26 6.26 0 0 0-2.77-9.64 9.93 9.93 0 0 0-4.64-.18c-1.507.154-3.01.327-4.51.52-3.61.46-7.2 1-10.76 1.78a77.906 77.906 0 0 0-11 3.07 34.64 34.64 0 0 0-9.09 4.7c-.64.485-1.251 1.005-1.83 1.56-1.07 1 .56 2.66 1.63 1.63a25.52 25.52 0 0 1 7.76-4.8 62.841 62.841 0 0 1 10-3.23 132.301 132.301 0 0 1 18.91-3c1.53-.14 2.94-.13 4.11 1a4 4 0 0 1 .9 4.33 4.36 4.36 0 0 1-3.84 2.4c-1.53.08-3.08 0-4.61 0-7 0-13.92.3-20.87.64-4.32.21-8.66.39-13 .73h-.2c-1.4.05-1.45 2.36.03 2.26z"/></g><g><path fill="#a36d41" d="M10.877 74.35s-12.67 33.73-7.23 65c2.25 12.95 19.83 15.32 25.44 3.43l42.09-89.2z"/></g><g opacity=".15"><g opacity=".02"><path fill="#fff" d="M10.926 74.04s-12.64 33.73-7.23 65a13.43 13.43 0 0 0 16.41 10.81 13.161 13.161 0 0 1-10.26-10.81c-5.44-31.25 7.23-65 7.23-65z"/></g></g><g><path fill="#474b58" d="M8.93 72.403a127.08 127.08 0 0 0-4.52 15.58 142.66 142.66 0 0 0-4.12 35.78 98.5 98.5 0 0 0 .73 10 27.87 27.87 0 0 0 1.89 8.28 14.72 14.72 0 0 0 9.24 7.85 15.313 15.313 0 0 0 12-1.4 15.12 15.12 0 0 0 5.94-6.63l3.59-7.6 7.49-15.88 9.49-20.1 9.56-20.26 7.67-16.4 4-8.42.18-.38c.52-1.11-.36-2.73-1.74-2.26l-6 2.07-14.42 5-17.36 6-15.11 5.14c-2.44.84-4.91 1.64-7.33 2.53h-.1a1.58 1.58 0 0 0-1.07 1.89 1.55 1.55 0 0 0 1.89 1.07l6-2.07 14.42-5 17.36-6 15.08-5.1 5-1.71c.78-.27 1.62-.48 2.38-.82h.1l-1.78-2.29-2.68 5.68-6.82 14.45-9.12 19.32-9.58 20.32-8.2 17.37-5 10.55-.71 1.5a11.73 11.73 0 0 1-8.57 6.77 6.61 6.61 0 0 1-1.11.15 13.97 13.97 0 0 1-1.45 0 9.772 9.772 0 0 1-2.54-.33 13.048 13.048 0 0 1-1.32-.39 7.248 7.248 0 0 1-1.12-.46 13.454 13.454 0 0 1-1.21-.67l-.58-.38-.43-.32a11.27 11.27 0 0 1-3.44-4.47 14.788 14.788 0 0 1-.85-2.91c-.29-1.58-.51-3.17-.69-4.76-1.4-12.32-.4-24.87 1.91-37a151.657 151.657 0 0 1 5.65-21.45c.12-.34.24-.68.36-1a1.55 1.55 0 0 0-1.07-1.89 1.57 1.57 0 0 0-1.89 1.05z"/></g><g><path fill="#a36d41" d="M212.43 67.89s12.67 33.73 7.23 65c-2.25 12.95-19.83 15.32-25.44 3.43l-42.09-89.2z"/></g><g><path fill="#8c5c38" d="M211.97 66.35s12.67 33.73 7.23 65a13.43 13.43 0 0 1-16.41 10.79 13.16 13.16 0 0 0 10.26-10.81c5.44-31.25-7.23-65-7.23-65z"/></g><g><path fill="#474b58" d="M210.481 66.766a126.297 126.297 0 0 1 4.43 15.2 140.213 140.213 0 0 1 4.08 34.68c-.06 3.3-.26 6.6-.64 9.88-.19 1.59-.4 3.19-.71 4.76a13.84 13.84 0 0 1-.86 2.79 11.66 11.66 0 0 1-8.18 6.57 13 13 0 0 1-5.1.08 11.65 11.65 0 0 1-4.79-2.13 12.89 12.89 0 0 1-3.81-5l-3.92-8.31-7.59-16.07-9.41-19.94-9.4-19.92-7.55-16-3.86-8.17-.17-.37-1.71 2.23 6 2.07 14.42 5 17.36 6 15.08 5.19c2.43.84 4.86 1.83 7.33 2.53h.1a1.555 1.555 0 1 0 .82-3l-6-2.07-14.42-5-17.36-6-15.08-5.19-5-1.71c-.79-.27-1.57-.6-2.38-.82h-.1c-1.38-.48-2.26 1.15-1.74 2.26l2.75 5.83 7 14.84 9.29 19.69 9.71 20.58 8.22 17.31 4.7 10a20.899 20.899 0 0 0 1.74 3.19 14.85 14.85 0 0 0 10.77 6.25 15.387 15.387 0 0 0 11.37-3.58 14.06 14.06 0 0 0 3.75-5.05 29.17 29.17 0 0 0 1.79-8.26c1.55-12.63.52-25.51-1.8-38a152.126 152.126 0 0 0-5.78-22.06c-.12-.35-.24-.7-.37-1a1.58 1.58 0 0 0-1.89-1.07 1.55 1.55 0 0 0-1.09 1.79z"/></g><g><path fill="#a36d41" d="M203.975 58.137c7.82-3.29 12.75-8.24 11.88-12.7-.93-4.77-8.24-7.56-17.59-7.27 5.55-5.78 8-11.88 5.59-15.55a6.688 6.688 0 0 0-4.36-2.72c-.8-6.33-4-11.69-9.27-14.32-5.27-2.63-11.73-1.94-17.35 1.39-4.75-4.36-10.75-6.38-16.51-4.93-5 1.26-8.86 4.89-11.19 9.79-5.03-7.57-13.05-11.71-20.65-9.79-7.17 1.82-12.09 8.56-13.31 16.93a31.65 31.65 0 0 0-1.87-3.33c-7.36-11.44-20.6-16.05-29.56-10.29a16.2 16.2 0 0 0-6.49 8.3 31.471 31.471 0 0 0-3-3.51c-9.62-9.63-23.54-11.33-31.07-3.79-4.47 4.47-5.69 11.18-3.93 17.91-7.2-2.45-13.41-2.1-15.71 1.44-2.3 3.54 0 9.77 5.59 15.55-9.35-.29-16.66 2.49-17.59 7.27-.87 4.46 4.06 9.41 11.88 12.7-7.47 1.75-12.47 4.68-12.29 7.7.26 4.32 11 7.19 24 6.41l1.31-.09a68.127 68.127 0 0 0-6.51 4c-10.75 7.34-17.48 16.21-15.03 19.8.87 1.27 2.79 1.7 5.38 1.39-2.55 4.91-2.93 9.78-.54 13.28a8.805 8.805 0 0 0 1.51 1.69c-1.77 4.29-1.82 8.43.29 11.5 2.53 3.69 7.61 5 13.51 4.16 61.2-.5 79.2-25.17 84.15-43.12 5.4 18.42 23.35 39.45 77 40 5.92.9 11-.45 13.56-4.16 2.11-3.07 2.06-7.21.29-11.5a8.803 8.803 0 0 0 1.55-1.72c2.4-3.49 2-8.37-.54-13.28 2.59.31 4.51-.12 5.38-1.39 2.45-3.57-4.29-12.44-15-19.82a68.202 68.202 0 0 0-6.51-4l1.31.09c13 .78 23.78-2.1 24-6.41.16-2.93-4.84-5.86-12.31-7.61z"/></g><g><path fill="#8c5c38" d="M197.59 76.74a68.493 68.493 0 0 0-6.12-3.7c-1.59 0-3.24 0-4.93-.12l-1.31-.09a68.148 68.148 0 0 1 6.51 4c10.76 7.38 17.49 16.25 15 19.82-.87 1.27-2.79 1.7-5.38 1.39 2.55 4.91 2.93 9.78.54 13.28a8.801 8.801 0 0 1-1.55 1.72c1.77 4.29 1.82 8.43-.29 11.5a10.55 10.55 0 0 1-7.33 4.21c5.75.78 10.7-.59 13.18-4.21 2.11-3.07 2.06-7.21.29-11.5a8.801 8.801 0 0 0 1.55-1.72c2.4-3.49 2-8.37-.54-13.28 2.59.31 4.51-.12 5.38-1.39 2.49-3.66-4.25-12.53-15-19.91z"/></g><g><path fill="#8c5c38" d="M202.89 58.604c7.82-3.29 12.75-8.24 11.88-12.7-.93-4.77-8.24-7.56-17.59-7.27 5.55-5.78 8-11.88 5.59-15.55a6.69 6.69 0 0 0-4.36-2.72c-.8-6.33-4-11.69-9.27-14.32a16.12 16.12 0 0 0-10-1.38c1.442.26 2.84.725 4.15 1.38 5.26 2.63 8.47 8 9.27 14.32a6.69 6.69 0 0 1 4.36 2.68c2.39 3.67 0 9.77-5.59 15.55 9.35-.29 16.66 2.49 17.59 7.27.87 4.46-4.06 9.41-11.88 12.7 7.47 1.75 12.47 4.68 12.29 7.7-.21 3.5-7.32 6.05-16.94 6.48 12.45.53 22.54-2.3 22.79-6.48.19-2.98-4.81-5.91-12.29-7.66z"/></g><g><path fill="#474b58" d="M213.348 54.202c1.823-1.663 4.59-3.834 4-6.23-2.348-9.525-10.698-12.422-19.06-11.34-.941.122.485 3.361 1.09 2.63 2.988-3.61 6.756-7.575 6.88-12.26.094-3.553-4.23-5.712-6.33-8.58-.367-.5 1.44 2.017 1.13 1.48-2.932-5.066-3.75-12.491-9-15.08-5.96-2.939-13.286.43-19.92.82-.624.037 2.453.44 1.86.24-5.762-1.935-11.409-6.49-17.4-5.46-5.456.937-8.941 6.624-12.75 10.64-.61.644 3.36.544 2.66 0-5.294-4.11-10.154-10.408-16.83-11-5.953-.527-11.617 4.028-16 8.09-2.71 2.512-3.512 6.697-3.92 10.37-.104.94 3.407.362 2.81-.37-9.618-11.794-16.317-21.06-32.92-14.52-3.84 1.513-5.84 5.987-7.8 9.62-.448.832 3.581.176 2.81-.37C67.928 8.121 61.637.862 53.418.212c-19.64-1.552-20.332 12.239-19.62 24.46.052.89 2.78-1.915 1.89-1.89-5.905.166-12.46-.636-17.57 2.33-2.307 1.34-1.088 5.478-.22 8 1.206 3.503 3.425 6.752 6.16 9.25.701.64 2.033-2.74 1.09-2.63-4.596.534-15.911.512-18.646 7.106-.415 1.001-.854 2.163-.554 3.204 1.841 6.38 6.253 10.348 12.75 12.5.897.297 1.308-2.924.37-2.81-3.372.412-13.946 3.558-13.31 10 .198 2.004 2.42 3.41 4.21 4.33 5.25 2.701 17.77 3.68 22.57 2.73.973-.192.086-3.353-.78-2.87-5.433 3.035-17.89 11.294-21.67 19.18-2.903 6.057-.617 7.591 6.26 8.85.882.161-1.356-3.216-1.36-2.32-.023 5.637.97 11.233 1.3 16.86.03.517-.319-2.011-.4-1.5-.512 3.227-1.719 6.594-.91 9.76 1.734 6.787 7.769 7.457 13.32 8.12 1.658.198 3.332-.208 5-.28 1.666-.072 3.347.07 5-.15 23.848-3.18 37.35-2.604 57.2-15.4 5.412-3.488 10-8.283 13.92-13.39 3.11-4.05 4.66-9.088 6.87-13.69.243-.505.952-1.308.48-1.61-.843-.538-3.527-.85-3 0 5.775 9.313 9.939 21.051 19.44 26.51 15.564 8.942 34.483 10.002 51.87 14.46 1.69.433 3.487.1 5.23.18 1.668.077 3.342.485 5 .29 5.559-.653 11.472-1.342 13.2-8.12.807-3.166-.398-6.533-.91-9.76-.081-.511-.429 2.017-.4 1.5.315-5.627 1.287-11.224 1.26-16.86-.004-.888-2.215 2.384-1.33 2.31 5.14-.426 7.678-1.262 7.329-5.49-.075-.907-.209-1.902-.769-2.62-5.21-6.675-13.196-16.744-21.99-19.93-.932-.337-1.744 2.637-.78 2.87 4.456 1.077 16.796-.218 21.49-2.26 1.98-.861 4.381-2.05 5-4.12 2.103-7.032-10.52-10.29-13.09-10.67-1.026-.151-1.633 2.358-.82 3 2.48 1.96 6.024 1.984 8.87 3.36.85.41 1.407 1.259 2.07 1.93.083.084.108.21.15.32.087.23.112.41.08.66a.506.506 0 0 1-.08.25c-.337.43-.636.913-1.08 1.23-2.867 2.045-7.814 2.875-10.69 3.15-3.982.381-8.002-.025-12 .11a1.55 1.55 0 0 0-1.464 1.143c-.197.726.116 1.305.684 1.727 5.039 3.744 10.43 7.028 15.25 11.05 1.658 1.384 4.656 5.087 5.71 7.73.115.288.5 1.561.42 2.22-.013.11-.053.216-.09.32a.584.584 0 0 1-.08.16c-.091.12-.151.312-.3.34-1.273.239-2.716-.166-3.86.44-.785.416-1.21 1.43-1.33 2.31-.594 4.347-.404 8.769-.78 13.14-.023.268-.342.434-.411.694-.07.26-.017.539.011.806.28 2.71 1.066 5.4.91 8.12-.06 1.057-.841 1.98-1.535 2.779-2.461 2.836-5.672 2.749-9.365 3.051-1.308.107-2.619-.199-3.93-.26-1.626-.076-3.266.061-4.88-.15-30.495-3.992-36.053-1.94-62.02-24.57-3.972-3.461-4.632-9.464-7-14.17-.344-.683-.628-1.16-1.5-1.16-.799 0-1.23.477-1.5 1.16-.398 1.004-.65 2.059-1 3.08-.184.54-.392 1.07-.6 1.6-.182.463-.342.938-.57 1.38-4.093 7.953-6.52 12.74-14.99 18.88-16.847 12.212-29.308 12.932-50.18 16.37-3.888.64-10.147.512-14.51.68-1.564.06-3.146.518-4.69.26-2.38-.399-4.818-.977-6.9-2.2-2.123-1.247-2.911-4.854-2.73-7 .139-1.64.873-3.174 1.23-4.78.058-.262.08-.546.011-.806-.07-.26-.388-.426-.41-.694-.377-4.372-.187-8.793-.78-13.14-.121-.88-.545-1.896-1.33-2.31-1.07-.562-2.427-.053-3.61-.29-.262-.052-.397-.357-.58-.55-.029-.029-.038-.072-.05-.11-.035-.105-.097-.21-.09-.32.03-.54.037-1.094.2-1.61.242-.771.467-1.6 1-2.21 3.377-3.867 6.746-7.793 10.65-11.13 2.846-2.433 6.355-3.965 9.46-6.06.577-.39.871-1.034.683-1.727-.195-.716-.762-1.076-1.464-1.143-6.396-.612-12.837-.775-19.21-1.6-1.013-.131-1.887-.79-2.8-1.25-.506-.255-1.165-.795-1.5-1.27-.13-.185-.208-.405-.28-.62-.023-.07 0-.146 0-.22 0-.123-.004-.267.07-.37.467-.642.794-1.487 1.5-1.85 3.05-1.565 6.7-1.915 9.55-3.82.786-.525 1.036-2.14.37-2.81-.416-.419-12.038-5.527-11.09-9.35.749-3.018 3.65-5.388 6.45-6.74 2.892-1.396 6.393-.61 9.58-1 .64-.078 1.136-.333 1.397-.962.28-.678.07-1.11-.307-1.668-1.62-2.402-8.196-8.87-5.46-13.5 2.709-4.582 11.548-1.305 14.09-.92.582.088 1.047.035 1.486-.404.188-.188.33-.433.4-.69.07-.255-.083-.545.004-.796 2.2-6.312 1.416-14.944 6.84-18.85 11.556-8.32 21.685 3.747 28.4 9.43.574.486.684.836 1.54.714.902-.128.817-.48 1.28-1.114 1.67-2.284 2.777-5.142 5.056-6.82 2.279-1.677 5.211-3.19 8.014-2.8 5.334.742 10.58 2.925 15 6 3.186 2.215 4.625 6.232 7 9.3.397.513.84.82 1.526.73.79-.105.929-.488 1.284-1.1 2.719-4.683 4.34-10.193 8.12-14.07 3.517-3.607 11.903-2.167 15.42 0 2.99 1.843 5.082 4.852 7.62 7.28.488.467.577.754 1.33.754.804 0 .792-.285 1.33-.754 3.52-3.065 5.997-8.331 10.59-9.16 5.05-.91 9.807 3.025 14.69 4.6.313.101.565.384.891.426.326.042.64-.167.969-.186 5.604-.317 11.755-3.24 16.82-.82 4.363 2.085 5.039 8.256 7.48 12.43.165.282.13.662.328.921.528.692 2.605 1.153 2.94 1.376 1.577 1.055 2.721 3.122 1.862 5.143-1.486 3.495-3.95 6.487-5.91 9.74-.382.635-.678.937-.355 1.717.279.673.79.892 1.465.963 2.858.304 5.79.1 8.59.75 1.977.46 5.99 1.797 7.126 4.308.305.673.635 1.488.384 2.182-2.292 6.342-5.297 5.915-11.2 9.86-.325.217-.605.56-.704.938-.22.837.267 1.645 1.097 1.865.379.1 7.284-3.146 9.767-5.413z"/></g><g opacity=".15" transform="rotate(170.56 56.5 115.5)"><path fill="#fff" d="M56.44 108.51c-17.16 0-31.07 3.17-31.07 7.08s13.91 7.08 31.07 7.08 31.07-3.17 31.07-7.08-13.91-7.08-31.07-7.08z"/></g><g opacity=".15" transform="rotate(152.8 53 18.5)"><path fill="#fff" d="M52.79 6.89c-7.56 0-13.69 5.184-13.69 11.58 0 6.395 6.13 11.58 13.69 11.58s13.69-5.185 13.69-11.58c0-6.396-6.13-11.58-13.69-11.58z"/></g><g opacity=".15" transform="rotate(152.8 86 18)"><path fill="#fff" d="M85.98 6.84c-3.143 0-5.69 5.184-5.69 11.58 0 6.395 2.547 11.58 5.69 11.58 3.143 0 5.69-5.185 5.69-11.58 0-6.396-2.547-11.58-5.69-11.58z"/></g><g opacity=".15" transform="rotate(152.8 127.5 20.5)"><path fill="#fff" d="M127.83 9.27c-4.667 0-8.45 5.184-8.45 11.58 0 6.395 3.783 11.58 8.45 11.58s8.45-5.185 8.45-11.58c0-6.396-3.783-11.58-8.45-11.58z"/></g><g><path fill="#474b58" d="M141.67 110.045a69.132 69.132 0 0 0 17.12 8.28 87.11 87.11 0 0 0 23.83 4c5.535.183 11.076-.028 16.58-.63a1.58 1.58 0 0 0 1.54-1.54 1.55 1.55 0 0 0-1.54-1.54 105.06 105.06 0 0 1-27.15-.36 74.543 74.543 0 0 1-20.17-6 65.552 65.552 0 0 1-8.65-4.91c-1.65-1.11-3.19 1.56-1.55 2.66z"/></g><g><path fill="#474b58" d="M121.113 86.454a34.082 34.082 0 0 0 2.75 5.28 59.062 59.062 0 0 0 9.22 11.37c1.42 1.38 3.6-.8 2.18-2.18a55.742 55.742 0 0 1-8.74-10.75c-.7-1.13-1.35-2.29-1.94-3.48-.16-.33-.32-.67-.47-1-.15-.33-.12-.27 0 .05v-.11a1.59 1.59 0 0 0-1.89-1.07 1.55 1.55 0 0 0-1.07 1.89z"/></g></g></g><g><g><g><text dominant-baseline="text-before-edge" style="text-transform:uppercase;font-kerning:normal" font-family="'Poppins','Poppins-Regular'" font-size="7" transform="translate(129 391)"><tspan style="text-transform:uppercase;font-kerning:normal">Manager</tspan></text></g></g><g><g><text dominant-baseline="text-before-edge" style="text-transform:uppercase;font-kerning:normal" font-family="'Poppins','Poppins-Bold'" font-size="9" transform="translate(134 381)"><tspan style="text-transform:uppercase;font-kerning:normal">Mike</tspan></text></g></g><g><g><text dominant-baseline="text-before-edge" style="font-kerning:normal" fill="#366eff" font-family="'Poppins','Poppins-Bold'" font-size="6" transform="translate(122 369)"><tspan style="font-kerning:normal">Ocean Burgers</tspan></text></g></g></g></g></g></svg>