<svg xmlns="http://www.w3.org/2000/svg" width="224" height="346" viewBox="0 0 224 346"><g><g><g/><g><g><g><path fill="#fff" d="M22.84 288.6a78.71 78.71 0 0 0-8.36 8.74c-.63.76.46 1.85 1.09 1.09a78.712 78.712 0 0 1 8.36-8.74c.74-.66-.35-1.74-1.09-1.09z"/></g><g><path fill="#94c8ff" d="M77.47 244.11L32.34 268.5A57.92 57.92 0 0 0 2 319.45v24.78h220.6v-24.78a57.918 57.918 0 0 0-30.38-51l-45.13-24.39"/></g><g><path fill="#f9d4bb" d="M131.321 193.84v25.23a18.45 18.45 0 0 0 3.64 11l10.2 13.72a6.92 6.92 0 0 1-1 9.35l-32.8 19.16a.85.85 0 0 1-.55.21.85.85 0 0 1-.55-.21l-32.78-19.15a6.92 6.92 0 0 1-1-9.35l10.2-13.72a18.45 18.45 0 0 0 3.64-11v-25.24"/></g><g><path fill="#e2b89c" d="M132.62 221.46v-10.28h-41v8.74c10.29 7.46 22.91 9.14 41 1.54z"/></g><g><path fill="#474b58" d="M130.834 193.84v19.54a65.957 65.957 0 0 0 .15 8 20.12 20.12 0 0 0 3.72 9.49l1.88 2.53 7.08 9.53c.79.913 1.461 1.92 2 3a5.51 5.51 0 0 1 .07 3.8 5.168 5.168 0 0 1-.86 1.56c-.14.17-.3.32-.45.49-.15.17-.14.15 0 .06-1.62 1.08-3.42 2-5.11 2.92l-10.37 5.93-16.94 9.68c-.13.08-.54.23-.11.08h.82l-.39-.06 1.13 1.48v-.21a1.558 1.558 0 0 0-1.95-1.48l-.39.06h.82c.45.16 0 0-.14-.09l-.9-.51-3.2-1.81-10.19-5.73-17.68-10c-.16-.09-.33-.17-.48-.27.34.24 0-.07-.1-.14a5.37 5.37 0 0 1-.37-.41 5.29 5.29 0 0 1-.92-1.76 5.78 5.78 0 0 1 1.18-5.29l6.41-8.63c2.16-2.91 4.57-5.73 5.94-9.11 1.37-3.38 1.43-7 1.43-10.71v-21.94a1.54 1.54 0 1 0-3.08 0v19.8c0 2.81.25 5.84-.29 8.6a18 18 0 0 1-3.29 7.27l-2.44 3.28-7 9.37a10 10 0 0 0-2.14 4.84c-.32 2.65.78 6 3.12 7.51 1.68 1.08 3.5 2 5.24 3l10.58 6c5.58 3.15 11.11 6.44 16.76 9.47a2.81 2.81 0 0 0 1.9.24l-1.95-1.48v.21a1.55 1.55 0 0 0 1.13 1.48 2.82 2.82 0 0 0 1.92-.25l.79-.45 3.07-1.76 10.08-5.76 18.09-10.34c4-2.31 4.73-8.18 2.11-11.8-1.89-2.61-3.84-5.17-5.77-7.76l-3.38-4.54a30.805 30.805 0 0 1-2.42-3.56 17.072 17.072 0 0 1-2-8.16v-25.21a1.54 1.54 0 1 0-3.08 0z"/></g><g><path fill="#86b7e2" d="M54.2 315.92l-8.81 27.15-1.05-7.36.63-9.88z"/></g><g><path fill="#474b58" d="M45.5 344.225v-29.03a1.155 1.155 0 1 0-2.31 0v29.03a1.155 1.155 0 0 0 2.31 0z"/></g><g><path fill="#474b58" d="M45.757 328.226l8.64-10.34 1.24-1.49c.95-1.13-.68-2.77-1.63-1.63l-8.64 10.34-1.24 1.49c-.95 1.13.68 2.77 1.63 1.63z"/></g><g><path fill="#86b7e2" d="M177.51 315.71l8.81 27.15 1.05-7.36-.63-9.88z"/></g><g><path fill="#474b58" d="M188.52 343.995v-29a1.155 1.155 0 0 0-2.31 0v29a1.155 1.155 0 0 0 2.31 0z"/></g><g><path fill="#474b58" d="M187.593 326.386l-8.64-10.39-1.24-1.49c-1-1.14-2.58.5-1.63 1.63l8.64 10.34 1.28 1.52c1 1.14 2.58-.5 1.63-1.63z"/></g><g><path fill="#fff" d="M61.883 258.143l-9.77 5.41c-4.13 2.28-8.29 4.53-12.35 6.93a111.262 111.262 0 0 0-13.47 9.22c-.77.62.32 1.71 1.09 1.09a133.16 133.16 0 0 1 19.62-12.66l11.78-6.52 3.89-2.15c.87-.48.09-1.81-.78-1.33z"/></g><g><path fill="#fff" d="M69.62 253.863l-4.68 2.59c-.87.48-.09 1.81.78 1.33l4.68-2.59c.87-.48.09-1.81-.78-1.33z"/></g><g><path fill="#474b58" d="M76.27 242.568l-16 8.62-24.41 13.22-4.71 2.59a59.46 59.46 0 0 0-17.47 14.36A60.22 60.22 0 0 0 0 319.598V344.018a1.558 1.558 0 0 0 1.54 1.54h211.68c2.86 0 5.72.05 8.58 0h.38a1.556 1.556 0 0 0 1.083-.457c.288-.287.452-.676.457-1.083v-22.84a68.181 68.181 0 0 0-1.48-15.13 59.232 59.232 0 0 0-8.88-20.34 59.995 59.995 0 0 0-16-15.87c-2.44-1.64-5-3-7.58-4.4l-23.14-12.5c-6.29-3.4-12.53-6.89-18.87-10.2l-.31-.17c-1.74-.94-3.3 1.71-1.55 2.66l15.59 8.42 24.44 13.21 5.08 2.74a56.344 56.344 0 0 1 29.64 50.12v24.28l1.54-1.54H10.5c-2.85 0-5.74-.15-8.58 0h-.38l1.54 1.54v-22.56a65.55 65.55 0 0 1 1.33-14.44 56.92 56.92 0 0 1 8.79-20 56.119 56.119 0 0 1 15.8-15.21c2.2-1.4 4.51-2.61 6.8-3.85l23.2-12.55c6.16-3.33 12.42-6.51 18.49-10l.31-.17c1.74-.94.19-3.6-1.55-2.66z"/></g><g><path fill="#fff" d="M169.38 298.21h-53.6a.45.45 0 0 0-.45.45v32.72c0 .248.201.45.45.45h53.6a.45.45 0 0 0 .45-.45v-32.72a.45.45 0 0 0-.45-.45z"/></g><g opacity=".15"><g opacity=".02"><path fill="#94c8ff" d="M170 329.59h-50.78a1.85 1.85 0 0 1-1.85-1.85v-29.92a1.83 1.83 0 0 1 0-.41 1.85 1.85 0 0 0-1.43 1.8v29.92a1.85 1.85 0 0 0 1.85 1.85h50.81a1.85 1.85 0 0 0 1.8-1.43 1.829 1.829 0 0 1-.4.04z"/></g></g><g><path fill="#ffe66a" d="M115.43 303.85l.02-5.72 11.39-.92 41.82 1.1 1.56 10.59-55.53.62z"/></g><g><path fill="#5a6281" d="M114.42 309.75l.78-5.92v-5.91l11.61-.94 42 1.11 1.63 11h-.26zm1.26-11.4v5.53l-.71 5.4 55-.61-1.5-10.14-41.61-1.1z"/></g><g><path fill="#474b58" d="M167.881 330.667h-50.46c-.52 0-1-.09-1-.74v-23.23c0-2.16-.14-4.38 0-6.54 0-.59.41-.79.93-.8h49.45a9.28 9.28 0 0 1 1.07 0c.81.1.7.81.7 1.41v28.38c0 .58.14 1.47-.69 1.52-1.48.08-1.49 2.39 0 2.31a3.14 3.14 0 0 0 3-3.4v-28.7a3.76 3.76 0 0 0-.95-3c-1.2-1.15-3.35-.81-4.88-.81h-32.55c-5.07 0-10.14-.05-15.2 0a3.1 3.1 0 0 0-3.23 3v23.22c0 2.21-.07 4.43 0 6.64a3.08 3.08 0 0 0 3.07 3.07h50.74a1.165 1.165 0 1 0 0-2.33z"/></g><g><path fill="#474b58" d="M115.225 310.084h47.78c2.21 0 4.44.1 6.65 0h.1a1.155 1.155 0 0 0 0-2.31h-47.75c-2.21 0-4.44-.1-6.65 0h-.1a1.155 1.155 0 1 0 0 2.31z"/></g><g><path fill="#fbcdac" d="M34.02 125.98c7.318 0 13.25-8.57 13.25-19.14S41.338 87.7 34.02 87.7s-13.25 8.57-13.25 19.14 5.932 19.14 13.25 19.14z"/></g><g><path fill="#e2b89c" d="M23.853 113.77c0-10.57 5.93-19.14 13.25-19.14 3.91 0 7.42 2.44 9.84 6.32-1.72-7.69-6.72-13.25-12.61-13.25-7.32 0-13.25 8.57-13.25 19.14a24.39 24.39 0 0 0 3.41 12.82 27 27 0 0 1-.64-5.89z"/></g><g><path fill="#474b58" d="M19.62 106.838c0 7 2.66 15.56 9.35 19a10.77 10.77 0 0 0 9 .52 15.17 15.17 0 0 0 7.22-6.62c4-6.9 4.31-16.06 1.22-23.36-2.51-5.93-8.3-11.4-15.21-9.46-7.11 2-10.59 10-11.37 16.7a28.73 28.73 0 0 0-.18 3.2 1.155 1.155 0 0 0 2.31 0c.04-6.17 2.16-13.82 8.04-16.92a8.48 8.48 0 0 1 7.3-.38 13.14 13.14 0 0 1 6.09 5.94 24.72 24.72 0 0 1 1 20.75c-2.05 5-6.84 10-12.74 8.27-3-.91-5.32-3.39-6.84-6.06a23.58 23.58 0 0 1-2.86-11.57 1.165 1.165 0 1 0-2.33-.01z"/></g><g><path fill="#474b58" d="M24.88 102.444l4.12 9.55c.39.91 1.72.12 1.33-.78l-4.1-9.53c-.39-.91-1.72-.12-1.33.78z"/></g><g><path fill="#474b58" d="M29 101.68l-4.1 9.53c-.39.9.94 1.68 1.33.78l4.1-9.53c.39-.9-.94-1.68-1.33-.78z"/></g><g><path fill="#fbcdac" d="M193.09 123.45c7.318 0 13.25-8.57 13.25-19.14s-5.932-19.14-13.25-19.14-13.25 8.57-13.25 19.14 5.932 19.14 13.25 19.14z"/></g><g><path fill="#e2b89c" d="M203.39 111.39c0-10.57-5.93-19.14-13.25-19.14-3.91 0-7.42 2.44-9.84 6.32 1.7-7.68 6.7-13.24 12.61-13.24 7.32 0 13.25 8.57 13.25 19.14a24.39 24.39 0 0 1-3.41 12.82 27 27 0 0 0 .64-5.9z"/></g><g><path fill="#474b58" d="M178.68 104.308c0 7 2.66 15.56 9.35 19a10.77 10.77 0 0 0 9 .52 15.17 15.17 0 0 0 7.22-6.62c4-6.9 4.31-16.06 1.22-23.36-2.51-5.93-8.3-11.4-15.21-9.46-7.11 2-10.59 10-11.37 16.7-.12 1.063-.18 2.131-.18 3.2a1.155 1.155 0 0 0 2.31 0c0-6.19 2.2-13.8 8.06-16.95a8.48 8.48 0 0 1 7.3-.38 13.14 13.14 0 0 1 6.09 5.94 24.72 24.72 0 0 1 1 20.75c-2.05 5-6.84 10-12.74 8.27-3-.91-5.32-3.39-6.84-6.06a23.58 23.58 0 0 1-2.89-11.55 1.16 1.16 0 1 0-2.32 0z"/></g><g><path fill="#f9d4bb" d="M112 1.93h-.01c-41.841 0-75.76 33.919-75.76 75.76v59.39c0 41.841 33.919 75.76 75.76 75.76h.01c41.841 0 75.76-33.919 75.76-75.76V77.69c0-41.841-33.919-75.76-75.76-75.76z"/></g><g><path fill="#e2b89c" d="M114.22 196.22a76 76 0 0 1-75.76-75.76v16.61a76 76 0 0 0 75.76 75.76A75.998 75.998 0 0 0 190 137.07v-16.62a76 76 0 0 1-75.78 75.77z"/></g><g><path fill="#474b58" d="M112.145 210.908a73.342 73.342 0 0 1-33.15-7.91 74.245 74.245 0 0 1-39.41-52.21 97.517 97.517 0 0 1-1.28-18.54v-45.48c0-4.79-.15-9.62.19-14.4a73.35 73.35 0 0 1 10.21-32.37 74.677 74.677 0 0 1 22.93-24 73.489 73.489 0 0 1 31.85-11.66 74.17 74.17 0 0 1 79.13 51.32 78.947 78.947 0 0 1 3.38 23.86v57.48a73.501 73.501 0 0 1-6.57 30.51 75.358 75.358 0 0 1-20.36 26.49 73.396 73.396 0 0 1-46.92 16.93c-2.47 0-2.48 3.85 0 3.85a77.995 77.995 0 0 0 76.16-62.38 100.718 100.718 0 0 0 1.53-19.94v-46.16c0-5.12.16-10.29-.3-15.39a77.647 77.647 0 0 0-11.21-33.79 79.047 79.047 0 0 0-24.33-24.79 77.656 77.656 0 0 0-33.34-11.85 76.87 76.87 0 0 0-35.43 4.37 78.29 78.29 0 0 0-47.04 49.15 81.77 81.77 0 0 0-3.73 25.36V137.048a77.71 77.71 0 0 0 77.69 77.73 1.938 1.938 0 0 0 1.935-1.935 1.935 1.935 0 0 0-1.935-1.935z"/></g><g><path fill="#474b58" d="M195 102.464l4.1 9.53c.39.91 1.72.12 1.33-.78l-4.1-9.53c-.39-.91-1.72-.12-1.33.78z"/></g><g><path fill="#474b58" d="M199.12 101.69l-4.1 9.53c-.39.9.94 1.68 1.33.78l4.1-9.53c.39-.9-.94-1.68-1.33-.78z"/></g><g><path fill="#474b58" d="M110.45 90.69v41.84a1.54 1.54 0 0 0 3.08 0V90.69a1.54 1.54 0 1 0-3.08 0z"/></g><g><path fill="#474b58" d="M101.897 139.108c2.6 4.51 8 8.08 13.26 6a17.26 17.26 0 0 0 7-5.7 1.59 1.59 0 0 0 0-2.18 1.55 1.55 0 0 0-2.18 0 16.181 16.181 0 0 1-5.27 4.73c-.32.166-.654.3-1 .4l-.55.15c-.07 0-.69.13-.43.09a6.741 6.741 0 0 1-1 0h-.57c.31 0-.18 0-.28-.05a7.75 7.75 0 0 1-1-.27l-.44-.17c.3.13-.22-.11-.29-.15-.29-.15-.57-.31-.84-.49l-.37-.25c-.09-.06-.51-.38-.24-.17a17.38 17.38 0 0 1-2.32-2.35c-.17-.19.06.08.08.1l-.13-.17-.2-.28-.3-.43c-.09-.13-.17-.27-.25-.4a1.54 1.54 0 0 0-2.66 1.55z"/></g><g><path fill="#474b58" d="M79.435 170.09a10.35 10.35 0 0 0 5.62-10 14.54 14.54 0 0 0-2.48-6.31c-1.09-1.64-3.76-.1-2.66 1.55a13.88 13.88 0 0 1 1.65 3.15 7.72 7.72 0 0 1 .48 2.44 5.1 5.1 0 0 1-.3 2.13c0 .13-.09.26-.14.4-.05.14-.07.17 0 0l-.11.24a9.815 9.815 0 0 1-.51.91l-.28.41c-.24.35 0 0-.13.17s-.35.41-.54.6c-.19.19-.4.4-.61.58-.21.18-.75.59-.33.29a9.78 9.78 0 0 1-1.21.79c-1.76.9-.21 3.56 1.55 2.66z"/></g><g><path fill="#474b58" d="M142.664 167.435a9.78 9.78 0 0 1-1.21-.79c.42.3-.22-.19-.33-.29-.11-.1-.42-.38-.61-.58-.19-.2-.36-.39-.54-.6-.18-.21.11.18-.13-.17l-.28-.41a9.815 9.815 0 0 1-.51-.91l-.11-.24c.06.14.06.156 0 .05-.06-.15-.11-.3-.16-.46a5.1 5.1 0 0 1-.3-2.13 11.19 11.19 0 0 1 2.12-5.59c1.1-1.65-1.57-3.2-2.66-1.55-1.95 2.94-3.24 6.59-2.14 10.09a11.09 11.09 0 0 0 4.13 5.5 8.3 8.3 0 0 0 1.15.74c1.76.9 3.32-1.76 1.55-2.66z"/></g><g><path fill="#80766e" d="M172.69 90.82s-25.23-1.67-38.13-1.34c-2.89.07-5.49-1.64-5.8-4.51a5.1 5.1 0 0 1 5.52-5.63c9.15.82 30.11 3.4 38.41 11.48z"/></g><g><path fill="#6d645e" d="M134.56 86.71c-2.68.07-5.11-1.4-5.69-3.91a5.11 5.11 0 0 0-.1 1.71c.31 2.87 2.91 4.59 5.8 4.51 12.89-.33 38.13 1.34 38.13 1.34a20.055 20.055 0 0 0-3.22-2.51c-7.23-.43-24.84-1.4-34.92-1.14z"/></g><g><path fill="#474b58" d="M172.689 89.665c-3.6-.24-7.19-.44-10.79-.62-6.94-.36-13.89-.66-20.83-.74h-4.71c-1.57 0-3.23.19-4.67-.69-3-1.83-1.92-6.48 1.46-7.08a14.76 14.76 0 0 1 3.91.24c1.46.153 2.92.326 4.38.52 3.37.45 6.72 1 10 1.73a77.183 77.183 0 0 1 10.4 2.93 32.282 32.282 0 0 1 8.5 4.4c.525.404 1.025.838 1.5 1.3 1.07 1 2.7-.6 1.63-1.63a27.42 27.42 0 0 0-8.36-5.23 67 67 0 0 0-10.83-3.48 135.091 135.091 0 0 0-19.84-3.09 6.32 6.32 0 0 0-6.8 7.29 6 6 0 0 0 3.46 4.44c1.693.623 3.505.852 5.3.67 7.28-.08 14.56.23 21.83.57 4.73.22 9.46.63 14.18.79h.24c1.52.09 1.51-2.22.04-2.32z"/></g><g><path fill="#80766e" d="M54.74 90.82S80 89.15 92.86 89.48c2.89.07 5.49-1.64 5.8-4.51a5.1 5.1 0 0 0-5.52-5.63c-9.14.82-30.14 3.4-38.4 11.48z"/></g><g><path fill="#6d645e" d="M92.86 86.71c2.68.07 5.11-1.4 5.69-3.91.13.56.163 1.138.1 1.71-.31 2.87-2.91 4.59-5.8 4.51-12.85-.33-38.11 1.34-38.11 1.34A20.05 20.05 0 0 1 58 87.85c7.18-.43 24.79-1.4 34.86-1.14z"/></g><g><path fill="#474b58" d="M54.74 92.002c4-.26 7.92-.48 11.88-.68 7.29-.37 14.6-.68 21.9-.7 3.46 0 7.55.66 10-2.39a6.26 6.26 0 0 0-2.77-9.64 9.93 9.93 0 0 0-4.64-.18c-1.507.154-3.01.327-4.51.52-3.61.46-7.2 1-10.76 1.78a77.908 77.908 0 0 0-11 3.07 34.64 34.64 0 0 0-9.09 4.7c-.64.472-1.25.98-1.83 1.52-1.07 1 .56 2.66 1.63 1.63a25.519 25.519 0 0 1 7.71-4.79 62.84 62.84 0 0 1 10.05-3.23 132.298 132.298 0 0 1 18.91-3c1.53-.14 2.94-.13 4.11 1a4 4 0 0 1 .9 4.33 4.36 4.36 0 0 1-3.84 2.4c-1.53.08-3.08 0-4.61 0-7 0-13.92.3-20.87.64-4.32.21-8.66.39-13 .73h-.2c-1.45.06-1.46 2.37.03 2.29z"/></g><g><path fill="#474b58" d="M96.246 168.336l8.75 4.56 14 7.31 3.18 1.67a2 2 0 0 0 2.63-.69 1.94 1.94 0 0 0-.69-2.63l-8.79-4.56-14-7.31-3.13-1.69a2 2 0 0 0-2.63.69 1.94 1.94 0 0 0 .69 2.63z"/></g><g><path fill="#474b58" d="M186.847 57.94c-1.37-2.32-2.87-4.56-4.4-6.77a152.47 152.47 0 0 0-11.71-15 88.428 88.428 0 0 0-16.67-14.87 46.557 46.557 0 0 0-9.54-4.94 31.306 31.306 0 0 0-4.86-1.36c-.93-.18-2.19-.59-3.07-.15l-.35.2a52.81 52.81 0 0 1-20.67 6.77c-8.76.88-17.73-1.64-25.47-5.47-.84-.42-1.67-.85-2.49-1.32a3.827 3.827 0 0 0-.51-.27c-.86-.34-2.15.07-3 .26a36.7 36.7 0 0 0-9.76 3.62c-6.6 3.45-12.35 8.36-17.55 13.68A140.347 140.347 0 0 0 43.697 48c-2.24 3.08-4.39 6.23-6.37 9.48l-.28.46a1.54 1.54 0 0 0 2.66 1.55 132.08 132.08 0 0 1 9.29-13.41c6.18-8 13.68-16.26 22.28-22a46.627 46.627 0 0 1 7.65-4.22 35.183 35.183 0 0 1 3.82-1.34 32.25 32.25 0 0 1 3.88-.81l-.78-.21c1.6.936 3.257 1.77 4.96 2.5a60.27 60.27 0 0 0 12.51 4.08c2.566.53 5.172.844 7.79.94a39.89 39.89 0 0 0 7.6-.6 57.212 57.212 0 0 0 13.06-3.85 48.887 48.887 0 0 0 6.39-3.13l-.78.21c.27 0 1 .16 1.55.26s1.2.26 1.79.42c1.204.323 2.39.714 3.55 1.17a43.318 43.318 0 0 1 6.79 3.5 72.485 72.485 0 0 1 12.61 10.21 135.85 135.85 0 0 1 17.45 21.45c1.06 1.58 2.1 3.17 3.07 4.81a1.54 1.54 0 0 0 2.66-1.55z"/></g><g><path fill="#474b58" d="M40.46 49.15l21.69-30.46L88.46 5.74l26.93-3.81 25.85 6.12 20.52 12.5 18.07 20.91 3.17 9.97-13.46-13.99-23.53-18.83-8.63-2.38-14.41 5.76-15.64 1.23-12.92-3.34-9.24-3.72-6.78 2.23-14 8.94-18.38 20.11-4.91 3.99z"/></g><g><path fill="#474b58" d="M65.84 105.92h29.69a1.54 1.54 0 0 0 0-3.08H65.84a1.54 1.54 0 0 0 0 3.08z"/></g><g><path fill="#474b58" d="M130.91 105.92h29.69a1.54 1.54 0 0 0 0-3.08h-29.69a1.54 1.54 0 1 0 0 3.08z"/></g></g></g><g><g><g><text dominant-baseline="text-before-edge" style="text-transform:uppercase;font-kerning:normal" font-family="'Poppins','Poppins-Regular'" font-size="6" transform="translate(121 320)"><tspan style="text-transform:uppercase;font-kerning:normal">Butcher chef</tspan></text></g></g><g><g><text dominant-baseline="text-before-edge" style="text-transform:uppercase;font-kerning:normal" font-family="'Poppins','Poppins-Bold'" font-size="9" transform="translate(129 310)"><tspan style="text-transform:uppercase;font-kerning:normal">Steve</tspan></text></g></g><g><g><text dominant-baseline="text-before-edge" style="font-kerning:normal" fill="#366eff" font-family="'Poppins','Poppins-Bold'" font-size="6" transform="translate(119 298)"><tspan style="font-kerning:normal">Ocean Burgers</tspan></text></g></g></g></g></g></svg>